<?xml version="1.0" encoding="utf-8" standalone="no"?>
<!DOCTYPE svg PUBLIC "-//W3C//DTD SVG 1.1//EN"
  "http://www.w3.org/Graphics/SVG/1.1/DTD/svg11.dtd">
<!-- Created with matplotlib (https://matplotlib.org/) -->
<svg height="432pt" version="1.1" viewBox="0 0 720 432" width="720pt" xmlns="http://www.w3.org/2000/svg" xmlns:xlink="http://www.w3.org/1999/xlink">
 <defs>
  <style type="text/css">
*{stroke-linecap:butt;stroke-linejoin:round;}
  </style>
 </defs>
 <g id="figure_1">
  <g id="patch_1">
   <path d="M 0 432 
L 720 432 
L 720 0 
L 0 0 
z
" style="fill:#ffffff;"/>
  </g>
  <g id="axes_1">
   <g id="patch_2">
    <path d="M 90 378 
L 648 378 
L 648 51.84 
L 90 51.84 
z
" style="fill:#ffffff;"/>
   </g>
   <g id="PathCollection_1">
    <defs>
     <path d="M 0 3 
C 0.795609 3 1.55874 2.683901 2.12132 2.12132 
C 2.683901 1.55874 3 0.795609 3 0 
C 3 -0.795609 2.683901 -1.55874 2.12132 -2.12132 
C 1.55874 -2.683901 0.795609 -3 0 -3 
C -0.795609 -3 -1.55874 -2.683901 -2.12132 -2.12132 
C -2.683901 -1.55874 -3 -0.795609 -3 0 
C -3 0.795609 -2.683901 1.55874 -2.12132 2.12132 
C -1.55874 2.683901 -0.795609 3 0 3 
z
" id="m930bbfb189" style="stroke:#ff0000;"/>
    </defs>
    <g clip-path="url(#pa894cdae8b)">
     <use style="fill:#ff0000;stroke:#ff0000;" x="164.672361" xlink:href="#m930bbfb189" y="188.886796"/>
     <use style="fill:#ff0000;stroke:#ff0000;" x="164.729103" xlink:href="#m930bbfb189" y="188.886796"/>
     <use style="fill:#ff0000;stroke:#ff0000;" x="165.296522" xlink:href="#m930bbfb189" y="188.886796"/>
     <use style="fill:#ff0000;stroke:#ff0000;" x="211.995119" xlink:href="#m930bbfb189" y="353.123396"/>
     <use style="fill:#ff0000;stroke:#ff0000;" x="261.871263" xlink:href="#m930bbfb189" y="353.00001"/>
     <use style="fill:#ff0000;stroke:#ff0000;" x="261.928005" xlink:href="#m930bbfb189" y="353.792609"/>
     <use style="fill:#ff0000;stroke:#ff0000;" x="336.657108" xlink:href="#m930bbfb189" y="330.64144"/>
     <use style="fill:#ff0000;stroke:#ff0000;" x="363.893228" xlink:href="#m930bbfb189" y="333.82948"/>
     <use style="fill:#ff0000;stroke:#ff0000;" x="371.66687" xlink:href="#m930bbfb189" y="182.887245"/>
     <use style="fill:#ff0000;stroke:#ff0000;" x="371.723612" xlink:href="#m930bbfb189" y="182.887245"/>
     <use style="fill:#ff0000;stroke:#ff0000;" x="377.511287" xlink:href="#m930bbfb189" y="333.856371"/>
     <use style="fill:#ff0000;stroke:#ff0000;" x="404.747407" xlink:href="#m930bbfb189" y="336.900961"/>
     <use style="fill:#ff0000;stroke:#ff0000;" x="405.938987" xlink:href="#m930bbfb189" y="69.635405"/>
     <use style="fill:#ff0000;stroke:#ff0000;" x="418.365467" xlink:href="#m930bbfb189" y="330.052128"/>
    </g>
   </g>
   <g id="matplotlib.axis_1">
    <g id="xtick_1">
     <g id="line2d_1">
      <defs>
       <path d="M 0 0 
L 0 3.5 
" id="m4beffda92d" style="stroke:#000000;stroke-width:0.8;"/>
      </defs>
      <g>
       <use style="stroke:#000000;stroke-width:0.8;" x="98.341062" xlink:href="#m4beffda92d" y="378"/>
      </g>
     </g>
     <g id="text_1">
      <!-- 27 21 -->
      <defs>
       <path d="M 19.1875 8.296875 
L 53.609375 8.296875 
L 53.609375 0 
L 7.328125 0 
L 7.328125 8.296875 
Q 12.9375 14.109375 22.625 23.890625 
Q 32.328125 33.6875 34.8125 36.53125 
Q 39.546875 41.84375 41.421875 45.53125 
Q 43.3125 49.21875 43.3125 52.78125 
Q 43.3125 58.59375 39.234375 62.25 
Q 35.15625 65.921875 28.609375 65.921875 
Q 23.96875 65.921875 18.8125 64.3125 
Q 13.671875 62.703125 7.8125 59.421875 
L 7.8125 69.390625 
Q 13.765625 71.78125 18.9375 73 
Q 24.125 74.21875 28.421875 74.21875 
Q 39.75 74.21875 46.484375 68.546875 
Q 53.21875 62.890625 53.21875 53.421875 
Q 53.21875 48.921875 51.53125 44.890625 
Q 49.859375 40.875 45.40625 35.40625 
Q 44.1875 33.984375 37.640625 27.21875 
Q 31.109375 20.453125 19.1875 8.296875 
z
" id="DejaVuSans-50"/>
       <path d="M 8.203125 72.90625 
L 55.078125 72.90625 
L 55.078125 68.703125 
L 28.609375 0 
L 18.3125 0 
L 43.21875 64.59375 
L 8.203125 64.59375 
z
" id="DejaVuSans-55"/>
       <path id="DejaVuSans-32"/>
       <path d="M 12.40625 8.296875 
L 28.515625 8.296875 
L 28.515625 63.921875 
L 10.984375 60.40625 
L 10.984375 69.390625 
L 28.421875 72.90625 
L 38.28125 72.90625 
L 38.28125 8.296875 
L 54.390625 8.296875 
L 54.390625 0 
L 12.40625 0 
z
" id="DejaVuSans-49"/>
      </defs>
      <g transform="translate(84.026999 392.598437)scale(0.1 -0.1)">
       <use xlink:href="#DejaVuSans-50"/>
       <use x="63.623047" xlink:href="#DejaVuSans-55"/>
       <use x="127.246094" xlink:href="#DejaVuSans-32"/>
       <use x="159.033203" xlink:href="#DejaVuSans-50"/>
       <use x="222.65625" xlink:href="#DejaVuSans-49"/>
      </g>
     </g>
    </g>
    <g id="xtick_2">
     <g id="line2d_2">
      <g>
       <use style="stroke:#000000;stroke-width:0.8;" x="180.04942" xlink:href="#m4beffda92d" y="378"/>
      </g>
     </g>
     <g id="text_2">
      <!-- 28 03 -->
      <defs>
       <path d="M 31.78125 34.625 
Q 24.75 34.625 20.71875 30.859375 
Q 16.703125 27.09375 16.703125 20.515625 
Q 16.703125 13.921875 20.71875 10.15625 
Q 24.75 6.390625 31.78125 6.390625 
Q 38.8125 6.390625 42.859375 10.171875 
Q 46.921875 13.96875 46.921875 20.515625 
Q 46.921875 27.09375 42.890625 30.859375 
Q 38.875 34.625 31.78125 34.625 
z
M 21.921875 38.8125 
Q 15.578125 40.375 12.03125 44.71875 
Q 8.5 49.078125 8.5 55.328125 
Q 8.5 64.0625 14.71875 69.140625 
Q 20.953125 74.21875 31.78125 74.21875 
Q 42.671875 74.21875 48.875 69.140625 
Q 55.078125 64.0625 55.078125 55.328125 
Q 55.078125 49.078125 51.53125 44.71875 
Q 48 40.375 41.703125 38.8125 
Q 48.828125 37.15625 52.796875 32.3125 
Q 56.78125 27.484375 56.78125 20.515625 
Q 56.78125 9.90625 50.3125 4.234375 
Q 43.84375 -1.421875 31.78125 -1.421875 
Q 19.734375 -1.421875 13.25 4.234375 
Q 6.78125 9.90625 6.78125 20.515625 
Q 6.78125 27.484375 10.78125 32.3125 
Q 14.796875 37.15625 21.921875 38.8125 
z
M 18.3125 54.390625 
Q 18.3125 48.734375 21.84375 45.5625 
Q 25.390625 42.390625 31.78125 42.390625 
Q 38.140625 42.390625 41.71875 45.5625 
Q 45.3125 48.734375 45.3125 54.390625 
Q 45.3125 60.0625 41.71875 63.234375 
Q 38.140625 66.40625 31.78125 66.40625 
Q 25.390625 66.40625 21.84375 63.234375 
Q 18.3125 60.0625 18.3125 54.390625 
z
" id="DejaVuSans-56"/>
       <path d="M 31.78125 66.40625 
Q 24.171875 66.40625 20.328125 58.90625 
Q 16.5 51.421875 16.5 36.375 
Q 16.5 21.390625 20.328125 13.890625 
Q 24.171875 6.390625 31.78125 6.390625 
Q 39.453125 6.390625 43.28125 13.890625 
Q 47.125 21.390625 47.125 36.375 
Q 47.125 51.421875 43.28125 58.90625 
Q 39.453125 66.40625 31.78125 66.40625 
z
M 31.78125 74.21875 
Q 44.046875 74.21875 50.515625 64.515625 
Q 56.984375 54.828125 56.984375 36.375 
Q 56.984375 17.96875 50.515625 8.265625 
Q 44.046875 -1.421875 31.78125 -1.421875 
Q 19.53125 -1.421875 13.0625 8.265625 
Q 6.59375 17.96875 6.59375 36.375 
Q 6.59375 54.828125 13.0625 64.515625 
Q 19.53125 74.21875 31.78125 74.21875 
z
" id="DejaVuSans-48"/>
       <path d="M 40.578125 39.3125 
Q 47.65625 37.796875 51.625 33 
Q 55.609375 28.21875 55.609375 21.1875 
Q 55.609375 10.40625 48.1875 4.484375 
Q 40.765625 -1.421875 27.09375 -1.421875 
Q 22.515625 -1.421875 17.65625 -0.515625 
Q 12.796875 0.390625 7.625 2.203125 
L 7.625 11.71875 
Q 11.71875 9.328125 16.59375 8.109375 
Q 21.484375 6.890625 26.8125 6.890625 
Q 36.078125 6.890625 40.9375 10.546875 
Q 45.796875 14.203125 45.796875 21.1875 
Q 45.796875 27.640625 41.28125 31.265625 
Q 36.765625 34.90625 28.71875 34.90625 
L 20.21875 34.90625 
L 20.21875 43.015625 
L 29.109375 43.015625 
Q 36.375 43.015625 40.234375 45.921875 
Q 44.09375 48.828125 44.09375 54.296875 
Q 44.09375 59.90625 40.109375 62.90625 
Q 36.140625 65.921875 28.71875 65.921875 
Q 24.65625 65.921875 20.015625 65.03125 
Q 15.375 64.15625 9.8125 62.3125 
L 9.8125 71.09375 
Q 15.4375 72.65625 20.34375 73.4375 
Q 25.25 74.21875 29.59375 74.21875 
Q 40.828125 74.21875 47.359375 69.109375 
Q 53.90625 64.015625 53.90625 55.328125 
Q 53.90625 49.265625 50.4375 45.09375 
Q 46.96875 40.921875 40.578125 39.3125 
z
" id="DejaVuSans-51"/>
      </defs>
      <g transform="translate(165.735358 392.598437)scale(0.1 -0.1)">
       <use xlink:href="#DejaVuSans-50"/>
       <use x="63.623047" xlink:href="#DejaVuSans-56"/>
       <use x="127.246094" xlink:href="#DejaVuSans-32"/>
       <use x="159.033203" xlink:href="#DejaVuSans-48"/>
       <use x="222.65625" xlink:href="#DejaVuSans-51"/>
      </g>
     </g>
    </g>
    <g id="xtick_3">
     <g id="line2d_3">
      <g>
       <use style="stroke:#000000;stroke-width:0.8;" x="261.757779" xlink:href="#m4beffda92d" y="378"/>
      </g>
     </g>
     <g id="text_3">
      <!-- 28 09 -->
      <defs>
       <path d="M 10.984375 1.515625 
L 10.984375 10.5 
Q 14.703125 8.734375 18.5 7.8125 
Q 22.3125 6.890625 25.984375 6.890625 
Q 35.75 6.890625 40.890625 13.453125 
Q 46.046875 20.015625 46.78125 33.40625 
Q 43.953125 29.203125 39.59375 26.953125 
Q 35.25 24.703125 29.984375 24.703125 
Q 19.046875 24.703125 12.671875 31.3125 
Q 6.296875 37.9375 6.296875 49.421875 
Q 6.296875 60.640625 12.9375 67.421875 
Q 19.578125 74.21875 30.609375 74.21875 
Q 43.265625 74.21875 49.921875 64.515625 
Q 56.59375 54.828125 56.59375 36.375 
Q 56.59375 19.140625 48.40625 8.859375 
Q 40.234375 -1.421875 26.421875 -1.421875 
Q 22.703125 -1.421875 18.890625 -0.6875 
Q 15.09375 0.046875 10.984375 1.515625 
z
M 30.609375 32.421875 
Q 37.25 32.421875 41.125 36.953125 
Q 45.015625 41.5 45.015625 49.421875 
Q 45.015625 57.28125 41.125 61.84375 
Q 37.25 66.40625 30.609375 66.40625 
Q 23.96875 66.40625 20.09375 61.84375 
Q 16.21875 57.28125 16.21875 49.421875 
Q 16.21875 41.5 20.09375 36.953125 
Q 23.96875 32.421875 30.609375 32.421875 
z
" id="DejaVuSans-57"/>
      </defs>
      <g transform="translate(247.443717 392.598437)scale(0.1 -0.1)">
       <use xlink:href="#DejaVuSans-50"/>
       <use x="63.623047" xlink:href="#DejaVuSans-56"/>
       <use x="127.246094" xlink:href="#DejaVuSans-32"/>
       <use x="159.033203" xlink:href="#DejaVuSans-48"/>
       <use x="222.65625" xlink:href="#DejaVuSans-57"/>
      </g>
     </g>
    </g>
    <g id="xtick_4">
     <g id="line2d_4">
      <g>
       <use style="stroke:#000000;stroke-width:0.8;" x="343.466138" xlink:href="#m4beffda92d" y="378"/>
      </g>
     </g>
     <g id="text_4">
      <!-- 28 15 -->
      <defs>
       <path d="M 10.796875 72.90625 
L 49.515625 72.90625 
L 49.515625 64.59375 
L 19.828125 64.59375 
L 19.828125 46.734375 
Q 21.96875 47.46875 24.109375 47.828125 
Q 26.265625 48.1875 28.421875 48.1875 
Q 40.625 48.1875 47.75 41.5 
Q 54.890625 34.8125 54.890625 23.390625 
Q 54.890625 11.625 47.5625 5.09375 
Q 40.234375 -1.421875 26.90625 -1.421875 
Q 22.3125 -1.421875 17.546875 -0.640625 
Q 12.796875 0.140625 7.71875 1.703125 
L 7.71875 11.625 
Q 12.109375 9.234375 16.796875 8.0625 
Q 21.484375 6.890625 26.703125 6.890625 
Q 35.15625 6.890625 40.078125 11.328125 
Q 45.015625 15.765625 45.015625 23.390625 
Q 45.015625 31 40.078125 35.4375 
Q 35.15625 39.890625 26.703125 39.890625 
Q 22.75 39.890625 18.8125 39.015625 
Q 14.890625 38.140625 10.796875 36.28125 
z
" id="DejaVuSans-53"/>
      </defs>
      <g transform="translate(329.152075 392.598437)scale(0.1 -0.1)">
       <use xlink:href="#DejaVuSans-50"/>
       <use x="63.623047" xlink:href="#DejaVuSans-56"/>
       <use x="127.246094" xlink:href="#DejaVuSans-32"/>
       <use x="159.033203" xlink:href="#DejaVuSans-49"/>
       <use x="222.65625" xlink:href="#DejaVuSans-53"/>
      </g>
     </g>
    </g>
    <g id="xtick_5">
     <g id="line2d_5">
      <g>
       <use style="stroke:#000000;stroke-width:0.8;" x="425.174497" xlink:href="#m4beffda92d" y="378"/>
      </g>
     </g>
     <g id="text_5">
      <!-- 28 21 -->
      <g transform="translate(410.860434 392.598437)scale(0.1 -0.1)">
       <use xlink:href="#DejaVuSans-50"/>
       <use x="63.623047" xlink:href="#DejaVuSans-56"/>
       <use x="127.246094" xlink:href="#DejaVuSans-32"/>
       <use x="159.033203" xlink:href="#DejaVuSans-50"/>
       <use x="222.65625" xlink:href="#DejaVuSans-49"/>
      </g>
     </g>
    </g>
    <g id="xtick_6">
     <g id="line2d_6">
      <g>
       <use style="stroke:#000000;stroke-width:0.8;" x="506.882855" xlink:href="#m4beffda92d" y="378"/>
      </g>
     </g>
     <g id="text_6">
      <!-- 29 03 -->
      <g transform="translate(492.568793 392.598437)scale(0.1 -0.1)">
       <use xlink:href="#DejaVuSans-50"/>
       <use x="63.623047" xlink:href="#DejaVuSans-57"/>
       <use x="127.246094" xlink:href="#DejaVuSans-32"/>
       <use x="159.033203" xlink:href="#DejaVuSans-48"/>
       <use x="222.65625" xlink:href="#DejaVuSans-51"/>
      </g>
     </g>
    </g>
    <g id="xtick_7">
     <g id="line2d_7">
      <g>
       <use style="stroke:#000000;stroke-width:0.8;" x="588.591214" xlink:href="#m4beffda92d" y="378"/>
      </g>
     </g>
     <g id="text_7">
      <!-- 29 09 -->
      <g transform="translate(574.277152 392.598437)scale(0.1 -0.1)">
       <use xlink:href="#DejaVuSans-50"/>
       <use x="63.623047" xlink:href="#DejaVuSans-57"/>
       <use x="127.246094" xlink:href="#DejaVuSans-32"/>
       <use x="159.033203" xlink:href="#DejaVuSans-48"/>
       <use x="222.65625" xlink:href="#DejaVuSans-57"/>
      </g>
     </g>
    </g>
    <g id="xtick_8">
     <g id="line2d_8">
      <defs>
       <path d="M 0 0 
L 0 2 
" id="me2b6fea225" style="stroke:#000000;stroke-width:0.6;"/>
      </defs>
      <g>
       <use style="stroke:#000000;stroke-width:0.6;" x="98.341062" xlink:href="#me2b6fea225" y="378"/>
      </g>
     </g>
    </g>
    <g id="xtick_9">
     <g id="line2d_9">
      <g>
       <use style="stroke:#000000;stroke-width:0.6;" x="180.04942" xlink:href="#me2b6fea225" y="378"/>
      </g>
     </g>
    </g>
    <g id="xtick_10">
     <g id="line2d_10">
      <g>
       <use style="stroke:#000000;stroke-width:0.6;" x="261.757779" xlink:href="#me2b6fea225" y="378"/>
      </g>
     </g>
    </g>
    <g id="xtick_11">
     <g id="line2d_11">
      <g>
       <use style="stroke:#000000;stroke-width:0.6;" x="343.466138" xlink:href="#me2b6fea225" y="378"/>
      </g>
     </g>
    </g>
    <g id="xtick_12">
     <g id="line2d_12">
      <g>
       <use style="stroke:#000000;stroke-width:0.6;" x="425.174497" xlink:href="#me2b6fea225" y="378"/>
      </g>
     </g>
    </g>
    <g id="xtick_13">
     <g id="line2d_13">
      <g>
       <use style="stroke:#000000;stroke-width:0.6;" x="506.882855" xlink:href="#me2b6fea225" y="378"/>
      </g>
     </g>
    </g>
    <g id="xtick_14">
     <g id="line2d_14">
      <g>
       <use style="stroke:#000000;stroke-width:0.6;" x="588.591214" xlink:href="#me2b6fea225" y="378"/>
      </g>
     </g>
    </g>
    <g id="text_8">
     <!-- Timestamp -->
     <defs>
      <path d="M -0.296875 72.90625 
L 61.375 72.90625 
L 61.375 64.59375 
L 35.5 64.59375 
L 35.5 0 
L 25.59375 0 
L 25.59375 64.59375 
L -0.296875 64.59375 
z
" id="DejaVuSans-84"/>
      <path d="M 9.421875 54.6875 
L 18.40625 54.6875 
L 18.40625 0 
L 9.421875 0 
z
M 9.421875 75.984375 
L 18.40625 75.984375 
L 18.40625 64.59375 
L 9.421875 64.59375 
z
" id="DejaVuSans-105"/>
      <path d="M 52 44.1875 
Q 55.375 50.25 60.0625 53.125 
Q 64.75 56 71.09375 56 
Q 79.640625 56 84.28125 50.015625 
Q 88.921875 44.046875 88.921875 33.015625 
L 88.921875 0 
L 79.890625 0 
L 79.890625 32.71875 
Q 79.890625 40.578125 77.09375 44.375 
Q 74.3125 48.1875 68.609375 48.1875 
Q 61.625 48.1875 57.5625 43.546875 
Q 53.515625 38.921875 53.515625 30.90625 
L 53.515625 0 
L 44.484375 0 
L 44.484375 32.71875 
Q 44.484375 40.625 41.703125 44.40625 
Q 38.921875 48.1875 33.109375 48.1875 
Q 26.21875 48.1875 22.15625 43.53125 
Q 18.109375 38.875 18.109375 30.90625 
L 18.109375 0 
L 9.078125 0 
L 9.078125 54.6875 
L 18.109375 54.6875 
L 18.109375 46.1875 
Q 21.1875 51.21875 25.484375 53.609375 
Q 29.78125 56 35.6875 56 
Q 41.65625 56 45.828125 52.96875 
Q 50 49.953125 52 44.1875 
z
" id="DejaVuSans-109"/>
      <path d="M 56.203125 29.59375 
L 56.203125 25.203125 
L 14.890625 25.203125 
Q 15.484375 15.921875 20.484375 11.0625 
Q 25.484375 6.203125 34.421875 6.203125 
Q 39.59375 6.203125 44.453125 7.46875 
Q 49.3125 8.734375 54.109375 11.28125 
L 54.109375 2.78125 
Q 49.265625 0.734375 44.1875 -0.34375 
Q 39.109375 -1.421875 33.890625 -1.421875 
Q 20.796875 -1.421875 13.15625 6.1875 
Q 5.515625 13.8125 5.515625 26.8125 
Q 5.515625 40.234375 12.765625 48.109375 
Q 20.015625 56 32.328125 56 
Q 43.359375 56 49.78125 48.890625 
Q 56.203125 41.796875 56.203125 29.59375 
z
M 47.21875 32.234375 
Q 47.125 39.59375 43.09375 43.984375 
Q 39.0625 48.390625 32.421875 48.390625 
Q 24.90625 48.390625 20.390625 44.140625 
Q 15.875 39.890625 15.1875 32.171875 
z
" id="DejaVuSans-101"/>
      <path d="M 44.28125 53.078125 
L 44.28125 44.578125 
Q 40.484375 46.53125 36.375 47.5 
Q 32.28125 48.484375 27.875 48.484375 
Q 21.1875 48.484375 17.84375 46.4375 
Q 14.5 44.390625 14.5 40.28125 
Q 14.5 37.15625 16.890625 35.375 
Q 19.28125 33.59375 26.515625 31.984375 
L 29.59375 31.296875 
Q 39.15625 29.25 43.1875 25.515625 
Q 47.21875 21.78125 47.21875 15.09375 
Q 47.21875 7.46875 41.1875 3.015625 
Q 35.15625 -1.421875 24.609375 -1.421875 
Q 20.21875 -1.421875 15.453125 -0.5625 
Q 10.6875 0.296875 5.421875 2 
L 5.421875 11.28125 
Q 10.40625 8.6875 15.234375 7.390625 
Q 20.0625 6.109375 24.8125 6.109375 
Q 31.15625 6.109375 34.5625 8.28125 
Q 37.984375 10.453125 37.984375 14.40625 
Q 37.984375 18.0625 35.515625 20.015625 
Q 33.0625 21.96875 24.703125 23.78125 
L 21.578125 24.515625 
Q 13.234375 26.265625 9.515625 29.90625 
Q 5.8125 33.546875 5.8125 39.890625 
Q 5.8125 47.609375 11.28125 51.796875 
Q 16.75 56 26.8125 56 
Q 31.78125 56 36.171875 55.265625 
Q 40.578125 54.546875 44.28125 53.078125 
z
" id="DejaVuSans-115"/>
      <path d="M 18.3125 70.21875 
L 18.3125 54.6875 
L 36.8125 54.6875 
L 36.8125 47.703125 
L 18.3125 47.703125 
L 18.3125 18.015625 
Q 18.3125 11.328125 20.140625 9.421875 
Q 21.96875 7.515625 27.59375 7.515625 
L 36.8125 7.515625 
L 36.8125 0 
L 27.59375 0 
Q 17.1875 0 13.234375 3.875 
Q 9.28125 7.765625 9.28125 18.015625 
L 9.28125 47.703125 
L 2.6875 47.703125 
L 2.6875 54.6875 
L 9.28125 54.6875 
L 9.28125 70.21875 
z
" id="DejaVuSans-116"/>
      <path d="M 34.28125 27.484375 
Q 23.390625 27.484375 19.1875 25 
Q 14.984375 22.515625 14.984375 16.5 
Q 14.984375 11.71875 18.140625 8.90625 
Q 21.296875 6.109375 26.703125 6.109375 
Q 34.1875 6.109375 38.703125 11.40625 
Q 43.21875 16.703125 43.21875 25.484375 
L 43.21875 27.484375 
z
M 52.203125 31.203125 
L 52.203125 0 
L 43.21875 0 
L 43.21875 8.296875 
Q 40.140625 3.328125 35.546875 0.953125 
Q 30.953125 -1.421875 24.3125 -1.421875 
Q 15.921875 -1.421875 10.953125 3.296875 
Q 6 8.015625 6 15.921875 
Q 6 25.140625 12.171875 29.828125 
Q 18.359375 34.515625 30.609375 34.515625 
L 43.21875 34.515625 
L 43.21875 35.40625 
Q 43.21875 41.609375 39.140625 45 
Q 35.0625 48.390625 27.6875 48.390625 
Q 23 48.390625 18.546875 47.265625 
Q 14.109375 46.140625 10.015625 43.890625 
L 10.015625 52.203125 
Q 14.9375 54.109375 19.578125 55.046875 
Q 24.21875 56 28.609375 56 
Q 40.484375 56 46.34375 49.84375 
Q 52.203125 43.703125 52.203125 31.203125 
z
" id="DejaVuSans-97"/>
      <path d="M 18.109375 8.203125 
L 18.109375 -20.796875 
L 9.078125 -20.796875 
L 9.078125 54.6875 
L 18.109375 54.6875 
L 18.109375 46.390625 
Q 20.953125 51.265625 25.265625 53.625 
Q 29.59375 56 35.59375 56 
Q 45.5625 56 51.78125 48.09375 
Q 58.015625 40.1875 58.015625 27.296875 
Q 58.015625 14.40625 51.78125 6.484375 
Q 45.5625 -1.421875 35.59375 -1.421875 
Q 29.59375 -1.421875 25.265625 0.953125 
Q 20.953125 3.328125 18.109375 8.203125 
z
M 48.6875 27.296875 
Q 48.6875 37.203125 44.609375 42.84375 
Q 40.53125 48.484375 33.40625 48.484375 
Q 26.265625 48.484375 22.1875 42.84375 
Q 18.109375 37.203125 18.109375 27.296875 
Q 18.109375 17.390625 22.1875 11.75 
Q 26.265625 6.109375 33.40625 6.109375 
Q 40.53125 6.109375 44.609375 11.75 
Q 48.6875 17.390625 48.6875 27.296875 
z
" id="DejaVuSans-112"/>
     </defs>
     <g transform="translate(340.939062 406.276563)scale(0.1 -0.1)">
      <use xlink:href="#DejaVuSans-84"/>
      <use x="61.037109" xlink:href="#DejaVuSans-105"/>
      <use x="88.820312" xlink:href="#DejaVuSans-109"/>
      <use x="186.232422" xlink:href="#DejaVuSans-101"/>
      <use x="247.755859" xlink:href="#DejaVuSans-115"/>
      <use x="299.855469" xlink:href="#DejaVuSans-116"/>
      <use x="339.064453" xlink:href="#DejaVuSans-97"/>
      <use x="400.34375" xlink:href="#DejaVuSans-109"/>
      <use x="497.755859" xlink:href="#DejaVuSans-112"/>
     </g>
    </g>
   </g>
   <g id="matplotlib.axis_2">
    <g id="ytick_1">
     <g id="line2d_15">
      <defs>
       <path d="M 0 0 
L -3.5 0 
" id="m15e86497b6" style="stroke:#000000;stroke-width:0.8;"/>
      </defs>
      <g>
       <use style="stroke:#000000;stroke-width:0.8;" x="90" xlink:href="#m15e86497b6" y="368.726602"/>
      </g>
     </g>
     <g id="text_9">
      <!-- 0 -->
      <g transform="translate(76.6375 372.525821)scale(0.1 -0.1)">
       <use xlink:href="#DejaVuSans-48"/>
      </g>
     </g>
    </g>
    <g id="ytick_2">
     <g id="line2d_16">
      <g>
       <use style="stroke:#000000;stroke-width:0.8;" x="90" xlink:href="#m15e86497b6" y="326.701161"/>
      </g>
     </g>
     <g id="text_10">
      <!-- 250000 -->
      <g transform="translate(44.825 330.50038)scale(0.1 -0.1)">
       <use xlink:href="#DejaVuSans-50"/>
       <use x="63.623047" xlink:href="#DejaVuSans-53"/>
       <use x="127.246094" xlink:href="#DejaVuSans-48"/>
       <use x="190.869141" xlink:href="#DejaVuSans-48"/>
       <use x="254.492188" xlink:href="#DejaVuSans-48"/>
       <use x="318.115234" xlink:href="#DejaVuSans-48"/>
      </g>
     </g>
    </g>
    <g id="ytick_3">
     <g id="line2d_17">
      <g>
       <use style="stroke:#000000;stroke-width:0.8;" x="90" xlink:href="#m15e86497b6" y="284.67572"/>
      </g>
     </g>
     <g id="text_11">
      <!-- 500000 -->
      <g transform="translate(44.825 288.474939)scale(0.1 -0.1)">
       <use xlink:href="#DejaVuSans-53"/>
       <use x="63.623047" xlink:href="#DejaVuSans-48"/>
       <use x="127.246094" xlink:href="#DejaVuSans-48"/>
       <use x="190.869141" xlink:href="#DejaVuSans-48"/>
       <use x="254.492188" xlink:href="#DejaVuSans-48"/>
       <use x="318.115234" xlink:href="#DejaVuSans-48"/>
      </g>
     </g>
    </g>
    <g id="ytick_4">
     <g id="line2d_18">
      <g>
       <use style="stroke:#000000;stroke-width:0.8;" x="90" xlink:href="#m15e86497b6" y="242.650279"/>
      </g>
     </g>
     <g id="text_12">
      <!-- 750000 -->
      <g transform="translate(44.825 246.449498)scale(0.1 -0.1)">
       <use xlink:href="#DejaVuSans-55"/>
       <use x="63.623047" xlink:href="#DejaVuSans-53"/>
       <use x="127.246094" xlink:href="#DejaVuSans-48"/>
       <use x="190.869141" xlink:href="#DejaVuSans-48"/>
       <use x="254.492188" xlink:href="#DejaVuSans-48"/>
       <use x="318.115234" xlink:href="#DejaVuSans-48"/>
      </g>
     </g>
    </g>
    <g id="ytick_5">
     <g id="line2d_19">
      <g>
       <use style="stroke:#000000;stroke-width:0.8;" x="90" xlink:href="#m15e86497b6" y="200.624838"/>
      </g>
     </g>
     <g id="text_13">
      <!-- 1000000 -->
      <g transform="translate(38.4625 204.424057)scale(0.1 -0.1)">
       <use xlink:href="#DejaVuSans-49"/>
       <use x="63.623047" xlink:href="#DejaVuSans-48"/>
       <use x="127.246094" xlink:href="#DejaVuSans-48"/>
       <use x="190.869141" xlink:href="#DejaVuSans-48"/>
       <use x="254.492188" xlink:href="#DejaVuSans-48"/>
       <use x="318.115234" xlink:href="#DejaVuSans-48"/>
       <use x="381.738281" xlink:href="#DejaVuSans-48"/>
      </g>
     </g>
    </g>
    <g id="ytick_6">
     <g id="line2d_20">
      <g>
       <use style="stroke:#000000;stroke-width:0.8;" x="90" xlink:href="#m15e86497b6" y="158.599397"/>
      </g>
     </g>
     <g id="text_14">
      <!-- 1250000 -->
      <g transform="translate(38.4625 162.398616)scale(0.1 -0.1)">
       <use xlink:href="#DejaVuSans-49"/>
       <use x="63.623047" xlink:href="#DejaVuSans-50"/>
       <use x="127.246094" xlink:href="#DejaVuSans-53"/>
       <use x="190.869141" xlink:href="#DejaVuSans-48"/>
       <use x="254.492188" xlink:href="#DejaVuSans-48"/>
       <use x="318.115234" xlink:href="#DejaVuSans-48"/>
       <use x="381.738281" xlink:href="#DejaVuSans-48"/>
      </g>
     </g>
    </g>
    <g id="ytick_7">
     <g id="line2d_21">
      <g>
       <use style="stroke:#000000;stroke-width:0.8;" x="90" xlink:href="#m15e86497b6" y="116.573957"/>
      </g>
     </g>
     <g id="text_15">
      <!-- 1500000 -->
      <g transform="translate(38.4625 120.373175)scale(0.1 -0.1)">
       <use xlink:href="#DejaVuSans-49"/>
       <use x="63.623047" xlink:href="#DejaVuSans-53"/>
       <use x="127.246094" xlink:href="#DejaVuSans-48"/>
       <use x="190.869141" xlink:href="#DejaVuSans-48"/>
       <use x="254.492188" xlink:href="#DejaVuSans-48"/>
       <use x="318.115234" xlink:href="#DejaVuSans-48"/>
       <use x="381.738281" xlink:href="#DejaVuSans-48"/>
      </g>
     </g>
    </g>
    <g id="ytick_8">
     <g id="line2d_22">
      <g>
       <use style="stroke:#000000;stroke-width:0.8;" x="90" xlink:href="#m15e86497b6" y="74.548516"/>
      </g>
     </g>
     <g id="text_16">
      <!-- 1750000 -->
      <g transform="translate(38.4625 78.347734)scale(0.1 -0.1)">
       <use xlink:href="#DejaVuSans-49"/>
       <use x="63.623047" xlink:href="#DejaVuSans-55"/>
       <use x="127.246094" xlink:href="#DejaVuSans-53"/>
       <use x="190.869141" xlink:href="#DejaVuSans-48"/>
       <use x="254.492188" xlink:href="#DejaVuSans-48"/>
       <use x="318.115234" xlink:href="#DejaVuSans-48"/>
       <use x="381.738281" xlink:href="#DejaVuSans-48"/>
      </g>
     </g>
    </g>
    <g id="text_17">
     <!-- Response time (ms) -->
     <defs>
      <path d="M 44.390625 34.1875 
Q 47.5625 33.109375 50.5625 29.59375 
Q 53.5625 26.078125 56.59375 19.921875 
L 66.609375 0 
L 56 0 
L 46.6875 18.703125 
Q 43.0625 26.03125 39.671875 28.421875 
Q 36.28125 30.8125 30.421875 30.8125 
L 19.671875 30.8125 
L 19.671875 0 
L 9.8125 0 
L 9.8125 72.90625 
L 32.078125 72.90625 
Q 44.578125 72.90625 50.734375 67.671875 
Q 56.890625 62.453125 56.890625 51.90625 
Q 56.890625 45.015625 53.6875 40.46875 
Q 50.484375 35.9375 44.390625 34.1875 
z
M 19.671875 64.796875 
L 19.671875 38.921875 
L 32.078125 38.921875 
Q 39.203125 38.921875 42.84375 42.21875 
Q 46.484375 45.515625 46.484375 51.90625 
Q 46.484375 58.296875 42.84375 61.546875 
Q 39.203125 64.796875 32.078125 64.796875 
z
" id="DejaVuSans-82"/>
      <path d="M 30.609375 48.390625 
Q 23.390625 48.390625 19.1875 42.75 
Q 14.984375 37.109375 14.984375 27.296875 
Q 14.984375 17.484375 19.15625 11.84375 
Q 23.34375 6.203125 30.609375 6.203125 
Q 37.796875 6.203125 41.984375 11.859375 
Q 46.1875 17.53125 46.1875 27.296875 
Q 46.1875 37.015625 41.984375 42.703125 
Q 37.796875 48.390625 30.609375 48.390625 
z
M 30.609375 56 
Q 42.328125 56 49.015625 48.375 
Q 55.71875 40.765625 55.71875 27.296875 
Q 55.71875 13.875 49.015625 6.21875 
Q 42.328125 -1.421875 30.609375 -1.421875 
Q 18.84375 -1.421875 12.171875 6.21875 
Q 5.515625 13.875 5.515625 27.296875 
Q 5.515625 40.765625 12.171875 48.375 
Q 18.84375 56 30.609375 56 
z
" id="DejaVuSans-111"/>
      <path d="M 54.890625 33.015625 
L 54.890625 0 
L 45.90625 0 
L 45.90625 32.71875 
Q 45.90625 40.484375 42.875 44.328125 
Q 39.84375 48.1875 33.796875 48.1875 
Q 26.515625 48.1875 22.3125 43.546875 
Q 18.109375 38.921875 18.109375 30.90625 
L 18.109375 0 
L 9.078125 0 
L 9.078125 54.6875 
L 18.109375 54.6875 
L 18.109375 46.1875 
Q 21.34375 51.125 25.703125 53.5625 
Q 30.078125 56 35.796875 56 
Q 45.21875 56 50.046875 50.171875 
Q 54.890625 44.34375 54.890625 33.015625 
z
" id="DejaVuSans-110"/>
      <path d="M 31 75.875 
Q 24.46875 64.65625 21.28125 53.65625 
Q 18.109375 42.671875 18.109375 31.390625 
Q 18.109375 20.125 21.3125 9.0625 
Q 24.515625 -2 31 -13.1875 
L 23.1875 -13.1875 
Q 15.875 -1.703125 12.234375 9.375 
Q 8.59375 20.453125 8.59375 31.390625 
Q 8.59375 42.28125 12.203125 53.3125 
Q 15.828125 64.359375 23.1875 75.875 
z
" id="DejaVuSans-40"/>
      <path d="M 8.015625 75.875 
L 15.828125 75.875 
Q 23.140625 64.359375 26.78125 53.3125 
Q 30.421875 42.28125 30.421875 31.390625 
Q 30.421875 20.453125 26.78125 9.375 
Q 23.140625 -1.703125 15.828125 -13.1875 
L 8.015625 -13.1875 
Q 14.5 -2 17.703125 9.0625 
Q 20.90625 20.125 20.90625 31.390625 
Q 20.90625 42.671875 17.703125 53.65625 
Q 14.5 64.65625 8.015625 75.875 
z
" id="DejaVuSans-41"/>
     </defs>
     <g transform="translate(32.382812 265.006719)rotate(-90)scale(0.1 -0.1)">
      <use xlink:href="#DejaVuSans-82"/>
      <use x="69.419922" xlink:href="#DejaVuSans-101"/>
      <use x="130.943359" xlink:href="#DejaVuSans-115"/>
      <use x="183.042969" xlink:href="#DejaVuSans-112"/>
      <use x="246.519531" xlink:href="#DejaVuSans-111"/>
      <use x="307.701172" xlink:href="#DejaVuSans-110"/>
      <use x="371.080078" xlink:href="#DejaVuSans-115"/>
      <use x="423.179688" xlink:href="#DejaVuSans-101"/>
      <use x="484.703125" xlink:href="#DejaVuSans-32"/>
      <use x="516.490234" xlink:href="#DejaVuSans-116"/>
      <use x="555.699219" xlink:href="#DejaVuSans-105"/>
      <use x="583.482422" xlink:href="#DejaVuSans-109"/>
      <use x="680.894531" xlink:href="#DejaVuSans-101"/>
      <use x="742.417969" xlink:href="#DejaVuSans-32"/>
      <use x="774.205078" xlink:href="#DejaVuSans-40"/>
      <use x="813.21875" xlink:href="#DejaVuSans-109"/>
      <use x="910.630859" xlink:href="#DejaVuSans-115"/>
      <use x="962.730469" xlink:href="#DejaVuSans-41"/>
     </g>
    </g>
   </g>
   <g id="line2d_23">
    <path clip-path="url(#pa894cdae8b)" d="M 115.363636 343.107607 
L 117.009152 342.835936 
L 117.122636 343.605241 
L 117.292862 341.560685 
L 117.633313 343.107607 
L 118.768151 343.107607 
L 126.655278 343.225433 
L 126.768761 341.564283 
L 126.825503 341.603151 
L 126.882245 341.819693 
L 128.981696 342.315372 
L 135.790726 340.305298 
L 136.982306 342.967954 
L 137.09579 339.515979 
L 137.266016 340.463826 
L 138.060403 340.305298 
L 147.139109 340.826555 
L 147.76327 339.780214 
L 147.876754 342.949993 
L 147.990238 338.787389 
L 149.408786 340.826555 
L 159.622331 257.267957 
L 162.005491 294.662478 
L 163.026846 257.267957 
L 164.729103 188.886796 
L 165.296522 188.886796 
L 166.488102 335.004548 
L 166.601586 289.072926 
L 167.566199 319.694007 
L 169.835876 319.973345 
L 171.027456 310.805737 
L 171.084198 320.182847 
L 171.14094 348.314173 
L 172.105552 320.182847 
L 173.24039 318.835459 
L 173.864552 325.685826 
L 174.375229 325.685826 
L 175.623551 311.427687 
L 176.644905 316.180402 
L 180.106162 341.312285 
L 180.219646 299.212882 
L 181.184259 320.262585 
L 183.453935 323.343696 
L 184.702257 327.96537 
L 185.723612 327.96537 
L 186.85845 326.078596 
L 189.184869 332.709328 
L 189.241611 333.339768 
L 189.298353 335.86153 
L 190.262965 330.63676 
L 192.4759 317.121714 
L 192.532642 317.121714 
L 193.780964 315.746027 
L 194.802318 315.746027 
L 197.071995 314.434208 
L 198.263575 351.445909 
L 198.377059 269.551604 
L 199.341672 310.498757 
L 200.47651 308.098505 
L 202.802929 343.779796 
L 202.916412 299.632406 
L 203.881025 299.650898 
L 204.221477 249.376535 
L 204.732154 278.562027 
L 206.150702 282.774825 
L 206.491153 282.774825 
L 207.342282 295.532909 
L 207.455766 323.595733 
L 207.909701 328.782765 
L 208.420378 317.876785 
L 210.690055 334.903392 
L 211.995119 353.123396 
L 212.959732 351.93 
L 214.09457 336.191399 
L 216.420988 334.691164 
L 216.47773 338.252205 
L 216.534472 352.496377 
L 217.499085 338.252205 
L 220.960342 332.106922 
L 221.073825 349.364683 
L 222.038438 341.968499 
L 224.194631 290.582648 
L 224.308115 315.384235 
L 225.556437 332.404854 
L 225.783405 320.831384 
L 226.010372 205.176866 
L 226.521049 324.823632 
L 226.691275 271.720285 
L 226.974985 310.622564 
L 227.42892 280.821819 
L 227.71263 316.366648 
L 230.09579 323.734753 
L 231.117145 323.734753 
L 234.635143 324.449774 
L 235.089079 326.165589 
L 235.656498 321.713792 
L 235.826724 311.79003 
L 237.926175 317.905898 
L 238.266626 316.35786 
L 238.777303 287.548075 
L 239.117755 320.09036 
L 239.174497 320.051318 
L 239.231239 319.953724 
L 240.195851 319.990181 
L 241.217206 319.562215 
L 241.330689 315.374359 
L 243.71385 296.584721 
L 244.394753 308.065904 
L 244.735204 306.513988 
L 245.075656 296.415611 
L 246.267236 324.989717 
L 247.004881 324.989717 
L 248.253203 228.936327 
L 249.274558 242.322113 
L 249.841977 295.865246 
L 250.52288 328.055557 
L 251.544234 260.735507 
L 252.338621 325.973785 
L 252.792556 220.244163 
L 253.813911 220.244163 
L 255.743136 328.28821 
L 256.083588 328.28821 
L 257.33191 328.574403 
L 260.622941 327.908972 
L 261.701037 327.908972 
L 261.928005 353.792609 
L 262.892617 335.819056 
L 263.289811 301.457151 
L 264.14094 328.610125 
L 264.594875 252.376143 
L 264.878585 323.87184 
L 265.162294 315.039138 
L 268.566809 319.713003 
L 268.850519 332.851398 
L 268.964002 317.163267 
L 269.134228 325.478447 
L 269.701647 321.921529 
L 271.971324 321.921529 
L 282.184869 337.183998 
L 285.589384 337.183998 
L 286.66748 338.821642 
L 286.780964 332.824762 
L 286.894448 341.770481 
L 287.85906 335.955762 
L 292.398414 331.91224 
L 293.816962 329.005363 
L 293.930445 325.395394 
L 294.100671 337.412755 
L 294.66809 331.91224 
L 295.802929 325.528938 
L 296.937767 315.334036 
L 296.994509 313.604468 
L 297.107993 334.964553 
L 297.278218 291.190199 
L 299.037218 322.810919 
L 299.150702 331.529955 
L 299.320927 322.985056 
L 301.079927 322.101997 
L 301.193411 297.085591 
L 301.363636 335.547049 
L 301.47712 324.567913 
L 302.214765 344.554745 
L 302.328249 334.114754 
L 302.498475 325.648077 
L 303.746797 335.067378 
L 304.370958 297.001404 
L 304.597926 339.069871 
L 306.016473 326.958178 
L 307.775473 291.634566 
L 308.00244 339.57431 
L 308.28615 320.720331 
L 309.420988 325.76822 
L 310.555827 329.085545 
L 311.520439 324.601076 
L 311.633923 332.897347 
L 311.804149 324.752977 
L 312.825503 324.518491 
L 315.09518 321.546405 
L 315.265406 308.695949 
L 315.492373 322.329622 
L 317.364857 328.722569 
L 317.535082 318.486921 
L 317.76205 331.380733 
L 319.010372 328.640338 
L 319.123856 332.152155 
L 319.294082 331.026546 
L 319.634533 330.760446 
L 320.599146 316.885426 
L 320.71263 336.896798 
L 320.882855 329.800537 
L 321.90421 331.406595 
L 322.074436 342.201783 
L 322.301403 325.387493 
L 323.152532 332.806481 
L 323.209274 332.806481 
L 323.322758 326.846871 
L 323.436242 340.347757 
L 324.173887 332.215829 
L 324.57108 333.837853 
L 324.741306 327.960671 
L 324.798048 319.830716 
L 326.04637 323.82007 
L 326.159854 337.911153 
L 326.443563 333.981982 
L 327.52166 338.577102 
L 327.635143 332.148866 
L 327.691885 333.256077 
L 327.748627 346.9117 
L 328.71324 334.791103 
L 328.883466 337.109505 
L 328.996949 334.444201 
L 329.053691 335.085867 
L 329.110433 336.262259 
L 330.585723 205.397699 
L 330.699207 332.455447 
L 330.869433 343.879252 
L 330.982916 330.042431 
L 332.514948 335.128775 
L 332.628432 331.421826 
L 332.685174 333.114622 
L 332.741916 334.066821 
L 333.252593 331.499009 
L 334.557657 338.634269 
L 334.784625 331.510279 
L 335.52227 331.402319 
L 336.486882 332.0783 
L 336.600366 326.766789 
L 336.657108 330.64144 
L 336.770592 293.587887 
L 337.791946 320.277315 
L 338.643075 331.278698 
L 338.813301 327.959537 
L 339.66443 327.496629 
L 339.777913 333.273714 
L 339.948139 329.180998 
L 340.061623 329.989024 
L 340.685784 347.714722 
L 340.799268 332.104115 
L 340.85601 334.846088 
L 340.912752 336.243959 
L 341.820622 331.585896 
L 341.934106 326.840116 
L 342.04759 339.905865 
L 342.3313 333.890726 
L 343.182428 322.66737 
L 343.295912 337.877073 
L 343.352654 336.024529 
L 343.409396 334.298292 
L 344.600976 332.893071 
L 345.338621 314.252017 
L 345.452105 335.437512 
L 345.622331 334.658452 
L 346.870653 335.050954 
L 346.927395 336.265805 
L 347.040879 332.897358 
L 347.211104 343.33622 
L 348.345943 331.973936 
L 348.402685 299.553735 
L 349.140329 335.55315 
L 349.424039 342.077597 
L 349.537523 335.757911 
L 349.707749 339.356096 
L 350.275168 335.033608 
L 350.899329 322.393532 
L 351.012813 339.067911 
L 351.069555 338.001479 
L 351.126297 332.059925 
L 351.410006 335.724924 
L 352.488102 334.639039 
L 352.601586 337.78385 
L 352.658328 332.985359 
L 352.71507 310.10024 
L 353.679683 335.01684 
L 354.303844 333.94687 
L 354.47407 325.226972 
L 354.530811 313.794896 
L 355.779134 334.605264 
L 356.006101 346.552369 
L 356.062843 346.552369 
L 357.027456 342.017585 
L 357.14094 330.128827 
L 357.254423 339.602535 
L 358.219036 331.798742 
L 358.389262 336.29449 
L 358.616229 327.062885 
L 359.694326 336.936336 
L 359.751068 336.936796 
L 359.921293 332.008192 
L 360.488713 335.205353 
L 360.99939 342.194394 
L 361.112874 338.98904 
L 361.283099 338.527863 
L 362.47468 337.650937 
L 362.644905 334.038856 
L 362.701647 330.338056 
L 363.836486 340.166393 
L 363.94997 329.933382 
L 364.006711 331.286649 
L 364.063453 333.767637 
L 365.084808 330.77106 
L 365.198292 336.639014 
L 365.368517 332.383552 
L 366.787065 335.391823 
L 366.900549 317.650215 
L 366.957291 320.888412 
L 367.014033 326.001364 
L 367.297743 332.416915 
L 368.375839 334.747969 
L 368.489323 336.556232 
L 368.546065 335.24886 
L 368.602807 327.404633 
L 369.964613 326.709485 
L 370.19158 335.243559 
L 371.496644 330.522256 
L 371.553386 329.554618 
L 371.723612 182.887245 
L 373.14216 338.574094 
L 373.312386 335.5397 
L 374.106772 331.819778 
L 374.730933 334.236932 
L 374.844417 293.161917 
L 374.957901 334.134747 
L 376.092739 340.824992 
L 376.262965 336.548476 
L 376.319707 324.883211 
L 377.114094 336.934253 
L 377.397804 327.351021 
L 377.511287 333.856371 
L 378.702868 343.020667 
L 378.816351 330.795792 
L 378.986577 335.075248 
L 380.178157 336.903118 
L 380.348383 335.702819 
L 380.915802 336.1379 
L 381.539963 340.555885 
L 381.653447 340.360188 
L 381.710189 340.360188 
L 382.561318 335.573848 
L 382.674802 336.83863 
L 382.845027 334.152776 
L 384.036608 335.9857 
L 384.150092 333.282119 
L 384.206833 334.452394 
L 384.263575 335.622668 
L 385.398414 363.174545 
L 386.987187 334.693601 
L 387.157413 329.396851 
L 387.724832 335.143725 
L 388.462477 344.991219 
L 388.575961 330.976835 
L 388.746187 344.290993 
L 389.370348 300.854685 
L 389.483832 344.238932 
L 389.654057 342.518087 
L 390.61867 341.006724 
L 390.732154 333.312535 
L 390.788896 334.369619 
L 390.845638 335.467361 
L 391.129347 336.660589 
L 392.207444 344.274814 
L 392.320927 334.642454 
L 392.377669 335.368196 
L 392.434411 336.980957 
L 393.56925 331.506358 
L 393.682733 329.338478 
L 393.796217 334.200619 
L 394.533862 337.9821 
L 394.931056 337.28609 
L 395.101281 327.582224 
L 396.065894 341.967774 
L 396.179378 332.22747 
L 396.23612 333.023006 
L 396.292862 339.387297 
L 397.200732 337.970772 
L 397.370958 341.331436 
L 397.4277 348.506061 
L 398.449054 343.380523 
L 398.562538 338.98806 
L 398.732764 317.68279 
L 399.697376 325.40497 
L 399.924344 341.216937 
L 400.945699 339.357968 
L 401.059182 326.908696 
L 401.229408 339.553087 
L 401.342892 336.382299 
L 402.080537 336.148869 
L 402.194021 331.504787 
L 402.364246 342.702482 
L 403.101891 338.685286 
L 403.215375 335.173017 
L 403.272117 335.220511 
L 403.328859 335.541086 
L 404.23673 332.459437 
L 404.350214 329.210474 
L 404.463697 338.679985 
L 404.747407 336.900961 
L 405.938987 69.635405 
L 406.052471 335.218728 
L 406.222697 340.037709 
L 407.414277 329.636722 
L 407.527761 339.73911 
L 407.584503 338.572271 
L 407.641245 335.883473 
L 408.151922 337.520537 
L 408.549115 339.061928 
L 408.662599 336.354006 
L 408.719341 337.099965 
L 408.776083 339.785417 
L 409.797437 327.166635 
L 409.910921 338.165975 
L 410.081147 332.476234 
L 410.932276 343.767756 
L 411.159243 336.517492 
L 411.215985 336.517492 
L 412.521049 337.737835 
L 412.634533 338.185737 
L 412.804759 336.027544 
L 414.109823 219.393285 
L 414.223307 331.574452 
L 414.393533 323.379386 
L 414.960952 325.925314 
L 415.585113 343.971432 
L 415.812081 297.40063 
L 416.946919 318.789914 
L 417.060403 332.391014 
L 417.117145 331.465554 
L 417.173887 326.118447 
L 418.308725 341.979762 
L 418.422209 324.994316 
L 418.535693 337.522426 
L 419.784015 326.267141 
L 419.897498 330.578888 
L 420.067724 338.411892 
L 420.918853 307.900996 
L 421.032337 341.612825 
L 421.202563 331.738567 
L 421.769982 333.117269 
L 422.280659 346.488998 
L 422.394143 338.381121 
L 422.564369 337.352441 
L 423.642465 336.706704 
L 423.755949 336.929042 
L 423.926174 324.934267 
L 424.039658 334.90707 
L 425.117755 334.90707 
L 425.231239 339.970907 
L 425.28798 339.364632 
L 425.344722 335.969496 
L 426.309335 336.920921 
L 426.593045 338.354143 
L 426.706528 329.791772 
L 426.876754 341.715498 
L 427.95485 339.453511 
L 428.068334 340.059097 
L 428.23856 338.633581 
L 428.579012 338.857955 
L 429.43014 336.215561 
L 429.600366 339.373906 
L 429.657108 346.997852 
L 430.564979 341.487056 
L 430.678463 342.230497 
L 430.735204 342.176486 
L 430.791946 341.976644 
L 430.848688 342.092724 
L 431.983527 338.593533 
L 432.494204 342.216815 
L 432.777913 333.384808 
L 433.118365 338.725958 
L 433.85601 340.333014 
L 433.969494 338.316659 
L 434.139719 340.456613 
L 435.388041 334.637232 
L 436.012203 325.755893 
L 436.125686 338.457471 
L 436.182428 338.062891 
L 436.23917 331.552326 
L 437.657718 338.829906 
L 437.941428 338.590382 
L 438.054912 339.210136 
L 438.225137 337.860284 
L 439.927395 333.79463 
L 440.324588 327.534273 
L 440.494814 338.107323 
L 442.197071 337.939998 
L 442.253813 334.677868 
L 442.367297 339.524775 
L 442.537523 341.644158 
L 444.296522 340.579062 
L 444.410006 341.918799 
L 444.466748 340.312915 
L 444.580232 334.342324 
L 445.544844 343.469412 
L 445.658328 334.253963 
L 445.71507 335.977332 
L 445.771812 340.636805 
L 446.736425 337.057325 
L 447.133618 340.449469 
L 447.247102 335.917243 
L 447.303844 337.88245 
L 447.360586 340.294293 
L 448.608908 341.188576 
L 448.722392 335.327831 
L 448.892617 335.051671 
L 449.006101 337.436192 
L 450.197682 336.161868 
L 450.311165 333.848178 
L 450.481391 333.187819 
L 451.275778 335.875197 
L 451.446004 337.698276 
L 451.559487 337.497308 
L 451.616229 337.55219 
L 451.672971 337.903428 
L 452.694326 336.280503 
L 452.80781 339.468409 
L 453.545455 337.078091 
L 454.056132 339.714927 
L 454.169616 334.470491 
L 454.339841 335.915499 
L 455.19097 343.713916 
L 455.417938 331.470912 
L 455.47468 331.470912 
L 455.815131 337.189931 
L 456.439292 329.621735 
L 456.552776 342.792526 
L 456.609518 338.537172 
L 456.66626 321.515757 
L 457.687614 340.883502 
L 457.801098 337.273451 
L 457.971324 341.643908 
L 458.084808 338.311942 
L 459.162904 328.303625 
L 459.389872 347.211294 
L 460.354484 337.839857 
L 460.638194 337.976398 
L 460.751678 329.573884 
L 460.921904 342.788878 
L 461.886516 329.2728 
L 462 343.504064 
L 462.056742 342.41087 
L 462.113484 338.463218 
L 462.624161 336.088783 
L 463.361806 324.049435 
L 463.588774 337.118385 
L 463.645516 337.118385 
L 464.723612 344.002068 
L 465.007322 331.472023 
L 466.425869 339.693208 
L 466.539353 324.810513 
L 466.596095 329.249098 
L 466.652837 340.900381 
L 467.787675 325.869953 
L 468.014643 348.471993 
L 469.149481 340.970794 
L 469.262965 332.545487 
L 469.319707 336.286993 
L 469.376449 338.222254 
L 469.433191 337.08669 
L 470.28432 338.920266 
L 470.397804 329.783635 
L 470.511287 341.565457 
L 471.702868 336.969463 
L 472.327029 331.923495 
L 472.440513 339.911845 
L 472.497254 337.563106 
L 472.553996 332.652105 
L 472.837706 335.653791 
L 473.915802 342.33052 
L 474.086028 338.313326 
L 474.14277 336.878788 
L 475.61806 338.153771 
L 475.731544 333.666321 
L 475.901769 335.212884 
L 476.242221 336.131415 
L 477.09335 340.876342 
L 477.206833 330.499202 
L 477.320317 340.560148 
L 478.511898 330.476798 
L 479.249542 334.243288 
L 479.533252 327.019265 
L 480.724832 315.140861 
L 480.838316 337.736622 
L 480.895058 337.263273 
L 480.9518 335.863808 
L 482.881025 336.369555 
L 482.994509 340.305306 
L 483.164735 332.223118 
L 484.696766 334.303159 
L 484.81025 335.551511 
L 484.980476 334.496079 
L 485.320927 333.206192 
L 486.172056 345.33209 
L 486.399024 325.19826 
L 486.455766 330.699806 
L 487.590604 334.421505 
L 488.555217 337.083546 
L 488.6687 332.893297 
L 488.838926 346.331636 
L 489.860281 325.855701 
L 490.597926 319.62176 
L 490.711409 332.173433 
L 490.881635 286.415605 
L 492.129957 320.475885 
L 492.981086 324.98563 
L 493.208054 317.316308 
L 495.591214 340.099376 
L 495.704698 330.600941 
L 495.874924 322.715032 
L 496.669311 327.224036 
L 497.406955 335.020982 
L 497.520439 327.695454 
L 497.690665 326.01721 
L 498.882245 327.910858 
L 498.938987 328.803993 
L 498.995729 321.437438 
L 499.109213 334.280302 
L 500.073825 325.538987 
L 500.81147 334.359237 
L 501.09518 310.591092 
L 501.208664 316.528488 
L 502.173276 303.37773 
L 502.28676 309.844983 
L 502.456986 335.142572 
L 503.47834 329.591298 
L 503.989018 287.568946 
L 504.102502 323.106436 
L 504.272727 336.305519 
L 505.748017 327.217005 
L 505.918243 335.275157 
L 506.088469 308.157299 
L 508.017694 320.536155 
L 508.074436 323.233216 
L 508.187919 315.509108 
L 508.358145 332.973794 
L 510.28737 308.69763 
L 510.457596 292.301609 
L 510.57108 318.099226 
L 510.627822 317.567609 
L 510.684564 311.613455 
L 512.386821 322.529332 
L 512.670531 331.929465 
L 513.691885 321.974686 
L 514.883466 315.24781 
L 514.996949 323.229376 
L 515.167175 299.56101 
L 517.0964 328.182369 
L 517.266626 335.236691 
L 517.493594 326.124496 
L 519.309335 339.112303 
L 519.422819 319.60059 
L 519.479561 325.715835 
L 519.536303 333.250689 
L 521.635754 316.419416 
L 522.032947 331.197434 
L 522.146431 327.69117 
L 522.259915 303.923619 
L 523.90543 335.14528 
L 524.643075 335.386677 
L 524.756559 335.906272 
L 524.926785 333.722094 
L 526.118365 337.232603 
L 526.288591 325.567154 
L 526.345333 297.872612 
L 527.650397 336.608449 
L 527.707139 336.608449 
L 527.820622 323.658104 
L 527.877364 324.742418 
L 527.934106 326.681041 
L 528.444783 324.471233 
L 529.52288 318.368882 
L 529.749847 335.207071 
L 530.71446 331.173895 
L 531.338621 334.424323 
L 531.452105 317.994961 
L 531.508847 320.938007 
L 531.565589 333.200703 
L 532.927395 329.682501 
L 533.040879 340.272466 
L 533.09762 338.837691 
L 533.154362 336.432333 
L 535.253813 328.183813 
L 535.310555 330.804354 
L 535.424039 326.418435 
L 535.594265 329.435641 
L 537.23978 326.930305 
L 537.353264 333.838675 
L 537.410006 331.243617 
L 537.466748 322.881763 
L 537.52349 330.345011 
L 538.942038 330.578565 
L 539.055522 329.661848 
L 539.225747 326.002937 
L 539.793167 329.056493 
L 540.417328 325.925463 
L 540.587553 330.827256 
L 540.644295 341.505135 
L 540.928005 330.357487 
L 542.062843 334.18247 
L 542.233069 329.248121 
L 542.460037 336.999608 
L 543.481391 330.187607 
L 543.538133 330.344895 
L 543.594875 330.388731 
L 543.765101 329.76734 
L 544.33252 328.155961 
L 545.297132 334.959255 
L 545.410616 318.366292 
L 545.580842 345.3071 
L 546.99939 331.910748 
L 547.112874 337.213838 
L 547.169616 334.968584 
L 547.226358 332.264077 
L 548.871873 309.3673 
L 549.155583 280.770769 
L 549.38255 345.609639 
L 549.439292 345.609639 
L 550.971324 336.223771 
L 551.084808 320.135794 
L 551.255034 335.614156 
L 552.673581 325.913352 
L 552.843807 327.961065 
L 552.900549 342.475662 
L 553.411226 327.168403 
L 554.546065 323.573307 
L 554.602807 313.217104 
L 554.659549 321.390033 
L 554.71629 322.430226 
L 554.886516 332.859989 
L 555.680903 324.956383 
L 556.532032 310.543981 
L 556.645516 335.811764 
L 556.702257 333.997952 
L 556.758999 319.124678 
L 557.95058 319.111277 
L 558.234289 331.869697 
L 558.517999 291.058297 
L 560.220256 329.033867 
L 560.390482 328.210308 
L 560.503966 327.863157 
L 560.61745 333.400329 
L 562.319707 334.809389 
L 562.489933 322.493196 
L 562.603417 291.519432 
L 564.362416 333.533815 
L 564.4759 327.524479 
L 564.646126 343.660465 
L 564.75961 329.214582 
L 565.837706 324.31317 
L 566.064674 335.995437 
L 567.029286 320.602839 
L 567.42648 288.612895 
L 567.596705 333.138931 
L 568.164124 323.670265 
L 569.128737 330.439686 
L 569.242221 334.174028 
L 569.298963 331.721084 
L 569.412447 324.124287 
L 570.830995 343.760296 
L 571.057962 314.172973 
L 571.568639 319.372239 
L 572.873703 341.681313 
L 573.100671 307.510254 
L 573.838316 319.181791 
L 575.029896 348.292263 
L 575.14338 325.392901 
L 575.313606 327.079915 
L 576.107993 319.847794 
L 577.072605 324.274607 
L 577.299573 291.908414 
L 577.356315 291.908414 
L 578.377669 320.146621 
L 579.342282 333.714154 
L 579.455766 329.057916 
L 579.625991 328.932386 
L 580.647346 318.779134 
L 581.611959 301.239396 
L 581.725442 319.558029 
L 581.782184 319.461328 
L 581.895668 324.240698 
L 582.917023 309.706199 
L 583.654667 322.167814 
L 583.768151 298.464115 
L 583.938377 319.616675 
L 585.186699 326.667252 
L 585.356925 344.163945 
L 585.470409 324.021777 
L 585.527151 326.090437 
L 585.583893 328.848653 
L 587.456376 324.282828 
L 587.626602 318.960611 
L 587.853569 327.948022 
L 589.669311 336.162398 
L 589.782794 329.042028 
L 589.839536 331.231362 
L 589.896278 336.704697 
L 591.258084 298.735999 
L 591.485052 336.543771 
L 591.995729 316.885373 
L 593.300793 323.887684 
L 593.414277 313.464481 
L 593.471019 317.272422 
L 593.527761 321.651557 
L 594.265406 322.934032 
L 594.889567 330.932787 
L 595.003051 324.568969 
L 595.116534 331.976843 
L 595.400244 326.310716 
L 596.535082 327.566967 
L 596.818792 322.355809 
L 596.932276 327.692546 
L 597.102502 330.073705 
L 598.748017 331.77297 
L 598.918243 334.528615 
L 598.974985 347.854919 
L 600.450275 319.393756 
L 600.677242 331.289404 
L 600.733984 331.289404 
L 601.074436 328.890949 
L 602.152532 336.429349 
L 602.3795 332.475015 
L 604.195241 342.070611 
L 604.308725 338.695879 
L 604.365467 339.162169 
L 604.422209 342.193055 
L 605.557047 340.154705 
L 605.784015 338.407253 
L 606.805369 345.130058 
L 606.918853 333.726081 
L 607.089079 338.11525 
L 607.883466 337.84195 
L 608.167175 333.85092 
L 608.394143 342.833341 
L 608.450885 342.833341 
L 609.018304 336.189463 
L 609.528981 343.435463 
L 609.755949 335.907433 
L 609.812691 335.907433 
L 610.153142 333.98992 
L 610.890787 320.932392 
L 611.117755 337.712969 
L 611.174497 337.712969 
L 612.366077 328.836912 
L 612.593045 334.443374 
L 613.841367 339.767459 
L 613.954851 334.643037 
L 614.125076 337.618743 
L 614.692495 336.603839 
L 615.089689 333.585971 
L 615.203173 339.922157 
L 615.259915 338.027122 
L 615.316657 323.949719 
L 616.564979 333.332552 
L 616.621721 332.927653 
L 616.678462 332.857573 
L 616.848688 335.62856 
L 616.962172 334.074265 
L 618.267236 342.163503 
L 618.38072 336.463437 
L 618.437462 337.666697 
L 618.494204 339.208371 
L 619.231849 337.296705 
L 620.253203 334.082121 
L 622.636364 335.630467 
L 622.636364 335.630467 
" style="fill:none;stroke:#0000ff;stroke-linecap:square;stroke-width:1.5;"/>
   </g>
   <g id="patch_3">
    <path d="M 90 378 
L 90 51.84 
" style="fill:none;stroke:#000000;stroke-linecap:square;stroke-linejoin:miter;stroke-width:0.8;"/>
   </g>
   <g id="patch_4">
    <path d="M 648 378 
L 648 51.84 
" style="fill:none;stroke:#000000;stroke-linecap:square;stroke-linejoin:miter;stroke-width:0.8;"/>
   </g>
   <g id="patch_5">
    <path d="M 90 378 
L 648 378 
" style="fill:none;stroke:#000000;stroke-linecap:square;stroke-linejoin:miter;stroke-width:0.8;"/>
   </g>
   <g id="patch_6">
    <path d="M 90 51.84 
L 648 51.84 
" style="fill:none;stroke:#000000;stroke-linecap:square;stroke-linejoin:miter;stroke-width:0.8;"/>
   </g>
   <g id="text_18">
    <!-- Average Response Time Anomalies -->
    <defs>
     <path d="M 34.1875 63.1875 
L 20.796875 26.90625 
L 47.609375 26.90625 
z
M 28.609375 72.90625 
L 39.796875 72.90625 
L 67.578125 0 
L 57.328125 0 
L 50.6875 18.703125 
L 17.828125 18.703125 
L 11.1875 0 
L 0.78125 0 
z
" id="DejaVuSans-65"/>
     <path d="M 2.984375 54.6875 
L 12.5 54.6875 
L 29.59375 8.796875 
L 46.6875 54.6875 
L 56.203125 54.6875 
L 35.6875 0 
L 23.484375 0 
z
" id="DejaVuSans-118"/>
     <path d="M 41.109375 46.296875 
Q 39.59375 47.171875 37.8125 47.578125 
Q 36.03125 48 33.890625 48 
Q 26.265625 48 22.1875 43.046875 
Q 18.109375 38.09375 18.109375 28.8125 
L 18.109375 0 
L 9.078125 0 
L 9.078125 54.6875 
L 18.109375 54.6875 
L 18.109375 46.1875 
Q 20.953125 51.171875 25.484375 53.578125 
Q 30.03125 56 36.53125 56 
Q 37.453125 56 38.578125 55.875 
Q 39.703125 55.765625 41.0625 55.515625 
z
" id="DejaVuSans-114"/>
     <path d="M 45.40625 27.984375 
Q 45.40625 37.75 41.375 43.109375 
Q 37.359375 48.484375 30.078125 48.484375 
Q 22.859375 48.484375 18.828125 43.109375 
Q 14.796875 37.75 14.796875 27.984375 
Q 14.796875 18.265625 18.828125 12.890625 
Q 22.859375 7.515625 30.078125 7.515625 
Q 37.359375 7.515625 41.375 12.890625 
Q 45.40625 18.265625 45.40625 27.984375 
z
M 54.390625 6.78125 
Q 54.390625 -7.171875 48.1875 -13.984375 
Q 42 -20.796875 29.203125 -20.796875 
Q 24.46875 -20.796875 20.265625 -20.09375 
Q 16.0625 -19.390625 12.109375 -17.921875 
L 12.109375 -9.1875 
Q 16.0625 -11.328125 19.921875 -12.34375 
Q 23.78125 -13.375 27.78125 -13.375 
Q 36.625 -13.375 41.015625 -8.765625 
Q 45.40625 -4.15625 45.40625 5.171875 
L 45.40625 9.625 
Q 42.625 4.78125 38.28125 2.390625 
Q 33.9375 0 27.875 0 
Q 17.828125 0 11.671875 7.65625 
Q 5.515625 15.328125 5.515625 27.984375 
Q 5.515625 40.671875 11.671875 48.328125 
Q 17.828125 56 27.875 56 
Q 33.9375 56 38.28125 53.609375 
Q 42.625 51.21875 45.40625 46.390625 
L 45.40625 54.6875 
L 54.390625 54.6875 
z
" id="DejaVuSans-103"/>
     <path d="M 9.421875 75.984375 
L 18.40625 75.984375 
L 18.40625 0 
L 9.421875 0 
z
" id="DejaVuSans-108"/>
    </defs>
    <g transform="translate(263.093437 45.84)scale(0.12 -0.12)">
     <use xlink:href="#DejaVuSans-65"/>
     <use x="68.330078" xlink:href="#DejaVuSans-118"/>
     <use x="127.509766" xlink:href="#DejaVuSans-101"/>
     <use x="189.033203" xlink:href="#DejaVuSans-114"/>
     <use x="230.146484" xlink:href="#DejaVuSans-97"/>
     <use x="291.425781" xlink:href="#DejaVuSans-103"/>
     <use x="354.902344" xlink:href="#DejaVuSans-101"/>
     <use x="416.425781" xlink:href="#DejaVuSans-32"/>
     <use x="448.212891" xlink:href="#DejaVuSans-82"/>
     <use x="517.632812" xlink:href="#DejaVuSans-101"/>
     <use x="579.15625" xlink:href="#DejaVuSans-115"/>
     <use x="631.255859" xlink:href="#DejaVuSans-112"/>
     <use x="694.732422" xlink:href="#DejaVuSans-111"/>
     <use x="755.914062" xlink:href="#DejaVuSans-110"/>
     <use x="819.292969" xlink:href="#DejaVuSans-115"/>
     <use x="871.392578" xlink:href="#DejaVuSans-101"/>
     <use x="932.916016" xlink:href="#DejaVuSans-32"/>
     <use x="964.703125" xlink:href="#DejaVuSans-84"/>
     <use x="1025.740234" xlink:href="#DejaVuSans-105"/>
     <use x="1053.523438" xlink:href="#DejaVuSans-109"/>
     <use x="1150.935547" xlink:href="#DejaVuSans-101"/>
     <use x="1212.458984" xlink:href="#DejaVuSans-32"/>
     <use x="1244.246094" xlink:href="#DejaVuSans-65"/>
     <use x="1312.654297" xlink:href="#DejaVuSans-110"/>
     <use x="1376.033203" xlink:href="#DejaVuSans-111"/>
     <use x="1437.214844" xlink:href="#DejaVuSans-109"/>
     <use x="1534.626953" xlink:href="#DejaVuSans-97"/>
     <use x="1595.90625" xlink:href="#DejaVuSans-108"/>
     <use x="1623.689453" xlink:href="#DejaVuSans-105"/>
     <use x="1651.472656" xlink:href="#DejaVuSans-101"/>
     <use x="1712.996094" xlink:href="#DejaVuSans-115"/>
    </g>
   </g>
   <g id="legend_1">
    <g id="patch_7">
     <path d="M 565.1375 89.19625 
L 641 89.19625 
Q 643 89.19625 643 87.19625 
L 643 58.84 
Q 643 56.84 641 56.84 
L 565.1375 56.84 
Q 563.1375 56.84 563.1375 58.84 
L 563.1375 87.19625 
Q 563.1375 89.19625 565.1375 89.19625 
z
" style="fill:#ffffff;opacity:0.8;stroke:#cccccc;stroke-linejoin:miter;"/>
    </g>
    <g id="line2d_24">
     <path d="M 567.1375 64.938437 
L 587.1375 64.938437 
" style="fill:none;stroke:#0000ff;stroke-linecap:square;stroke-width:1.5;"/>
    </g>
    <g id="line2d_25"/>
    <g id="text_19">
     <!-- Normal -->
     <defs>
      <path d="M 9.8125 72.90625 
L 23.09375 72.90625 
L 55.421875 11.921875 
L 55.421875 72.90625 
L 64.984375 72.90625 
L 64.984375 0 
L 51.703125 0 
L 19.390625 60.984375 
L 19.390625 0 
L 9.8125 0 
z
" id="DejaVuSans-78"/>
     </defs>
     <g transform="translate(595.1375 68.438437)scale(0.1 -0.1)">
      <use xlink:href="#DejaVuSans-78"/>
      <use x="74.804688" xlink:href="#DejaVuSans-111"/>
      <use x="135.986328" xlink:href="#DejaVuSans-114"/>
      <use x="177.083984" xlink:href="#DejaVuSans-109"/>
      <use x="274.496094" xlink:href="#DejaVuSans-97"/>
      <use x="335.775391" xlink:href="#DejaVuSans-108"/>
     </g>
    </g>
    <g id="PathCollection_2">
     <g>
      <use style="fill:#ff0000;stroke:#ff0000;" x="577.1375" xlink:href="#m930bbfb189" y="80.491562"/>
     </g>
    </g>
    <g id="text_20">
     <!-- Anomaly -->
     <defs>
      <path d="M 32.171875 -5.078125 
Q 28.375 -14.84375 24.75 -17.8125 
Q 21.140625 -20.796875 15.09375 -20.796875 
L 7.90625 -20.796875 
L 7.90625 -13.28125 
L 13.1875 -13.28125 
Q 16.890625 -13.28125 18.9375 -11.515625 
Q 21 -9.765625 23.484375 -3.21875 
L 25.09375 0.875 
L 2.984375 54.6875 
L 12.5 54.6875 
L 29.59375 11.921875 
L 46.6875 54.6875 
L 56.203125 54.6875 
z
" id="DejaVuSans-121"/>
     </defs>
     <g transform="translate(595.1375 83.116562)scale(0.1 -0.1)">
      <use xlink:href="#DejaVuSans-65"/>
      <use x="68.408203" xlink:href="#DejaVuSans-110"/>
      <use x="131.787109" xlink:href="#DejaVuSans-111"/>
      <use x="192.96875" xlink:href="#DejaVuSans-109"/>
      <use x="290.380859" xlink:href="#DejaVuSans-97"/>
      <use x="351.660156" xlink:href="#DejaVuSans-108"/>
      <use x="379.443359" xlink:href="#DejaVuSans-121"/>
     </g>
    </g>
   </g>
  </g>
 </g>
 <defs>
  <clipPath id="pa894cdae8b">
   <rect height="326.16" width="558" x="90" y="51.84"/>
  </clipPath>
 </defs>
</svg>
