<?xml version="1.0" encoding="utf-8" standalone="no"?>
<!DOCTYPE svg PUBLIC "-//W3C//DTD SVG 1.1//EN"
  "http://www.w3.org/Graphics/SVG/1.1/DTD/svg11.dtd">
<!-- Created with matplotlib (https://matplotlib.org/) -->
<svg height="432pt" version="1.1" viewBox="0 0 720 432" width="720pt" xmlns="http://www.w3.org/2000/svg" xmlns:xlink="http://www.w3.org/1999/xlink">
 <defs>
  <style type="text/css">
*{stroke-linecap:butt;stroke-linejoin:round;}
  </style>
 </defs>
 <g id="figure_1">
  <g id="patch_1">
   <path d="M 0 432 
L 720 432 
L 720 0 
L 0 0 
z
" style="fill:#ffffff;"/>
  </g>
  <g id="axes_1">
   <g id="patch_2">
    <path d="M 90 378 
L 648 378 
L 648 51.84 
L 90 51.84 
z
" style="fill:#ffffff;"/>
   </g>
   <g id="PathCollection_1">
    <defs>
     <path d="M 0 3 
C 0.795609 3 1.55874 2.683901 2.12132 2.12132 
C 2.683901 1.55874 3 0.795609 3 0 
C 3 -0.795609 2.683901 -1.55874 2.12132 -2.12132 
C 1.55874 -2.683901 0.795609 -3 0 -3 
C -0.795609 -3 -1.55874 -2.683901 -2.12132 -2.12132 
C -2.683901 -1.55874 -3 -0.795609 -3 0 
C -3 0.795609 -2.683901 1.55874 -2.12132 2.12132 
C -1.55874 2.683901 -0.795609 3 0 3 
z
" id="m2bda49adeb" style="stroke:#ff0000;"/>
    </defs>
    <g clip-path="url(#pbbb5cdc357)">
     <use style="fill:#ff0000;stroke:#ff0000;" x="164.672361" xlink:href="#m2bda49adeb" y="360.176702"/>
     <use style="fill:#ff0000;stroke:#ff0000;" x="164.729103" xlink:href="#m2bda49adeb" y="360.119356"/>
     <use style="fill:#ff0000;stroke:#ff0000;" x="165.296522" xlink:href="#m2bda49adeb" y="360.062011"/>
     <use style="fill:#ff0000;stroke:#ff0000;" x="211.995119" xlink:href="#m2bda49adeb" y="360.004665"/>
     <use style="fill:#ff0000;stroke:#ff0000;" x="261.871263" xlink:href="#m2bda49adeb" y="360.004665"/>
     <use style="fill:#ff0000;stroke:#ff0000;" x="261.928005" xlink:href="#m2bda49adeb" y="360.234048"/>
     <use style="fill:#ff0000;stroke:#ff0000;" x="336.657108" xlink:href="#m2bda49adeb" y="75.913981"/>
     <use style="fill:#ff0000;stroke:#ff0000;" x="363.893228" xlink:href="#m2bda49adeb" y="72.473238"/>
     <use style="fill:#ff0000;stroke:#ff0000;" x="371.66687" xlink:href="#m2bda49adeb" y="360.234048"/>
     <use style="fill:#ff0000;stroke:#ff0000;" x="371.723612" xlink:href="#m2bda49adeb" y="360.234048"/>
     <use style="fill:#ff0000;stroke:#ff0000;" x="377.511287" xlink:href="#m2bda49adeb" y="69.605952"/>
     <use style="fill:#ff0000;stroke:#ff0000;" x="404.747407" xlink:href="#m2bda49adeb" y="89.676953"/>
     <use style="fill:#ff0000;stroke:#ff0000;" x="405.938987" xlink:href="#m2bda49adeb" y="360.119356"/>
     <use style="fill:#ff0000;stroke:#ff0000;" x="418.365467" xlink:href="#m2bda49adeb" y="81.075096"/>
    </g>
   </g>
   <g id="matplotlib.axis_1">
    <g id="xtick_1">
     <g id="line2d_1">
      <defs>
       <path d="M 0 0 
L 0 3.5 
" id="mf698bb0dd2" style="stroke:#000000;stroke-width:0.8;"/>
      </defs>
      <g>
       <use style="stroke:#000000;stroke-width:0.8;" x="98.341062" xlink:href="#mf698bb0dd2" y="378"/>
      </g>
     </g>
     <g id="text_1">
      <!-- 27 21 -->
      <defs>
       <path d="M 19.1875 8.296875 
L 53.609375 8.296875 
L 53.609375 0 
L 7.328125 0 
L 7.328125 8.296875 
Q 12.9375 14.109375 22.625 23.890625 
Q 32.328125 33.6875 34.8125 36.53125 
Q 39.546875 41.84375 41.421875 45.53125 
Q 43.3125 49.21875 43.3125 52.78125 
Q 43.3125 58.59375 39.234375 62.25 
Q 35.15625 65.921875 28.609375 65.921875 
Q 23.96875 65.921875 18.8125 64.3125 
Q 13.671875 62.703125 7.8125 59.421875 
L 7.8125 69.390625 
Q 13.765625 71.78125 18.9375 73 
Q 24.125 74.21875 28.421875 74.21875 
Q 39.75 74.21875 46.484375 68.546875 
Q 53.21875 62.890625 53.21875 53.421875 
Q 53.21875 48.921875 51.53125 44.890625 
Q 49.859375 40.875 45.40625 35.40625 
Q 44.1875 33.984375 37.640625 27.21875 
Q 31.109375 20.453125 19.1875 8.296875 
z
" id="DejaVuSans-50"/>
       <path d="M 8.203125 72.90625 
L 55.078125 72.90625 
L 55.078125 68.703125 
L 28.609375 0 
L 18.3125 0 
L 43.21875 64.59375 
L 8.203125 64.59375 
z
" id="DejaVuSans-55"/>
       <path id="DejaVuSans-32"/>
       <path d="M 12.40625 8.296875 
L 28.515625 8.296875 
L 28.515625 63.921875 
L 10.984375 60.40625 
L 10.984375 69.390625 
L 28.421875 72.90625 
L 38.28125 72.90625 
L 38.28125 8.296875 
L 54.390625 8.296875 
L 54.390625 0 
L 12.40625 0 
z
" id="DejaVuSans-49"/>
      </defs>
      <g transform="translate(84.026999 392.598437)scale(0.1 -0.1)">
       <use xlink:href="#DejaVuSans-50"/>
       <use x="63.623047" xlink:href="#DejaVuSans-55"/>
       <use x="127.246094" xlink:href="#DejaVuSans-32"/>
       <use x="159.033203" xlink:href="#DejaVuSans-50"/>
       <use x="222.65625" xlink:href="#DejaVuSans-49"/>
      </g>
     </g>
    </g>
    <g id="xtick_2">
     <g id="line2d_2">
      <g>
       <use style="stroke:#000000;stroke-width:0.8;" x="180.04942" xlink:href="#mf698bb0dd2" y="378"/>
      </g>
     </g>
     <g id="text_2">
      <!-- 28 03 -->
      <defs>
       <path d="M 31.78125 34.625 
Q 24.75 34.625 20.71875 30.859375 
Q 16.703125 27.09375 16.703125 20.515625 
Q 16.703125 13.921875 20.71875 10.15625 
Q 24.75 6.390625 31.78125 6.390625 
Q 38.8125 6.390625 42.859375 10.171875 
Q 46.921875 13.96875 46.921875 20.515625 
Q 46.921875 27.09375 42.890625 30.859375 
Q 38.875 34.625 31.78125 34.625 
z
M 21.921875 38.8125 
Q 15.578125 40.375 12.03125 44.71875 
Q 8.5 49.078125 8.5 55.328125 
Q 8.5 64.0625 14.71875 69.140625 
Q 20.953125 74.21875 31.78125 74.21875 
Q 42.671875 74.21875 48.875 69.140625 
Q 55.078125 64.0625 55.078125 55.328125 
Q 55.078125 49.078125 51.53125 44.71875 
Q 48 40.375 41.703125 38.8125 
Q 48.828125 37.15625 52.796875 32.3125 
Q 56.78125 27.484375 56.78125 20.515625 
Q 56.78125 9.90625 50.3125 4.234375 
Q 43.84375 -1.421875 31.78125 -1.421875 
Q 19.734375 -1.421875 13.25 4.234375 
Q 6.78125 9.90625 6.78125 20.515625 
Q 6.78125 27.484375 10.78125 32.3125 
Q 14.796875 37.15625 21.921875 38.8125 
z
M 18.3125 54.390625 
Q 18.3125 48.734375 21.84375 45.5625 
Q 25.390625 42.390625 31.78125 42.390625 
Q 38.140625 42.390625 41.71875 45.5625 
Q 45.3125 48.734375 45.3125 54.390625 
Q 45.3125 60.0625 41.71875 63.234375 
Q 38.140625 66.40625 31.78125 66.40625 
Q 25.390625 66.40625 21.84375 63.234375 
Q 18.3125 60.0625 18.3125 54.390625 
z
" id="DejaVuSans-56"/>
       <path d="M 31.78125 66.40625 
Q 24.171875 66.40625 20.328125 58.90625 
Q 16.5 51.421875 16.5 36.375 
Q 16.5 21.390625 20.328125 13.890625 
Q 24.171875 6.390625 31.78125 6.390625 
Q 39.453125 6.390625 43.28125 13.890625 
Q 47.125 21.390625 47.125 36.375 
Q 47.125 51.421875 43.28125 58.90625 
Q 39.453125 66.40625 31.78125 66.40625 
z
M 31.78125 74.21875 
Q 44.046875 74.21875 50.515625 64.515625 
Q 56.984375 54.828125 56.984375 36.375 
Q 56.984375 17.96875 50.515625 8.265625 
Q 44.046875 -1.421875 31.78125 -1.421875 
Q 19.53125 -1.421875 13.0625 8.265625 
Q 6.59375 17.96875 6.59375 36.375 
Q 6.59375 54.828125 13.0625 64.515625 
Q 19.53125 74.21875 31.78125 74.21875 
z
" id="DejaVuSans-48"/>
       <path d="M 40.578125 39.3125 
Q 47.65625 37.796875 51.625 33 
Q 55.609375 28.21875 55.609375 21.1875 
Q 55.609375 10.40625 48.1875 4.484375 
Q 40.765625 -1.421875 27.09375 -1.421875 
Q 22.515625 -1.421875 17.65625 -0.515625 
Q 12.796875 0.390625 7.625 2.203125 
L 7.625 11.71875 
Q 11.71875 9.328125 16.59375 8.109375 
Q 21.484375 6.890625 26.8125 6.890625 
Q 36.078125 6.890625 40.9375 10.546875 
Q 45.796875 14.203125 45.796875 21.1875 
Q 45.796875 27.640625 41.28125 31.265625 
Q 36.765625 34.90625 28.71875 34.90625 
L 20.21875 34.90625 
L 20.21875 43.015625 
L 29.109375 43.015625 
Q 36.375 43.015625 40.234375 45.921875 
Q 44.09375 48.828125 44.09375 54.296875 
Q 44.09375 59.90625 40.109375 62.90625 
Q 36.140625 65.921875 28.71875 65.921875 
Q 24.65625 65.921875 20.015625 65.03125 
Q 15.375 64.15625 9.8125 62.3125 
L 9.8125 71.09375 
Q 15.4375 72.65625 20.34375 73.4375 
Q 25.25 74.21875 29.59375 74.21875 
Q 40.828125 74.21875 47.359375 69.109375 
Q 53.90625 64.015625 53.90625 55.328125 
Q 53.90625 49.265625 50.4375 45.09375 
Q 46.96875 40.921875 40.578125 39.3125 
z
" id="DejaVuSans-51"/>
      </defs>
      <g transform="translate(165.735358 392.598437)scale(0.1 -0.1)">
       <use xlink:href="#DejaVuSans-50"/>
       <use x="63.623047" xlink:href="#DejaVuSans-56"/>
       <use x="127.246094" xlink:href="#DejaVuSans-32"/>
       <use x="159.033203" xlink:href="#DejaVuSans-48"/>
       <use x="222.65625" xlink:href="#DejaVuSans-51"/>
      </g>
     </g>
    </g>
    <g id="xtick_3">
     <g id="line2d_3">
      <g>
       <use style="stroke:#000000;stroke-width:0.8;" x="261.757779" xlink:href="#mf698bb0dd2" y="378"/>
      </g>
     </g>
     <g id="text_3">
      <!-- 28 09 -->
      <defs>
       <path d="M 10.984375 1.515625 
L 10.984375 10.5 
Q 14.703125 8.734375 18.5 7.8125 
Q 22.3125 6.890625 25.984375 6.890625 
Q 35.75 6.890625 40.890625 13.453125 
Q 46.046875 20.015625 46.78125 33.40625 
Q 43.953125 29.203125 39.59375 26.953125 
Q 35.25 24.703125 29.984375 24.703125 
Q 19.046875 24.703125 12.671875 31.3125 
Q 6.296875 37.9375 6.296875 49.421875 
Q 6.296875 60.640625 12.9375 67.421875 
Q 19.578125 74.21875 30.609375 74.21875 
Q 43.265625 74.21875 49.921875 64.515625 
Q 56.59375 54.828125 56.59375 36.375 
Q 56.59375 19.140625 48.40625 8.859375 
Q 40.234375 -1.421875 26.421875 -1.421875 
Q 22.703125 -1.421875 18.890625 -0.6875 
Q 15.09375 0.046875 10.984375 1.515625 
z
M 30.609375 32.421875 
Q 37.25 32.421875 41.125 36.953125 
Q 45.015625 41.5 45.015625 49.421875 
Q 45.015625 57.28125 41.125 61.84375 
Q 37.25 66.40625 30.609375 66.40625 
Q 23.96875 66.40625 20.09375 61.84375 
Q 16.21875 57.28125 16.21875 49.421875 
Q 16.21875 41.5 20.09375 36.953125 
Q 23.96875 32.421875 30.609375 32.421875 
z
" id="DejaVuSans-57"/>
      </defs>
      <g transform="translate(247.443717 392.598437)scale(0.1 -0.1)">
       <use xlink:href="#DejaVuSans-50"/>
       <use x="63.623047" xlink:href="#DejaVuSans-56"/>
       <use x="127.246094" xlink:href="#DejaVuSans-32"/>
       <use x="159.033203" xlink:href="#DejaVuSans-48"/>
       <use x="222.65625" xlink:href="#DejaVuSans-57"/>
      </g>
     </g>
    </g>
    <g id="xtick_4">
     <g id="line2d_4">
      <g>
       <use style="stroke:#000000;stroke-width:0.8;" x="343.466138" xlink:href="#mf698bb0dd2" y="378"/>
      </g>
     </g>
     <g id="text_4">
      <!-- 28 15 -->
      <defs>
       <path d="M 10.796875 72.90625 
L 49.515625 72.90625 
L 49.515625 64.59375 
L 19.828125 64.59375 
L 19.828125 46.734375 
Q 21.96875 47.46875 24.109375 47.828125 
Q 26.265625 48.1875 28.421875 48.1875 
Q 40.625 48.1875 47.75 41.5 
Q 54.890625 34.8125 54.890625 23.390625 
Q 54.890625 11.625 47.5625 5.09375 
Q 40.234375 -1.421875 26.90625 -1.421875 
Q 22.3125 -1.421875 17.546875 -0.640625 
Q 12.796875 0.140625 7.71875 1.703125 
L 7.71875 11.625 
Q 12.109375 9.234375 16.796875 8.0625 
Q 21.484375 6.890625 26.703125 6.890625 
Q 35.15625 6.890625 40.078125 11.328125 
Q 45.015625 15.765625 45.015625 23.390625 
Q 45.015625 31 40.078125 35.4375 
Q 35.15625 39.890625 26.703125 39.890625 
Q 22.75 39.890625 18.8125 39.015625 
Q 14.890625 38.140625 10.796875 36.28125 
z
" id="DejaVuSans-53"/>
      </defs>
      <g transform="translate(329.152075 392.598437)scale(0.1 -0.1)">
       <use xlink:href="#DejaVuSans-50"/>
       <use x="63.623047" xlink:href="#DejaVuSans-56"/>
       <use x="127.246094" xlink:href="#DejaVuSans-32"/>
       <use x="159.033203" xlink:href="#DejaVuSans-49"/>
       <use x="222.65625" xlink:href="#DejaVuSans-53"/>
      </g>
     </g>
    </g>
    <g id="xtick_5">
     <g id="line2d_5">
      <g>
       <use style="stroke:#000000;stroke-width:0.8;" x="425.174497" xlink:href="#mf698bb0dd2" y="378"/>
      </g>
     </g>
     <g id="text_5">
      <!-- 28 21 -->
      <g transform="translate(410.860434 392.598437)scale(0.1 -0.1)">
       <use xlink:href="#DejaVuSans-50"/>
       <use x="63.623047" xlink:href="#DejaVuSans-56"/>
       <use x="127.246094" xlink:href="#DejaVuSans-32"/>
       <use x="159.033203" xlink:href="#DejaVuSans-50"/>
       <use x="222.65625" xlink:href="#DejaVuSans-49"/>
      </g>
     </g>
    </g>
    <g id="xtick_6">
     <g id="line2d_6">
      <g>
       <use style="stroke:#000000;stroke-width:0.8;" x="506.882855" xlink:href="#mf698bb0dd2" y="378"/>
      </g>
     </g>
     <g id="text_6">
      <!-- 29 03 -->
      <g transform="translate(492.568793 392.598437)scale(0.1 -0.1)">
       <use xlink:href="#DejaVuSans-50"/>
       <use x="63.623047" xlink:href="#DejaVuSans-57"/>
       <use x="127.246094" xlink:href="#DejaVuSans-32"/>
       <use x="159.033203" xlink:href="#DejaVuSans-48"/>
       <use x="222.65625" xlink:href="#DejaVuSans-51"/>
      </g>
     </g>
    </g>
    <g id="xtick_7">
     <g id="line2d_7">
      <g>
       <use style="stroke:#000000;stroke-width:0.8;" x="588.591214" xlink:href="#mf698bb0dd2" y="378"/>
      </g>
     </g>
     <g id="text_7">
      <!-- 29 09 -->
      <g transform="translate(574.277152 392.598437)scale(0.1 -0.1)">
       <use xlink:href="#DejaVuSans-50"/>
       <use x="63.623047" xlink:href="#DejaVuSans-57"/>
       <use x="127.246094" xlink:href="#DejaVuSans-32"/>
       <use x="159.033203" xlink:href="#DejaVuSans-48"/>
       <use x="222.65625" xlink:href="#DejaVuSans-57"/>
      </g>
     </g>
    </g>
    <g id="xtick_8">
     <g id="line2d_8">
      <defs>
       <path d="M 0 0 
L 0 2 
" id="md320945e8a" style="stroke:#000000;stroke-width:0.6;"/>
      </defs>
      <g>
       <use style="stroke:#000000;stroke-width:0.6;" x="98.341062" xlink:href="#md320945e8a" y="378"/>
      </g>
     </g>
    </g>
    <g id="xtick_9">
     <g id="line2d_9">
      <g>
       <use style="stroke:#000000;stroke-width:0.6;" x="180.04942" xlink:href="#md320945e8a" y="378"/>
      </g>
     </g>
    </g>
    <g id="xtick_10">
     <g id="line2d_10">
      <g>
       <use style="stroke:#000000;stroke-width:0.6;" x="261.757779" xlink:href="#md320945e8a" y="378"/>
      </g>
     </g>
    </g>
    <g id="xtick_11">
     <g id="line2d_11">
      <g>
       <use style="stroke:#000000;stroke-width:0.6;" x="343.466138" xlink:href="#md320945e8a" y="378"/>
      </g>
     </g>
    </g>
    <g id="xtick_12">
     <g id="line2d_12">
      <g>
       <use style="stroke:#000000;stroke-width:0.6;" x="425.174497" xlink:href="#md320945e8a" y="378"/>
      </g>
     </g>
    </g>
    <g id="xtick_13">
     <g id="line2d_13">
      <g>
       <use style="stroke:#000000;stroke-width:0.6;" x="506.882855" xlink:href="#md320945e8a" y="378"/>
      </g>
     </g>
    </g>
    <g id="xtick_14">
     <g id="line2d_14">
      <g>
       <use style="stroke:#000000;stroke-width:0.6;" x="588.591214" xlink:href="#md320945e8a" y="378"/>
      </g>
     </g>
    </g>
    <g id="text_8">
     <!-- Timestamp -->
     <defs>
      <path d="M -0.296875 72.90625 
L 61.375 72.90625 
L 61.375 64.59375 
L 35.5 64.59375 
L 35.5 0 
L 25.59375 0 
L 25.59375 64.59375 
L -0.296875 64.59375 
z
" id="DejaVuSans-84"/>
      <path d="M 9.421875 54.6875 
L 18.40625 54.6875 
L 18.40625 0 
L 9.421875 0 
z
M 9.421875 75.984375 
L 18.40625 75.984375 
L 18.40625 64.59375 
L 9.421875 64.59375 
z
" id="DejaVuSans-105"/>
      <path d="M 52 44.1875 
Q 55.375 50.25 60.0625 53.125 
Q 64.75 56 71.09375 56 
Q 79.640625 56 84.28125 50.015625 
Q 88.921875 44.046875 88.921875 33.015625 
L 88.921875 0 
L 79.890625 0 
L 79.890625 32.71875 
Q 79.890625 40.578125 77.09375 44.375 
Q 74.3125 48.1875 68.609375 48.1875 
Q 61.625 48.1875 57.5625 43.546875 
Q 53.515625 38.921875 53.515625 30.90625 
L 53.515625 0 
L 44.484375 0 
L 44.484375 32.71875 
Q 44.484375 40.625 41.703125 44.40625 
Q 38.921875 48.1875 33.109375 48.1875 
Q 26.21875 48.1875 22.15625 43.53125 
Q 18.109375 38.875 18.109375 30.90625 
L 18.109375 0 
L 9.078125 0 
L 9.078125 54.6875 
L 18.109375 54.6875 
L 18.109375 46.1875 
Q 21.1875 51.21875 25.484375 53.609375 
Q 29.78125 56 35.6875 56 
Q 41.65625 56 45.828125 52.96875 
Q 50 49.953125 52 44.1875 
z
" id="DejaVuSans-109"/>
      <path d="M 56.203125 29.59375 
L 56.203125 25.203125 
L 14.890625 25.203125 
Q 15.484375 15.921875 20.484375 11.0625 
Q 25.484375 6.203125 34.421875 6.203125 
Q 39.59375 6.203125 44.453125 7.46875 
Q 49.3125 8.734375 54.109375 11.28125 
L 54.109375 2.78125 
Q 49.265625 0.734375 44.1875 -0.34375 
Q 39.109375 -1.421875 33.890625 -1.421875 
Q 20.796875 -1.421875 13.15625 6.1875 
Q 5.515625 13.8125 5.515625 26.8125 
Q 5.515625 40.234375 12.765625 48.109375 
Q 20.015625 56 32.328125 56 
Q 43.359375 56 49.78125 48.890625 
Q 56.203125 41.796875 56.203125 29.59375 
z
M 47.21875 32.234375 
Q 47.125 39.59375 43.09375 43.984375 
Q 39.0625 48.390625 32.421875 48.390625 
Q 24.90625 48.390625 20.390625 44.140625 
Q 15.875 39.890625 15.1875 32.171875 
z
" id="DejaVuSans-101"/>
      <path d="M 44.28125 53.078125 
L 44.28125 44.578125 
Q 40.484375 46.53125 36.375 47.5 
Q 32.28125 48.484375 27.875 48.484375 
Q 21.1875 48.484375 17.84375 46.4375 
Q 14.5 44.390625 14.5 40.28125 
Q 14.5 37.15625 16.890625 35.375 
Q 19.28125 33.59375 26.515625 31.984375 
L 29.59375 31.296875 
Q 39.15625 29.25 43.1875 25.515625 
Q 47.21875 21.78125 47.21875 15.09375 
Q 47.21875 7.46875 41.1875 3.015625 
Q 35.15625 -1.421875 24.609375 -1.421875 
Q 20.21875 -1.421875 15.453125 -0.5625 
Q 10.6875 0.296875 5.421875 2 
L 5.421875 11.28125 
Q 10.40625 8.6875 15.234375 7.390625 
Q 20.0625 6.109375 24.8125 6.109375 
Q 31.15625 6.109375 34.5625 8.28125 
Q 37.984375 10.453125 37.984375 14.40625 
Q 37.984375 18.0625 35.515625 20.015625 
Q 33.0625 21.96875 24.703125 23.78125 
L 21.578125 24.515625 
Q 13.234375 26.265625 9.515625 29.90625 
Q 5.8125 33.546875 5.8125 39.890625 
Q 5.8125 47.609375 11.28125 51.796875 
Q 16.75 56 26.8125 56 
Q 31.78125 56 36.171875 55.265625 
Q 40.578125 54.546875 44.28125 53.078125 
z
" id="DejaVuSans-115"/>
      <path d="M 18.3125 70.21875 
L 18.3125 54.6875 
L 36.8125 54.6875 
L 36.8125 47.703125 
L 18.3125 47.703125 
L 18.3125 18.015625 
Q 18.3125 11.328125 20.140625 9.421875 
Q 21.96875 7.515625 27.59375 7.515625 
L 36.8125 7.515625 
L 36.8125 0 
L 27.59375 0 
Q 17.1875 0 13.234375 3.875 
Q 9.28125 7.765625 9.28125 18.015625 
L 9.28125 47.703125 
L 2.6875 47.703125 
L 2.6875 54.6875 
L 9.28125 54.6875 
L 9.28125 70.21875 
z
" id="DejaVuSans-116"/>
      <path d="M 34.28125 27.484375 
Q 23.390625 27.484375 19.1875 25 
Q 14.984375 22.515625 14.984375 16.5 
Q 14.984375 11.71875 18.140625 8.90625 
Q 21.296875 6.109375 26.703125 6.109375 
Q 34.1875 6.109375 38.703125 11.40625 
Q 43.21875 16.703125 43.21875 25.484375 
L 43.21875 27.484375 
z
M 52.203125 31.203125 
L 52.203125 0 
L 43.21875 0 
L 43.21875 8.296875 
Q 40.140625 3.328125 35.546875 0.953125 
Q 30.953125 -1.421875 24.3125 -1.421875 
Q 15.921875 -1.421875 10.953125 3.296875 
Q 6 8.015625 6 15.921875 
Q 6 25.140625 12.171875 29.828125 
Q 18.359375 34.515625 30.609375 34.515625 
L 43.21875 34.515625 
L 43.21875 35.40625 
Q 43.21875 41.609375 39.140625 45 
Q 35.0625 48.390625 27.6875 48.390625 
Q 23 48.390625 18.546875 47.265625 
Q 14.109375 46.140625 10.015625 43.890625 
L 10.015625 52.203125 
Q 14.9375 54.109375 19.578125 55.046875 
Q 24.21875 56 28.609375 56 
Q 40.484375 56 46.34375 49.84375 
Q 52.203125 43.703125 52.203125 31.203125 
z
" id="DejaVuSans-97"/>
      <path d="M 18.109375 8.203125 
L 18.109375 -20.796875 
L 9.078125 -20.796875 
L 9.078125 54.6875 
L 18.109375 54.6875 
L 18.109375 46.390625 
Q 20.953125 51.265625 25.265625 53.625 
Q 29.59375 56 35.59375 56 
Q 45.5625 56 51.78125 48.09375 
Q 58.015625 40.1875 58.015625 27.296875 
Q 58.015625 14.40625 51.78125 6.484375 
Q 45.5625 -1.421875 35.59375 -1.421875 
Q 29.59375 -1.421875 25.265625 0.953125 
Q 20.953125 3.328125 18.109375 8.203125 
z
M 48.6875 27.296875 
Q 48.6875 37.203125 44.609375 42.84375 
Q 40.53125 48.484375 33.40625 48.484375 
Q 26.265625 48.484375 22.1875 42.84375 
Q 18.109375 37.203125 18.109375 27.296875 
Q 18.109375 17.390625 22.1875 11.75 
Q 26.265625 6.109375 33.40625 6.109375 
Q 40.53125 6.109375 44.609375 11.75 
Q 48.6875 17.390625 48.6875 27.296875 
z
" id="DejaVuSans-112"/>
     </defs>
     <g transform="translate(340.939062 406.276563)scale(0.1 -0.1)">
      <use xlink:href="#DejaVuSans-84"/>
      <use x="61.037109" xlink:href="#DejaVuSans-105"/>
      <use x="88.820312" xlink:href="#DejaVuSans-109"/>
      <use x="186.232422" xlink:href="#DejaVuSans-101"/>
      <use x="247.755859" xlink:href="#DejaVuSans-115"/>
      <use x="299.855469" xlink:href="#DejaVuSans-116"/>
      <use x="339.064453" xlink:href="#DejaVuSans-97"/>
      <use x="400.34375" xlink:href="#DejaVuSans-109"/>
      <use x="497.755859" xlink:href="#DejaVuSans-112"/>
     </g>
    </g>
   </g>
   <g id="matplotlib.axis_2">
    <g id="ytick_1">
     <g id="line2d_15">
      <defs>
       <path d="M 0 0 
L -3.5 0 
" id="m25a6615418" style="stroke:#000000;stroke-width:0.8;"/>
      </defs>
      <g>
       <use style="stroke:#000000;stroke-width:0.8;" x="90" xlink:href="#m25a6615418" y="360.463431"/>
      </g>
     </g>
     <g id="text_9">
      <!-- 0 -->
      <g transform="translate(76.6375 364.262649)scale(0.1 -0.1)">
       <use xlink:href="#DejaVuSans-48"/>
      </g>
     </g>
    </g>
    <g id="ytick_2">
     <g id="line2d_16">
      <g>
       <use style="stroke:#000000;stroke-width:0.8;" x="90" xlink:href="#m25a6615418" y="303.117713"/>
      </g>
     </g>
     <g id="text_10">
      <!-- 500 -->
      <g transform="translate(63.9125 306.916932)scale(0.1 -0.1)">
       <use xlink:href="#DejaVuSans-53"/>
       <use x="63.623047" xlink:href="#DejaVuSans-48"/>
       <use x="127.246094" xlink:href="#DejaVuSans-48"/>
      </g>
     </g>
    </g>
    <g id="ytick_3">
     <g id="line2d_17">
      <g>
       <use style="stroke:#000000;stroke-width:0.8;" x="90" xlink:href="#m25a6615418" y="245.771996"/>
      </g>
     </g>
     <g id="text_11">
      <!-- 1000 -->
      <g transform="translate(57.55 249.571215)scale(0.1 -0.1)">
       <use xlink:href="#DejaVuSans-49"/>
       <use x="63.623047" xlink:href="#DejaVuSans-48"/>
       <use x="127.246094" xlink:href="#DejaVuSans-48"/>
       <use x="190.869141" xlink:href="#DejaVuSans-48"/>
      </g>
     </g>
    </g>
    <g id="ytick_4">
     <g id="line2d_18">
      <g>
       <use style="stroke:#000000;stroke-width:0.8;" x="90" xlink:href="#m25a6615418" y="188.426279"/>
      </g>
     </g>
     <g id="text_12">
      <!-- 1500 -->
      <g transform="translate(57.55 192.225497)scale(0.1 -0.1)">
       <use xlink:href="#DejaVuSans-49"/>
       <use x="63.623047" xlink:href="#DejaVuSans-53"/>
       <use x="127.246094" xlink:href="#DejaVuSans-48"/>
       <use x="190.869141" xlink:href="#DejaVuSans-48"/>
      </g>
     </g>
    </g>
    <g id="ytick_5">
     <g id="line2d_19">
      <g>
       <use style="stroke:#000000;stroke-width:0.8;" x="90" xlink:href="#m25a6615418" y="131.080561"/>
      </g>
     </g>
     <g id="text_13">
      <!-- 2000 -->
      <g transform="translate(57.55 134.87978)scale(0.1 -0.1)">
       <use xlink:href="#DejaVuSans-50"/>
       <use x="63.623047" xlink:href="#DejaVuSans-48"/>
       <use x="127.246094" xlink:href="#DejaVuSans-48"/>
       <use x="190.869141" xlink:href="#DejaVuSans-48"/>
      </g>
     </g>
    </g>
    <g id="ytick_6">
     <g id="line2d_20">
      <g>
       <use style="stroke:#000000;stroke-width:0.8;" x="90" xlink:href="#m25a6615418" y="73.734844"/>
      </g>
     </g>
     <g id="text_14">
      <!-- 2500 -->
      <g transform="translate(57.55 77.534063)scale(0.1 -0.1)">
       <use xlink:href="#DejaVuSans-50"/>
       <use x="63.623047" xlink:href="#DejaVuSans-53"/>
       <use x="127.246094" xlink:href="#DejaVuSans-48"/>
       <use x="190.869141" xlink:href="#DejaVuSans-48"/>
      </g>
     </g>
    </g>
    <g id="text_15">
     <!-- Call count -->
     <defs>
      <path d="M 64.40625 67.28125 
L 64.40625 56.890625 
Q 59.421875 61.53125 53.78125 63.8125 
Q 48.140625 66.109375 41.796875 66.109375 
Q 29.296875 66.109375 22.65625 58.46875 
Q 16.015625 50.828125 16.015625 36.375 
Q 16.015625 21.96875 22.65625 14.328125 
Q 29.296875 6.6875 41.796875 6.6875 
Q 48.140625 6.6875 53.78125 8.984375 
Q 59.421875 11.28125 64.40625 15.921875 
L 64.40625 5.609375 
Q 59.234375 2.09375 53.4375 0.328125 
Q 47.65625 -1.421875 41.21875 -1.421875 
Q 24.65625 -1.421875 15.125 8.703125 
Q 5.609375 18.84375 5.609375 36.375 
Q 5.609375 53.953125 15.125 64.078125 
Q 24.65625 74.21875 41.21875 74.21875 
Q 47.75 74.21875 53.53125 72.484375 
Q 59.328125 70.75 64.40625 67.28125 
z
" id="DejaVuSans-67"/>
      <path d="M 9.421875 75.984375 
L 18.40625 75.984375 
L 18.40625 0 
L 9.421875 0 
z
" id="DejaVuSans-108"/>
      <path d="M 48.78125 52.59375 
L 48.78125 44.1875 
Q 44.96875 46.296875 41.140625 47.34375 
Q 37.3125 48.390625 33.40625 48.390625 
Q 24.65625 48.390625 19.8125 42.84375 
Q 14.984375 37.3125 14.984375 27.296875 
Q 14.984375 17.28125 19.8125 11.734375 
Q 24.65625 6.203125 33.40625 6.203125 
Q 37.3125 6.203125 41.140625 7.25 
Q 44.96875 8.296875 48.78125 10.40625 
L 48.78125 2.09375 
Q 45.015625 0.34375 40.984375 -0.53125 
Q 36.96875 -1.421875 32.421875 -1.421875 
Q 20.0625 -1.421875 12.78125 6.34375 
Q 5.515625 14.109375 5.515625 27.296875 
Q 5.515625 40.671875 12.859375 48.328125 
Q 20.21875 56 33.015625 56 
Q 37.15625 56 41.109375 55.140625 
Q 45.0625 54.296875 48.78125 52.59375 
z
" id="DejaVuSans-99"/>
      <path d="M 30.609375 48.390625 
Q 23.390625 48.390625 19.1875 42.75 
Q 14.984375 37.109375 14.984375 27.296875 
Q 14.984375 17.484375 19.15625 11.84375 
Q 23.34375 6.203125 30.609375 6.203125 
Q 37.796875 6.203125 41.984375 11.859375 
Q 46.1875 17.53125 46.1875 27.296875 
Q 46.1875 37.015625 41.984375 42.703125 
Q 37.796875 48.390625 30.609375 48.390625 
z
M 30.609375 56 
Q 42.328125 56 49.015625 48.375 
Q 55.71875 40.765625 55.71875 27.296875 
Q 55.71875 13.875 49.015625 6.21875 
Q 42.328125 -1.421875 30.609375 -1.421875 
Q 18.84375 -1.421875 12.171875 6.21875 
Q 5.515625 13.875 5.515625 27.296875 
Q 5.515625 40.765625 12.171875 48.375 
Q 18.84375 56 30.609375 56 
z
" id="DejaVuSans-111"/>
      <path d="M 8.5 21.578125 
L 8.5 54.6875 
L 17.484375 54.6875 
L 17.484375 21.921875 
Q 17.484375 14.15625 20.5 10.265625 
Q 23.53125 6.390625 29.59375 6.390625 
Q 36.859375 6.390625 41.078125 11.03125 
Q 45.3125 15.671875 45.3125 23.6875 
L 45.3125 54.6875 
L 54.296875 54.6875 
L 54.296875 0 
L 45.3125 0 
L 45.3125 8.40625 
Q 42.046875 3.421875 37.71875 1 
Q 33.40625 -1.421875 27.6875 -1.421875 
Q 18.265625 -1.421875 13.375 4.4375 
Q 8.5 10.296875 8.5 21.578125 
z
M 31.109375 56 
z
" id="DejaVuSans-117"/>
      <path d="M 54.890625 33.015625 
L 54.890625 0 
L 45.90625 0 
L 45.90625 32.71875 
Q 45.90625 40.484375 42.875 44.328125 
Q 39.84375 48.1875 33.796875 48.1875 
Q 26.515625 48.1875 22.3125 43.546875 
Q 18.109375 38.921875 18.109375 30.90625 
L 18.109375 0 
L 9.078125 0 
L 9.078125 54.6875 
L 18.109375 54.6875 
L 18.109375 46.1875 
Q 21.34375 51.125 25.703125 53.5625 
Q 30.078125 56 35.796875 56 
Q 45.21875 56 50.046875 50.171875 
Q 54.890625 44.34375 54.890625 33.015625 
z
" id="DejaVuSans-110"/>
     </defs>
     <g transform="translate(51.470312 239.948906)rotate(-90)scale(0.1 -0.1)">
      <use xlink:href="#DejaVuSans-67"/>
      <use x="69.824219" xlink:href="#DejaVuSans-97"/>
      <use x="131.103516" xlink:href="#DejaVuSans-108"/>
      <use x="158.886719" xlink:href="#DejaVuSans-108"/>
      <use x="186.669922" xlink:href="#DejaVuSans-32"/>
      <use x="218.457031" xlink:href="#DejaVuSans-99"/>
      <use x="273.4375" xlink:href="#DejaVuSans-111"/>
      <use x="334.619141" xlink:href="#DejaVuSans-117"/>
      <use x="397.998047" xlink:href="#DejaVuSans-110"/>
      <use x="461.376953" xlink:href="#DejaVuSans-116"/>
     </g>
    </g>
   </g>
   <g id="line2d_21">
    <path clip-path="url(#pbbb5cdc357)" d="M 115.363636 325.138469 
L 117.009152 348.076756 
L 117.065894 329.037978 
L 117.122636 341.424653 
L 117.292862 356.563922 
L 117.633313 325.138469 
L 118.768151 325.138469 
L 126.655278 318.83044 
L 126.71202 296.121536 
L 126.882245 357.25207 
L 128.981696 296.121536 
L 132.386211 255.406076 
L 135.790726 319.747971 
L 136.982306 356.334539 
L 137.039048 336.836995 
L 137.09579 340.965887 
L 137.266016 343.374407 
L 138.060403 319.747971 
L 146.004271 322.156491 
L 147.139109 322.156491 
L 147.76327 349.22367 
L 147.876754 343.718481 
L 147.933496 333.396252 
L 147.990238 350.141202 
L 149.408786 322.156491 
L 159.622331 360.234048 
L 164.672361 360.176702 
L 164.729103 360.119356 
L 166.488102 360.004665 
L 166.544844 359.775282 
L 166.601586 360.234048 
L 167.566199 359.775282 
L 169.835876 358.857751 
L 171.027456 359.775282 
L 171.084198 359.545899 
L 171.14094 360.234048 
L 172.105552 359.545899 
L 173.24039 358.398985 
L 173.80781 358.800405 
L 173.864552 359.201825 
L 174.375229 359.603245 
L 175.623551 360.004665 
L 176.644905 360.004665 
L 180.106162 359.775282 
L 180.162904 359.087133 
L 180.219646 359.775282 
L 181.184259 359.087133 
L 183.453935 357.940219 
L 184.702257 359.316516 
L 185.723612 359.316516 
L 186.85845 356.793305 
L 189.184869 359.545899 
L 189.241611 359.316516 
L 189.298353 360.234048 
L 190.262965 359.316516 
L 192.4759 359.201825 
L 192.532642 359.144479 
L 194.802318 359.087133 
L 197.071995 358.628368 
L 198.263575 360.234048 
L 198.320317 360.004665 
L 198.377059 360.234048 
L 199.341672 360.004665 
L 200.47651 357.825528 
L 202.802929 360.004665 
L 202.859671 359.660591 
L 202.916412 360.119356 
L 203.881025 359.660591 
L 204.732154 359.947319 
L 206.434411 360.090684 
L 206.491153 360.162366 
L 207.342282 360.234048 
L 207.399024 359.660591 
L 207.455766 359.889973 
L 208.420378 359.660591 
L 210.690055 358.743059 
L 211.881635 360.004665 
L 211.938377 359.545899 
L 211.995119 360.004665 
L 212.959732 359.545899 
L 214.09457 357.596145 
L 216.420988 359.545899 
L 216.47773 359.316516 
L 216.534472 360.234048 
L 217.499085 359.316516 
L 220.960342 359.775282 
L 221.017084 358.857751 
L 221.073825 359.545899 
L 222.038438 358.857751 
L 224.194631 358.704829 
L 224.308115 358.628368 
L 225.556437 360.234048 
L 226.577791 360.234048 
L 226.691275 359.709744 
L 226.918243 359.447592 
L 226.974985 359.18544 
L 227.372178 358.923289 
L 227.42892 358.661137 
L 227.71263 358.398985 
L 230.09579 360.234048 
L 231.117145 360.234048 
L 235.656498 360.004665 
L 235.826724 358.857751 
L 237.926175 358.284293 
L 238.209884 358.4678 
L 238.266626 358.651306 
L 238.720561 358.834812 
L 238.777303 359.018319 
L 239.117755 359.201825 
L 239.174497 358.743059 
L 239.231239 360.004665 
L 240.195851 358.743059 
L 241.160464 358.513676 
L 241.330689 358.054911 
L 243.71385 360.234048 
L 244.735204 360.234048 
L 245.075656 360.004665 
L 246.267236 359.775282 
L 248.253203 359.545899 
L 249.841977 359.454146 
L 251.544234 359.316516 
L 252.281879 359.62236 
L 252.338621 359.928204 
L 252.792556 360.234048 
L 253.813911 360.234048 
L 254.948749 358.743059 
L 255.686394 359.029788 
L 255.743136 359.316516 
L 256.083588 359.603245 
L 257.33191 359.889973 
L 260.622941 359.975992 
L 261.701037 360.148029 
L 261.814521 360.234048 
L 261.871263 360.004665 
L 261.928005 360.234048 
L 262.892617 360.004665 
L 263.233069 359.51313 
L 263.289811 359.021595 
L 264.084198 358.530061 
L 264.14094 358.038526 
L 264.538133 357.546991 
L 264.594875 357.055457 
L 264.765101 356.563922 
L 264.821843 349.797127 
L 264.878585 353.696636 
L 265.162294 349.338361 
L 268.566809 316.995377 
L 268.850519 356.105156 
L 268.907261 339.818972 
L 268.964002 344.177247 
L 269.134228 348.764904 
L 269.701647 328.120446 
L 271.971324 328.120446 
L 282.184869 332.708103 
L 285.589384 332.708103 
L 286.66748 351.517499 
L 286.837706 341.654035 
L 286.894448 354.958242 
L 287.85906 341.654035 
L 292.398414 320.894886 
L 293.816962 355.990465 
L 293.873703 338.442675 
L 293.930445 342.915641 
L 294.100671 342.915641 
L 294.66809 320.894886 
L 295.802929 180.397878 
L 297.107993 351.861573 
L 297.278218 352.320339 
L 299.037218 321.353651 
L 299.09396 301.397342 
L 299.150702 340.507121 
L 299.207444 219.966423 
L 299.320927 357.481453 
L 301.079927 359.545899 
L 301.136669 349.911819 
L 301.193411 350.82935 
L 301.363636 348.650213 
L 301.47712 308.508211 
L 302.214765 360.004665 
L 302.441733 339.474898 
L 302.498475 339.474898 
L 303.746797 330.643658 
L 304.370958 358.284293 
L 304.484442 349.108979 
L 304.541184 332.822795 
L 304.597926 344.177247 
L 306.016473 288.781284 
L 307.775473 355.990465 
L 307.945699 323.074023 
L 308.00244 352.43503 
L 308.28615 318.601057 
L 309.420988 218.590126 
L 310.555827 337.066378 
L 311.520439 348.879596 
L 311.577181 337.066378 
L 311.747407 351.402807 
L 311.804149 351.402807 
L 312.825503 290.272273 
L 315.09518 322.729949 
L 315.265406 360.234048 
L 315.435631 322.959332 
L 315.492373 339.245515 
L 317.364857 331.331806 
L 317.535082 354.499476 
L 317.648566 350.370584 
L 317.705308 337.295761 
L 317.76205 347.388607 
L 319.010372 351.173424 
L 319.067114 326.85884 
L 319.123856 336.148847 
L 319.294082 358.743059 
L 319.634533 234.07347 
L 320.599146 351.058733 
L 320.655888 326.400075 
L 320.71263 335.804772 
L 320.882855 360.004665 
L 321.90421 332.593412 
L 322.074436 358.628368 
L 322.244661 334.887241 
L 322.301403 347.962064 
L 323.039048 110.092029 
L 323.209274 340.621812 
L 323.436242 358.398985 
L 324.173887 306.214382 
L 324.684564 354.384785 
L 324.741306 352.779105 
L 324.798048 358.857751 
L 326.04637 350.255893 
L 326.103112 334.772549 
L 326.159854 344.980087 
L 326.330079 359.775282 
L 326.443563 236.48199 
L 327.52166 346.127001 
L 327.635143 350.02651 
L 327.691885 349.338361 
L 327.748627 359.775282 
L 328.71324 331.446498 
L 328.883466 355.417008 
L 329.053691 347.61799 
L 329.110433 355.990465 
L 330.585723 357.825528 
L 330.982916 301.741416 
L 332.514948 358.398985 
L 332.628432 353.696636 
L 332.685174 338.213292 
L 332.741916 344.980087 
L 333.252593 223.407166 
L 334.557657 358.169602 
L 334.727883 333.396252 
L 334.784625 354.614167 
L 335.52227 306.443765 
L 336.486882 357.022688 
L 336.543624 335.804772 
L 336.600366 339.245515 
L 336.657108 75.913981 
L 336.770592 337.295761 
L 337.791946 304.264628 
L 338.529591 353.352562 
L 338.586333 335.690081 
L 338.643075 342.80095 
L 338.813301 352.205647 
L 339.66443 356.563922 
L 339.721171 340.163047 
L 339.777913 344.062556 
L 339.948139 354.958242 
L 340.061623 212.970246 
L 340.685784 360.234048 
L 340.799268 354.04071 
L 340.85601 340.163047 
L 340.912752 346.585767 
L 341.820622 351.63219 
L 341.934106 355.875773 
L 341.990848 351.288116 
L 342.04759 355.875773 
L 342.3313 315.504388 
L 343.182428 357.481453 
L 343.352654 336.492921 
L 343.409396 348.42083 
L 344.600976 337.639835 
L 345.338621 357.137379 
L 345.395363 349.338361 
L 345.452105 352.664413 
L 345.622331 348.764904 
L 346.870653 260.337808 
L 346.927395 354.384785 
L 346.984137 344.636013 
L 347.154362 356.563922 
L 347.211104 356.563922 
L 348.175717 347.61799 
L 348.345943 339.818972 
L 348.402685 360.234048 
L 349.140329 302.88833 
L 349.424039 359.316516 
L 349.480781 351.976264 
L 349.537523 353.123179 
L 349.707749 344.865396 
L 350.275168 163.76762 
L 350.899329 355.64639 
L 351.069555 338.098601 
L 351.126297 356.678613 
L 351.410006 327.891063 
L 352.488102 355.072933 
L 352.658328 339.016132 
L 352.71507 353.811327 
L 353.679683 263.893243 
L 354.303844 348.42083 
L 354.530811 358.743059 
L 355.779134 357.137379 
L 355.949359 339.818972 
L 356.062843 358.857751 
L 357.027456 359.775282 
L 357.197682 326.85884 
L 357.254423 347.962064 
L 358.219036 299.332896 
L 358.389262 357.710836 
L 358.502746 351.976264 
L 358.559487 335.690081 
L 358.616229 344.177247 
L 359.637584 358.857751 
L 359.694326 343.833173 
L 359.751068 345.438853 
L 359.921293 354.958242 
L 360.488713 223.407166 
L 360.99939 357.710836 
L 361.056132 341.654035 
L 361.112874 344.40663 
L 361.283099 356.334539 
L 362.47468 349.22367 
L 362.588164 351.173424 
L 362.644905 347.962064 
L 362.701647 357.25207 
L 363.836486 353.352562 
L 363.893228 72.473238 
L 363.94997 337.869218 
L 364.006711 332.249338 
L 364.063453 354.84355 
L 365.084808 354.728859 
L 365.14155 335.001932 
L 365.198292 340.736504 
L 365.368517 356.678613 
L 366.787065 348.764904 
L 366.900549 350.944042 
L 366.957291 345.20947 
L 367.014033 354.728859 
L 367.297743 209.529503 
L 368.375839 355.990465 
L 368.546065 328.235138 
L 368.602807 348.879596 
L 369.964613 352.090956 
L 370.134838 339.016132 
L 370.19158 356.44923 
L 371.439902 344.521321 
L 371.496644 334.887241 
L 371.66687 360.234048 
L 371.723612 360.234048 
L 373.028676 350.944042 
L 373.085418 331.102423 
L 373.14216 340.621812 
L 373.312386 359.545899 
L 374.106772 217.32852 
L 374.730933 355.187625 
L 374.844417 349.567744 
L 374.901159 335.575389 
L 374.957901 346.471076 
L 376.206223 348.535521 
L 376.262965 346.471076 
L 376.319707 358.398985 
L 377.114094 355.072933 
L 377.170836 337.983909 
L 377.227578 343.374407 
L 377.397804 352.205647 
L 377.511287 69.605952 
L 378.702868 359.087133 
L 378.75961 341.424653 
L 378.816351 342.80095 
L 378.986577 354.499476 
L 380.178157 346.585767 
L 380.348383 330.528966 
L 380.915802 212.740863 
L 381.42648 358.169602 
L 381.483222 342.915641 
L 381.539963 345.20947 
L 381.710189 355.187625 
L 382.561318 357.366762 
L 382.61806 337.983909 
L 382.674802 341.080578 
L 382.845027 353.581945 
L 384.036608 353.696636 
L 384.150092 352.43503 
L 384.206833 340.507121 
L 384.263575 348.535521 
L 385.398414 329.26736 
L 386.987187 342.915641 
L 387.157413 350.599967 
L 387.724832 235.793841 
L 388.462477 355.187625 
L 388.519219 343.030333 
L 388.575961 348.306139 
L 388.746187 359.545899 
L 389.370348 352.779105 
L 389.42709 336.492921 
L 389.483832 344.177247 
L 389.654057 358.743059 
L 390.61867 352.549722 
L 390.732154 352.893796 
L 390.788896 346.356384 
L 390.845638 353.926019 
L 391.129347 131.080561 
L 392.207444 348.650213 
L 392.434411 357.825528 
L 393.682733 355.761082 
L 393.739475 344.865396 
L 393.796217 349.567744 
L 394.533862 255.750151 
L 394.817572 354.384785 
L 394.874314 337.983909 
L 395.101281 358.628368 
L 396.065894 345.553544 
L 396.292862 360.004665 
L 397.200732 352.205647 
L 397.370958 348.535521 
L 397.4277 360.004665 
L 398.449054 352.779105 
L 398.505796 340.39243 
L 398.562538 348.076756 
L 398.732764 355.531699 
L 399.697376 358.972442 
L 399.867602 338.901441 
L 399.924344 354.155402 
L 400.945699 357.366762 
L 401.002441 348.306139 
L 401.059182 351.402807 
L 401.229408 351.63219 
L 401.342892 210.447034 
L 402.080537 354.499476 
L 402.137279 344.750704 
L 402.307505 351.976264 
L 402.364246 351.976264 
L 403.101891 341.883418 
L 403.328859 359.087133 
L 404.23673 358.169602 
L 404.350214 352.205647 
L 404.406955 333.396252 
L 404.463697 341.654035 
L 404.747407 89.676953 
L 405.938987 360.119356 
L 405.995729 349.911819 
L 406.052471 350.255893 
L 406.222697 345.782927 
L 407.414277 358.398985 
L 407.584503 340.277738 
L 407.641245 353.352562 
L 408.151922 239.69335 
L 408.549115 350.599967 
L 408.662599 349.682436 
L 408.719341 347.159224 
L 408.776083 357.940219 
L 409.797437 359.545899 
L 409.854179 343.489098 
L 409.910921 344.40663 
L 410.081147 352.664413 
L 410.932276 353.123179 
L 410.989018 336.492921 
L 411.04576 343.833173 
L 411.215985 359.087133 
L 412.521049 345.553544 
L 412.577791 330.643658 
L 412.748017 355.64639 
L 412.804759 355.64639 
L 414.109823 358.628368 
L 414.166565 346.585767 
L 414.223307 348.42083 
L 414.393533 347.159224 
L 414.960952 252.997556 
L 415.585113 358.628368 
L 415.755339 336.378229 
L 415.812081 355.072933 
L 416.946919 357.710836 
L 417.117145 344.40663 
L 417.173887 357.366762 
L 418.308725 359.545899 
L 418.365467 81.075096 
L 418.422209 334.657858 
L 418.478951 323.188714 
L 418.535693 348.994287 
L 419.784015 350.714659 
L 419.840757 343.833173 
L 419.897498 353.581945 
L 420.067724 353.696636 
L 420.918853 359.545899 
L 421.202563 325.367852 
L 421.769982 188.54097 
L 422.280659 358.743059 
L 422.337401 347.388607 
L 422.394143 349.108979 
L 422.564369 342.686258 
L 423.642465 357.022688 
L 423.699207 347.732681 
L 423.755949 351.173424 
L 423.926174 346.81515 
L 424.039658 350.714659 
L 425.117755 350.714659 
L 425.28798 331.790572 
L 425.344722 357.940219 
L 426.309335 327.66168 
L 426.593045 352.893796 
L 426.649786 345.897618 
L 426.820012 354.958242 
L 426.876754 354.958242 
L 427.95485 352.205647 
L 428.011592 347.159224 
L 428.068334 355.417008 
L 428.23856 354.270093 
L 428.579012 312.981177 
L 429.43014 352.205647 
L 429.600366 340.736504 
L 429.657108 360.004665 
L 430.564979 356.563922 
L 430.735204 337.066378 
L 430.791946 354.958242 
L 430.848688 333.166869 
L 431.983527 141.746865 
L 432.494204 357.940219 
L 432.550946 347.159224 
L 432.777913 355.187625 
L 433.118365 312.522411 
L 433.85601 355.64639 
L 433.912752 335.116624 
L 433.969494 339.933664 
L 434.139719 356.44923 
L 435.388041 337.066378 
L 436.012203 353.581945 
L 436.182428 343.947864 
L 436.23917 359.545899 
L 437.657718 336.607612 
L 437.941428 353.926019 
L 437.99817 340.965887 
L 438.054912 347.503299 
L 438.225137 356.105156 
L 439.927395 340.621812 
L 440.324588 351.402807 
L 440.494814 349.682436 
L 442.197071 332.937486 
L 442.253813 353.352562 
L 442.310555 336.607612 
L 442.537523 356.793305 
L 444.296522 349.682436 
L 444.353264 341.539344 
L 444.410006 352.320339 
L 444.466748 335.001932 
L 444.580232 355.875773 
L 445.544844 358.513676 
L 445.601586 148.513659 
L 445.658328 332.019955 
L 445.71507 321.353651 
L 445.771812 349.797127 
L 446.736425 295.548079 
L 447.133618 358.398985 
L 447.303844 336.722304 
L 447.360586 349.453053 
L 448.608908 353.696636 
L 448.66565 340.736504 
L 448.722392 347.503299 
L 448.892617 359.775282 
L 449.006101 221.34272 
L 450.197682 353.581945 
L 450.254423 333.396252 
L 450.311165 340.277738 
L 450.481391 357.022688 
L 451.275778 306.673148 
L 451.446004 345.897618 
L 451.672971 359.316516 
L 452.694326 347.732681 
L 452.751068 332.364029 
L 452.80781 345.094778 
L 453.545455 311.604879 
L 454.056132 357.940219 
L 454.112874 344.521321 
L 454.169616 347.044533 
L 454.339841 355.64639 
L 455.19097 355.875773 
L 455.247712 345.324161 
L 455.304454 349.911819 
L 455.47468 352.320339 
L 455.815131 233.729395 
L 456.439292 354.84355 
L 456.609518 340.048355 
L 456.66626 355.64639 
L 457.687614 358.169602 
L 457.744356 349.797127 
L 457.801098 352.090956 
L 457.971324 347.847373 
L 458.084808 331.905263 
L 459.162904 355.187625 
L 459.219646 108.486349 
L 459.276388 330.758349 
L 459.33313 328.693903 
L 459.389872 358.398985 
L 460.354484 304.608702 
L 460.638194 349.453053 
L 460.694936 338.213292 
L 460.865162 358.628368 
L 460.921904 358.628368 
L 461.886516 354.958242 
L 462.056742 341.654035 
L 462.113484 356.563922 
L 462.624161 312.40772 
L 463.361806 350.141202 
L 463.418548 339.474898 
L 463.588774 357.710836 
L 463.645516 357.710836 
L 464.723612 355.417008 
L 464.893838 339.130824 
L 465.007322 352.779105 
L 466.425869 347.962064 
L 466.539353 351.517499 
L 466.596095 349.22367 
L 466.652837 358.169602 
L 467.163514 313.439942 
L 467.787675 348.535521 
L 467.901159 350.485276 
L 467.957901 349.108979 
L 468.014643 359.087133 
L 469.149481 353.581945 
L 469.262965 356.334539 
L 469.433191 311.375497 
L 470.28432 357.022688 
L 470.454545 335.231315 
L 470.511287 348.650213 
L 471.702868 342.227493 
L 472.327029 358.398985 
L 472.497254 344.291938 
L 472.553996 355.072933 
L 472.837706 149.660574 
L 473.915802 356.793305 
L 473.972544 333.625635 
L 474.029286 340.851195 
L 474.086028 337.295761 
L 474.14277 356.907996 
L 475.61806 351.173424 
L 475.674802 340.277738 
L 475.731544 349.567744 
L 475.901769 356.793305 
L 476.242221 315.848463 
L 477.09335 357.481453 
L 477.206833 351.861573 
L 477.263575 342.686258 
L 477.320317 351.288116 
L 478.511898 335.460698 
L 479.249542 351.861573 
L 479.306284 344.636013 
L 479.363026 353.23787 
L 479.533252 351.288116 
L 480.724832 355.875773 
L 480.781574 332.708103 
L 480.838316 343.60379 
L 480.895058 337.295761 
L 480.9518 354.155402 
L 482.881025 356.907996 
L 483.051251 331.561189 
L 483.164735 349.22367 
L 484.696766 358.169602 
L 484.753508 349.108979 
L 484.81025 351.402807 
L 484.980476 346.81515 
L 485.320927 293.598324 
L 486.172056 359.545899 
L 486.342282 319.518588 
L 486.399024 340.39243 
L 486.455766 140.255876 
L 487.590604 332.937486 
L 488.555217 352.320339 
L 488.611959 332.937486 
L 488.6687 341.080578 
L 488.838926 359.775282 
L 489.860281 330.758349 
L 490.597926 348.076756 
L 490.654667 332.593412 
L 490.711409 344.980087 
L 490.881635 359.316516 
L 492.129957 321.009577 
L 492.981086 356.563922 
L 493.151312 324.909086 
L 493.208054 344.291938 
L 495.591214 360.234048 
L 495.647956 347.044533 
L 495.704698 347.273916 
L 495.874924 346.356384 
L 496.669311 307.934754 
L 497.406955 356.563922 
L 497.463697 341.539344 
L 497.520439 345.438853 
L 497.690665 354.384785 
L 498.882245 352.43503 
L 498.938987 328.579212 
L 498.995729 349.911819 
L 499.052471 336.607612 
L 499.109213 347.159224 
L 500.073825 148.972425 
L 500.81147 353.581945 
L 500.868212 342.80095 
L 501.038438 353.23787 
L 501.09518 353.23787 
L 501.208664 301.512033 
L 502.173276 353.23787 
L 502.230018 326.400075 
L 502.28676 333.625635 
L 502.456986 348.306139 
L 503.47834 325.482543 
L 503.989018 358.743059 
L 504.04576 348.306139 
L 504.102502 350.02651 
L 504.272727 349.797127 
L 505.748017 327.317606 
L 505.804759 359.316516 
L 505.861501 339.016132 
L 505.918243 340.163047 
L 506.088469 348.764904 
L 508.017694 321.009577 
L 508.074436 346.241693 
L 508.131178 324.679703 
L 508.358145 356.793305 
L 510.28737 325.941309 
L 510.457596 347.044533 
L 510.627822 339.360207 
L 510.684564 358.743059 
L 512.386821 354.04071 
L 512.557047 328.923286 
L 512.670531 353.811327 
L 513.691885 127.181052 
L 514.826724 319.059823 
L 514.883466 352.205647 
L 514.940207 331.331806 
L 515.110433 348.191447 
L 515.167175 348.191447 
L 517.0964 331.905263 
L 517.266626 354.614167 
L 517.436852 337.754527 
L 517.493594 354.270093 
L 519.309335 353.811327 
L 519.366077 302.658948 
L 519.422819 327.317606 
L 519.479561 309.311051 
L 519.536303 342.456875 
L 521.635754 312.866485 
L 522.032947 357.481453 
L 522.146431 343.374407 
L 522.203173 315.848463 
L 522.259915 332.937486 
L 523.90543 330.184892 
L 524.643075 358.743059 
L 524.699817 340.048355 
L 524.756559 341.768727 
L 524.926785 350.599967 
L 526.118365 341.883418 
L 526.175107 325.25316 
L 526.345333 357.710836 
L 527.309945 130.392413 
L 527.707139 358.169602 
L 527.877364 329.840818 
L 527.934106 349.682436 
L 528.444783 321.23896 
L 529.52288 354.155402 
L 529.693106 329.955509 
L 529.749847 349.567744 
L 530.71446 308.852285 
L 531.338621 352.090956 
L 531.508847 347.732681 
L 531.565589 359.087133 
L 532.927395 356.44923 
L 532.984137 334.313784 
L 533.040879 347.273916 
L 533.09762 338.327984 
L 533.154362 351.517499 
L 535.253813 318.486366 
L 535.310555 352.779105 
L 535.367297 327.088223 
L 535.594265 351.861573 
L 537.23978 348.076756 
L 537.410006 334.428475 
L 537.466748 354.384785 
L 537.52349 322.0418 
L 538.942038 352.779105 
L 538.99878 341.539344 
L 539.055522 349.22367 
L 539.225747 356.563922 
L 539.793167 293.483633 
L 540.417328 341.080578 
L 540.587553 335.690081 
L 540.644295 357.940219 
L 540.928005 104.816223 
L 542.233069 356.334539 
L 542.346553 350.944042 
L 542.403295 338.78675 
L 542.460037 348.306139 
L 543.481391 353.467253 
L 543.538133 336.836995 
L 543.594875 343.833173 
L 543.765101 353.352562 
L 544.33252 304.838085 
L 545.297132 349.108979 
L 545.353874 335.575389 
L 545.410616 346.929841 
L 545.580842 359.316516 
L 546.602196 333.625635 
L 546.99939 359.775282 
L 547.169616 335.460698 
L 547.226358 346.929841 
L 548.871873 334.543166 
L 549.155583 348.994287 
L 549.212325 335.919464 
L 549.269066 347.388607 
L 549.439292 359.087133 
L 550.971324 348.42083 
L 551.14155 326.973532 
L 551.255034 356.219848 
L 552.673581 354.499476 
L 552.843807 349.797127 
L 552.900549 360.234048 
L 553.411226 343.833173 
L 554.546065 150.922179 
L 554.602807 358.398985 
L 554.659549 340.048355 
L 554.886516 347.732681 
L 555.680903 293.713016 
L 556.758999 359.775282 
L 557.95058 323.074023 
L 558.234289 347.847373 
L 558.291031 327.776372 
L 558.347773 340.39243 
L 558.517999 355.761082 
L 560.220256 331.102423 
L 560.390482 349.108979 
L 560.503966 348.764904 
L 560.560708 342.456875 
L 560.61745 354.155402 
L 562.319707 331.790572 
L 562.376449 317.110068 
L 562.433191 345.782927 
L 562.489933 308.049445 
L 562.603417 351.402807 
L 564.362416 350.944042 
L 564.419158 339.933664 
L 564.4759 349.453053 
L 564.646126 358.628368 
L 564.75961 325.941309 
L 565.837706 348.306139 
L 565.95119 348.191447 
L 566.007932 344.980087 
L 566.064674 357.25207 
L 567.029286 311.146114 
L 567.312996 355.531699 
L 567.369738 341.883418 
L 567.42648 346.81515 
L 567.596705 345.20947 
L 568.164124 142.893779 
L 569.128737 354.728859 
L 569.298963 337.754527 
L 569.412447 356.678613 
L 570.830995 360.234048 
L 571.00122 328.46452 
L 571.057962 344.980087 
L 571.568639 328.235138 
L 572.873703 359.316516 
L 573.043929 335.231315 
L 573.100671 347.962064 
L 573.838316 334.084401 
L 575.029896 359.431208 
L 575.086638 352.43503 
L 575.14338 353.467253 
L 575.313606 348.306139 
L 576.107993 315.963154 
L 577.072605 359.087133 
L 577.129347 336.148847 
L 577.186089 337.525144 
L 577.356315 353.008487 
L 578.377669 337.754527 
L 579.342282 357.022688 
L 579.399024 345.20947 
L 579.455766 348.650213 
L 579.625991 350.485276 
L 580.647346 306.673148 
L 581.611959 347.732681 
L 581.6687 316.651303 
L 581.725442 329.382052 
L 581.782184 127.639818 
L 581.895668 332.134646 
L 582.917023 300.823885 
L 583.654667 354.384785 
L 583.711409 336.034155 
L 583.768151 342.112801 
L 583.938377 353.581945 
L 585.186699 333.969709 
L 585.356925 360.004665 
L 585.527151 334.428475 
L 585.583893 348.42083 
L 587.456376 334.772549 
L 587.626602 356.105156 
L 587.740085 350.141202 
L 587.796827 339.130824 
L 587.853569 349.453053 
L 589.669311 355.761082 
L 589.726052 333.969709 
L 589.782794 344.980087 
L 589.839536 338.672058 
L 589.896278 354.155402 
L 591.258084 344.980087 
L 591.42831 337.295761 
L 591.485052 358.513676 
L 591.995729 321.812417 
L 593.300793 357.710836 
L 593.471019 330.528966 
L 593.527761 345.782927 
L 594.265406 300.47981 
L 594.889567 359.087133 
L 595.059793 334.543166 
L 595.116534 351.517499 
L 595.400244 133.37439 
L 596.535082 333.740326 
L 596.818792 354.270093 
L 596.875534 341.309961 
L 596.932276 347.503299 
L 597.102502 352.893796 
L 598.748017 346.700459 
L 598.804759 333.855018 
L 598.974985 360.234048 
L 600.450275 350.944042 
L 600.507016 329.152669 
L 600.563758 338.672058 
L 600.733984 356.219848 
L 601.074436 311.834262 
L 602.152532 347.388607 
L 602.322758 321.353651 
L 602.3795 359.087133 
L 603.344112 299.332896 
L 604.195241 350.141202 
L 604.308725 350.141202 
L 604.365467 348.764904 
L 604.422209 359.087133 
L 605.557047 357.137379 
L 605.613789 340.965887 
L 605.670531 350.599967 
L 605.727273 344.291938 
L 605.784015 354.155402 
L 606.805369 359.316516 
L 606.862111 339.360207 
L 606.918853 340.507121 
L 607.089079 349.338361 
L 607.883466 302.08549 
L 608.167175 355.875773 
L 608.223917 339.818972 
L 608.280659 344.40663 
L 608.450885 354.958242 
L 609.018304 100.343257 
L 609.528981 357.940219 
L 609.585723 346.471076 
L 609.812691 352.205647 
L 610.153142 307.820062 
L 610.890787 349.682436 
L 610.947529 340.277738 
L 611.004271 351.058733 
L 611.174497 350.255893 
L 612.366077 352.893796 
L 612.422819 336.607612 
L 612.479561 346.471076 
L 612.536303 344.177247 
L 612.593045 358.169602 
L 613.841367 355.875773 
L 613.898109 347.159224 
L 613.954851 351.746882 
L 614.125076 354.958242 
L 614.692495 315.848463 
L 615.089689 348.42083 
L 615.203173 348.764904 
L 615.259915 346.700459 
L 615.316657 358.398985 
L 616.564979 358.398985 
L 616.791946 307.131914 
L 616.848688 307.131914 
L 616.962172 286.716838 
L 618.267236 358.513676 
L 618.437462 343.947864 
L 618.494204 353.123179 
L 619.231849 336.836995 
L 620.253203 355.302316 
L 622.636364 263.090403 
L 622.636364 263.090403 
" style="fill:none;stroke:#0000ff;stroke-linecap:square;stroke-width:1.5;"/>
   </g>
   <g id="patch_3">
    <path d="M 90 378 
L 90 51.84 
" style="fill:none;stroke:#000000;stroke-linecap:square;stroke-linejoin:miter;stroke-width:0.8;"/>
   </g>
   <g id="patch_4">
    <path d="M 648 378 
L 648 51.84 
" style="fill:none;stroke:#000000;stroke-linecap:square;stroke-linejoin:miter;stroke-width:0.8;"/>
   </g>
   <g id="patch_5">
    <path d="M 90 378 
L 648 378 
" style="fill:none;stroke:#000000;stroke-linecap:square;stroke-linejoin:miter;stroke-width:0.8;"/>
   </g>
   <g id="patch_6">
    <path d="M 90 51.84 
L 648 51.84 
" style="fill:none;stroke:#000000;stroke-linecap:square;stroke-linejoin:miter;stroke-width:0.8;"/>
   </g>
   <g id="text_16">
    <!-- Call Count [OUT] Anomalies -->
    <defs>
     <path d="M 8.59375 75.984375 
L 29.296875 75.984375 
L 29.296875 69 
L 17.578125 69 
L 17.578125 -6.203125 
L 29.296875 -6.203125 
L 29.296875 -13.1875 
L 8.59375 -13.1875 
z
" id="DejaVuSans-91"/>
     <path d="M 39.40625 66.21875 
Q 28.65625 66.21875 22.328125 58.203125 
Q 16.015625 50.203125 16.015625 36.375 
Q 16.015625 22.609375 22.328125 14.59375 
Q 28.65625 6.59375 39.40625 6.59375 
Q 50.140625 6.59375 56.421875 14.59375 
Q 62.703125 22.609375 62.703125 36.375 
Q 62.703125 50.203125 56.421875 58.203125 
Q 50.140625 66.21875 39.40625 66.21875 
z
M 39.40625 74.21875 
Q 54.734375 74.21875 63.90625 63.9375 
Q 73.09375 53.65625 73.09375 36.375 
Q 73.09375 19.140625 63.90625 8.859375 
Q 54.734375 -1.421875 39.40625 -1.421875 
Q 24.03125 -1.421875 14.8125 8.828125 
Q 5.609375 19.09375 5.609375 36.375 
Q 5.609375 53.65625 14.8125 63.9375 
Q 24.03125 74.21875 39.40625 74.21875 
z
" id="DejaVuSans-79"/>
     <path d="M 8.6875 72.90625 
L 18.609375 72.90625 
L 18.609375 28.609375 
Q 18.609375 16.890625 22.84375 11.734375 
Q 27.09375 6.59375 36.625 6.59375 
Q 46.09375 6.59375 50.34375 11.734375 
Q 54.59375 16.890625 54.59375 28.609375 
L 54.59375 72.90625 
L 64.5 72.90625 
L 64.5 27.390625 
Q 64.5 13.140625 57.4375 5.859375 
Q 50.390625 -1.421875 36.625 -1.421875 
Q 22.796875 -1.421875 15.734375 5.859375 
Q 8.6875 13.140625 8.6875 27.390625 
z
" id="DejaVuSans-85"/>
     <path d="M 30.421875 75.984375 
L 30.421875 -13.1875 
L 9.71875 -13.1875 
L 9.71875 -6.203125 
L 21.390625 -6.203125 
L 21.390625 69 
L 9.71875 69 
L 9.71875 75.984375 
z
" id="DejaVuSans-93"/>
     <path d="M 34.1875 63.1875 
L 20.796875 26.90625 
L 47.609375 26.90625 
z
M 28.609375 72.90625 
L 39.796875 72.90625 
L 67.578125 0 
L 57.328125 0 
L 50.6875 18.703125 
L 17.828125 18.703125 
L 11.1875 0 
L 0.78125 0 
z
" id="DejaVuSans-65"/>
    </defs>
    <g transform="translate(285.549375 45.84)scale(0.12 -0.12)">
     <use xlink:href="#DejaVuSans-67"/>
     <use x="69.824219" xlink:href="#DejaVuSans-97"/>
     <use x="131.103516" xlink:href="#DejaVuSans-108"/>
     <use x="158.886719" xlink:href="#DejaVuSans-108"/>
     <use x="186.669922" xlink:href="#DejaVuSans-32"/>
     <use x="218.457031" xlink:href="#DejaVuSans-67"/>
     <use x="288.28125" xlink:href="#DejaVuSans-111"/>
     <use x="349.462891" xlink:href="#DejaVuSans-117"/>
     <use x="412.841797" xlink:href="#DejaVuSans-110"/>
     <use x="476.220703" xlink:href="#DejaVuSans-116"/>
     <use x="515.429688" xlink:href="#DejaVuSans-32"/>
     <use x="547.216797" xlink:href="#DejaVuSans-91"/>
     <use x="586.230469" xlink:href="#DejaVuSans-79"/>
     <use x="664.941406" xlink:href="#DejaVuSans-85"/>
     <use x="738.134766" xlink:href="#DejaVuSans-84"/>
     <use x="799.21875" xlink:href="#DejaVuSans-93"/>
     <use x="838.232422" xlink:href="#DejaVuSans-32"/>
     <use x="870.019531" xlink:href="#DejaVuSans-65"/>
     <use x="938.427734" xlink:href="#DejaVuSans-110"/>
     <use x="1001.806641" xlink:href="#DejaVuSans-111"/>
     <use x="1062.988281" xlink:href="#DejaVuSans-109"/>
     <use x="1160.400391" xlink:href="#DejaVuSans-97"/>
     <use x="1221.679688" xlink:href="#DejaVuSans-108"/>
     <use x="1249.462891" xlink:href="#DejaVuSans-105"/>
     <use x="1277.246094" xlink:href="#DejaVuSans-101"/>
     <use x="1338.769531" xlink:href="#DejaVuSans-115"/>
    </g>
   </g>
   <g id="legend_1">
    <g id="patch_7">
     <path d="M 565.1375 89.19625 
L 641 89.19625 
Q 643 89.19625 643 87.19625 
L 643 58.84 
Q 643 56.84 641 56.84 
L 565.1375 56.84 
Q 563.1375 56.84 563.1375 58.84 
L 563.1375 87.19625 
Q 563.1375 89.19625 565.1375 89.19625 
z
" style="fill:#ffffff;opacity:0.8;stroke:#cccccc;stroke-linejoin:miter;"/>
    </g>
    <g id="line2d_22">
     <path d="M 567.1375 64.938437 
L 587.1375 64.938437 
" style="fill:none;stroke:#0000ff;stroke-linecap:square;stroke-width:1.5;"/>
    </g>
    <g id="line2d_23"/>
    <g id="text_17">
     <!-- Normal -->
     <defs>
      <path d="M 9.8125 72.90625 
L 23.09375 72.90625 
L 55.421875 11.921875 
L 55.421875 72.90625 
L 64.984375 72.90625 
L 64.984375 0 
L 51.703125 0 
L 19.390625 60.984375 
L 19.390625 0 
L 9.8125 0 
z
" id="DejaVuSans-78"/>
      <path d="M 41.109375 46.296875 
Q 39.59375 47.171875 37.8125 47.578125 
Q 36.03125 48 33.890625 48 
Q 26.265625 48 22.1875 43.046875 
Q 18.109375 38.09375 18.109375 28.8125 
L 18.109375 0 
L 9.078125 0 
L 9.078125 54.6875 
L 18.109375 54.6875 
L 18.109375 46.1875 
Q 20.953125 51.171875 25.484375 53.578125 
Q 30.03125 56 36.53125 56 
Q 37.453125 56 38.578125 55.875 
Q 39.703125 55.765625 41.0625 55.515625 
z
" id="DejaVuSans-114"/>
     </defs>
     <g transform="translate(595.1375 68.438437)scale(0.1 -0.1)">
      <use xlink:href="#DejaVuSans-78"/>
      <use x="74.804688" xlink:href="#DejaVuSans-111"/>
      <use x="135.986328" xlink:href="#DejaVuSans-114"/>
      <use x="177.083984" xlink:href="#DejaVuSans-109"/>
      <use x="274.496094" xlink:href="#DejaVuSans-97"/>
      <use x="335.775391" xlink:href="#DejaVuSans-108"/>
     </g>
    </g>
    <g id="PathCollection_2">
     <g>
      <use style="fill:#ff0000;stroke:#ff0000;" x="577.1375" xlink:href="#m2bda49adeb" y="80.491562"/>
     </g>
    </g>
    <g id="text_18">
     <!-- Anomaly -->
     <defs>
      <path d="M 32.171875 -5.078125 
Q 28.375 -14.84375 24.75 -17.8125 
Q 21.140625 -20.796875 15.09375 -20.796875 
L 7.90625 -20.796875 
L 7.90625 -13.28125 
L 13.1875 -13.28125 
Q 16.890625 -13.28125 18.9375 -11.515625 
Q 21 -9.765625 23.484375 -3.21875 
L 25.09375 0.875 
L 2.984375 54.6875 
L 12.5 54.6875 
L 29.59375 11.921875 
L 46.6875 54.6875 
L 56.203125 54.6875 
z
" id="DejaVuSans-121"/>
     </defs>
     <g transform="translate(595.1375 83.116562)scale(0.1 -0.1)">
      <use xlink:href="#DejaVuSans-65"/>
      <use x="68.408203" xlink:href="#DejaVuSans-110"/>
      <use x="131.787109" xlink:href="#DejaVuSans-111"/>
      <use x="192.96875" xlink:href="#DejaVuSans-109"/>
      <use x="290.380859" xlink:href="#DejaVuSans-97"/>
      <use x="351.660156" xlink:href="#DejaVuSans-108"/>
      <use x="379.443359" xlink:href="#DejaVuSans-121"/>
     </g>
    </g>
   </g>
  </g>
 </g>
 <defs>
  <clipPath id="pbbb5cdc357">
   <rect height="326.16" width="558" x="90" y="51.84"/>
  </clipPath>
 </defs>
</svg>
