<?xml version="1.0" encoding="utf-8" standalone="no"?>
<!DOCTYPE svg PUBLIC "-//W3C//DTD SVG 1.1//EN"
  "http://www.w3.org/Graphics/SVG/1.1/DTD/svg11.dtd">
<!-- Created with matplotlib (https://matplotlib.org/) -->
<svg height="432pt" version="1.1" viewBox="0 0 720 432" width="720pt" xmlns="http://www.w3.org/2000/svg" xmlns:xlink="http://www.w3.org/1999/xlink">
 <defs>
  <style type="text/css">
*{stroke-linecap:butt;stroke-linejoin:round;}
  </style>
 </defs>
 <g id="figure_1">
  <g id="patch_1">
   <path d="M 0 432 
L 720 432 
L 720 0 
L 0 0 
z
" style="fill:#ffffff;"/>
  </g>
  <g id="axes_1">
   <g id="patch_2">
    <path d="M 90 378 
L 648 378 
L 648 51.84 
L 90 51.84 
z
" style="fill:#ffffff;"/>
   </g>
   <g id="PathCollection_1">
    <defs>
     <path d="M 0 3 
C 0.795609 3 1.55874 2.683901 2.12132 2.12132 
C 2.683901 1.55874 3 0.795609 3 0 
C 3 -0.795609 2.683901 -1.55874 2.12132 -2.12132 
C 1.55874 -2.683901 0.795609 -3 0 -3 
C -0.795609 -3 -1.55874 -2.683901 -2.12132 -2.12132 
C -2.683901 -1.55874 -3 -0.795609 -3 0 
C -3 0.795609 -2.683901 1.55874 -2.12132 2.12132 
C -1.55874 2.683901 -0.795609 3 0 3 
z
" id="ma367c4bac2" style="stroke:#ff0000;"/>
    </defs>
    <g clip-path="url(#p0fc5fd6691)">
     <use style="fill:#ff0000;stroke:#ff0000;" x="164.672361" xlink:href="#ma367c4bac2" y="360.234048"/>
     <use style="fill:#ff0000;stroke:#ff0000;" x="164.729103" xlink:href="#ma367c4bac2" y="360.234048"/>
     <use style="fill:#ff0000;stroke:#ff0000;" x="165.296522" xlink:href="#ma367c4bac2" y="360.234048"/>
     <use style="fill:#ff0000;stroke:#ff0000;" x="211.995119" xlink:href="#ma367c4bac2" y="359.831181"/>
     <use style="fill:#ff0000;stroke:#ff0000;" x="261.871263" xlink:href="#ma367c4bac2" y="359.831181"/>
     <use style="fill:#ff0000;stroke:#ff0000;" x="261.928005" xlink:href="#ma367c4bac2" y="360.072901"/>
     <use style="fill:#ff0000;stroke:#ff0000;" x="336.657108" xlink:href="#ma367c4bac2" y="76.696408"/>
     <use style="fill:#ff0000;stroke:#ff0000;" x="363.893228" xlink:href="#ma367c4bac2" y="74.762647"/>
     <use style="fill:#ff0000;stroke:#ff0000;" x="371.66687" xlink:href="#ma367c4bac2" y="360.072901"/>
     <use style="fill:#ff0000;stroke:#ff0000;" x="371.723612" xlink:href="#ma367c4bac2" y="360.072901"/>
     <use style="fill:#ff0000;stroke:#ff0000;" x="377.511287" xlink:href="#ma367c4bac2" y="69.605952"/>
     <use style="fill:#ff0000;stroke:#ff0000;" x="404.747407" xlink:href="#ma367c4bac2" y="91.763625"/>
     <use style="fill:#ff0000;stroke:#ff0000;" x="405.938987" xlink:href="#ma367c4bac2" y="360.072901"/>
     <use style="fill:#ff0000;stroke:#ff0000;" x="418.365467" xlink:href="#ma367c4bac2" y="80.886222"/>
    </g>
   </g>
   <g id="matplotlib.axis_1">
    <g id="xtick_1">
     <g id="line2d_1">
      <defs>
       <path d="M 0 0 
L 0 3.5 
" id="m5be4268b3a" style="stroke:#000000;stroke-width:0.8;"/>
      </defs>
      <g>
       <use style="stroke:#000000;stroke-width:0.8;" x="98.341062" xlink:href="#m5be4268b3a" y="378"/>
      </g>
     </g>
     <g id="text_1">
      <!-- 27 21 -->
      <defs>
       <path d="M 19.1875 8.296875 
L 53.609375 8.296875 
L 53.609375 0 
L 7.328125 0 
L 7.328125 8.296875 
Q 12.9375 14.109375 22.625 23.890625 
Q 32.328125 33.6875 34.8125 36.53125 
Q 39.546875 41.84375 41.421875 45.53125 
Q 43.3125 49.21875 43.3125 52.78125 
Q 43.3125 58.59375 39.234375 62.25 
Q 35.15625 65.921875 28.609375 65.921875 
Q 23.96875 65.921875 18.8125 64.3125 
Q 13.671875 62.703125 7.8125 59.421875 
L 7.8125 69.390625 
Q 13.765625 71.78125 18.9375 73 
Q 24.125 74.21875 28.421875 74.21875 
Q 39.75 74.21875 46.484375 68.546875 
Q 53.21875 62.890625 53.21875 53.421875 
Q 53.21875 48.921875 51.53125 44.890625 
Q 49.859375 40.875 45.40625 35.40625 
Q 44.1875 33.984375 37.640625 27.21875 
Q 31.109375 20.453125 19.1875 8.296875 
z
" id="DejaVuSans-50"/>
       <path d="M 8.203125 72.90625 
L 55.078125 72.90625 
L 55.078125 68.703125 
L 28.609375 0 
L 18.3125 0 
L 43.21875 64.59375 
L 8.203125 64.59375 
z
" id="DejaVuSans-55"/>
       <path id="DejaVuSans-32"/>
       <path d="M 12.40625 8.296875 
L 28.515625 8.296875 
L 28.515625 63.921875 
L 10.984375 60.40625 
L 10.984375 69.390625 
L 28.421875 72.90625 
L 38.28125 72.90625 
L 38.28125 8.296875 
L 54.390625 8.296875 
L 54.390625 0 
L 12.40625 0 
z
" id="DejaVuSans-49"/>
      </defs>
      <g transform="translate(84.026999 392.598437)scale(0.1 -0.1)">
       <use xlink:href="#DejaVuSans-50"/>
       <use x="63.623047" xlink:href="#DejaVuSans-55"/>
       <use x="127.246094" xlink:href="#DejaVuSans-32"/>
       <use x="159.033203" xlink:href="#DejaVuSans-50"/>
       <use x="222.65625" xlink:href="#DejaVuSans-49"/>
      </g>
     </g>
    </g>
    <g id="xtick_2">
     <g id="line2d_2">
      <g>
       <use style="stroke:#000000;stroke-width:0.8;" x="180.04942" xlink:href="#m5be4268b3a" y="378"/>
      </g>
     </g>
     <g id="text_2">
      <!-- 28 03 -->
      <defs>
       <path d="M 31.78125 34.625 
Q 24.75 34.625 20.71875 30.859375 
Q 16.703125 27.09375 16.703125 20.515625 
Q 16.703125 13.921875 20.71875 10.15625 
Q 24.75 6.390625 31.78125 6.390625 
Q 38.8125 6.390625 42.859375 10.171875 
Q 46.921875 13.96875 46.921875 20.515625 
Q 46.921875 27.09375 42.890625 30.859375 
Q 38.875 34.625 31.78125 34.625 
z
M 21.921875 38.8125 
Q 15.578125 40.375 12.03125 44.71875 
Q 8.5 49.078125 8.5 55.328125 
Q 8.5 64.0625 14.71875 69.140625 
Q 20.953125 74.21875 31.78125 74.21875 
Q 42.671875 74.21875 48.875 69.140625 
Q 55.078125 64.0625 55.078125 55.328125 
Q 55.078125 49.078125 51.53125 44.71875 
Q 48 40.375 41.703125 38.8125 
Q 48.828125 37.15625 52.796875 32.3125 
Q 56.78125 27.484375 56.78125 20.515625 
Q 56.78125 9.90625 50.3125 4.234375 
Q 43.84375 -1.421875 31.78125 -1.421875 
Q 19.734375 -1.421875 13.25 4.234375 
Q 6.78125 9.90625 6.78125 20.515625 
Q 6.78125 27.484375 10.78125 32.3125 
Q 14.796875 37.15625 21.921875 38.8125 
z
M 18.3125 54.390625 
Q 18.3125 48.734375 21.84375 45.5625 
Q 25.390625 42.390625 31.78125 42.390625 
Q 38.140625 42.390625 41.71875 45.5625 
Q 45.3125 48.734375 45.3125 54.390625 
Q 45.3125 60.0625 41.71875 63.234375 
Q 38.140625 66.40625 31.78125 66.40625 
Q 25.390625 66.40625 21.84375 63.234375 
Q 18.3125 60.0625 18.3125 54.390625 
z
" id="DejaVuSans-56"/>
       <path d="M 31.78125 66.40625 
Q 24.171875 66.40625 20.328125 58.90625 
Q 16.5 51.421875 16.5 36.375 
Q 16.5 21.390625 20.328125 13.890625 
Q 24.171875 6.390625 31.78125 6.390625 
Q 39.453125 6.390625 43.28125 13.890625 
Q 47.125 21.390625 47.125 36.375 
Q 47.125 51.421875 43.28125 58.90625 
Q 39.453125 66.40625 31.78125 66.40625 
z
M 31.78125 74.21875 
Q 44.046875 74.21875 50.515625 64.515625 
Q 56.984375 54.828125 56.984375 36.375 
Q 56.984375 17.96875 50.515625 8.265625 
Q 44.046875 -1.421875 31.78125 -1.421875 
Q 19.53125 -1.421875 13.0625 8.265625 
Q 6.59375 17.96875 6.59375 36.375 
Q 6.59375 54.828125 13.0625 64.515625 
Q 19.53125 74.21875 31.78125 74.21875 
z
" id="DejaVuSans-48"/>
       <path d="M 40.578125 39.3125 
Q 47.65625 37.796875 51.625 33 
Q 55.609375 28.21875 55.609375 21.1875 
Q 55.609375 10.40625 48.1875 4.484375 
Q 40.765625 -1.421875 27.09375 -1.421875 
Q 22.515625 -1.421875 17.65625 -0.515625 
Q 12.796875 0.390625 7.625 2.203125 
L 7.625 11.71875 
Q 11.71875 9.328125 16.59375 8.109375 
Q 21.484375 6.890625 26.8125 6.890625 
Q 36.078125 6.890625 40.9375 10.546875 
Q 45.796875 14.203125 45.796875 21.1875 
Q 45.796875 27.640625 41.28125 31.265625 
Q 36.765625 34.90625 28.71875 34.90625 
L 20.21875 34.90625 
L 20.21875 43.015625 
L 29.109375 43.015625 
Q 36.375 43.015625 40.234375 45.921875 
Q 44.09375 48.828125 44.09375 54.296875 
Q 44.09375 59.90625 40.109375 62.90625 
Q 36.140625 65.921875 28.71875 65.921875 
Q 24.65625 65.921875 20.015625 65.03125 
Q 15.375 64.15625 9.8125 62.3125 
L 9.8125 71.09375 
Q 15.4375 72.65625 20.34375 73.4375 
Q 25.25 74.21875 29.59375 74.21875 
Q 40.828125 74.21875 47.359375 69.109375 
Q 53.90625 64.015625 53.90625 55.328125 
Q 53.90625 49.265625 50.4375 45.09375 
Q 46.96875 40.921875 40.578125 39.3125 
z
" id="DejaVuSans-51"/>
      </defs>
      <g transform="translate(165.735358 392.598437)scale(0.1 -0.1)">
       <use xlink:href="#DejaVuSans-50"/>
       <use x="63.623047" xlink:href="#DejaVuSans-56"/>
       <use x="127.246094" xlink:href="#DejaVuSans-32"/>
       <use x="159.033203" xlink:href="#DejaVuSans-48"/>
       <use x="222.65625" xlink:href="#DejaVuSans-51"/>
      </g>
     </g>
    </g>
    <g id="xtick_3">
     <g id="line2d_3">
      <g>
       <use style="stroke:#000000;stroke-width:0.8;" x="261.757779" xlink:href="#m5be4268b3a" y="378"/>
      </g>
     </g>
     <g id="text_3">
      <!-- 28 09 -->
      <defs>
       <path d="M 10.984375 1.515625 
L 10.984375 10.5 
Q 14.703125 8.734375 18.5 7.8125 
Q 22.3125 6.890625 25.984375 6.890625 
Q 35.75 6.890625 40.890625 13.453125 
Q 46.046875 20.015625 46.78125 33.40625 
Q 43.953125 29.203125 39.59375 26.953125 
Q 35.25 24.703125 29.984375 24.703125 
Q 19.046875 24.703125 12.671875 31.3125 
Q 6.296875 37.9375 6.296875 49.421875 
Q 6.296875 60.640625 12.9375 67.421875 
Q 19.578125 74.21875 30.609375 74.21875 
Q 43.265625 74.21875 49.921875 64.515625 
Q 56.59375 54.828125 56.59375 36.375 
Q 56.59375 19.140625 48.40625 8.859375 
Q 40.234375 -1.421875 26.421875 -1.421875 
Q 22.703125 -1.421875 18.890625 -0.6875 
Q 15.09375 0.046875 10.984375 1.515625 
z
M 30.609375 32.421875 
Q 37.25 32.421875 41.125 36.953125 
Q 45.015625 41.5 45.015625 49.421875 
Q 45.015625 57.28125 41.125 61.84375 
Q 37.25 66.40625 30.609375 66.40625 
Q 23.96875 66.40625 20.09375 61.84375 
Q 16.21875 57.28125 16.21875 49.421875 
Q 16.21875 41.5 20.09375 36.953125 
Q 23.96875 32.421875 30.609375 32.421875 
z
" id="DejaVuSans-57"/>
      </defs>
      <g transform="translate(247.443717 392.598437)scale(0.1 -0.1)">
       <use xlink:href="#DejaVuSans-50"/>
       <use x="63.623047" xlink:href="#DejaVuSans-56"/>
       <use x="127.246094" xlink:href="#DejaVuSans-32"/>
       <use x="159.033203" xlink:href="#DejaVuSans-48"/>
       <use x="222.65625" xlink:href="#DejaVuSans-57"/>
      </g>
     </g>
    </g>
    <g id="xtick_4">
     <g id="line2d_4">
      <g>
       <use style="stroke:#000000;stroke-width:0.8;" x="343.466138" xlink:href="#m5be4268b3a" y="378"/>
      </g>
     </g>
     <g id="text_4">
      <!-- 28 15 -->
      <defs>
       <path d="M 10.796875 72.90625 
L 49.515625 72.90625 
L 49.515625 64.59375 
L 19.828125 64.59375 
L 19.828125 46.734375 
Q 21.96875 47.46875 24.109375 47.828125 
Q 26.265625 48.1875 28.421875 48.1875 
Q 40.625 48.1875 47.75 41.5 
Q 54.890625 34.8125 54.890625 23.390625 
Q 54.890625 11.625 47.5625 5.09375 
Q 40.234375 -1.421875 26.90625 -1.421875 
Q 22.3125 -1.421875 17.546875 -0.640625 
Q 12.796875 0.140625 7.71875 1.703125 
L 7.71875 11.625 
Q 12.109375 9.234375 16.796875 8.0625 
Q 21.484375 6.890625 26.703125 6.890625 
Q 35.15625 6.890625 40.078125 11.328125 
Q 45.015625 15.765625 45.015625 23.390625 
Q 45.015625 31 40.078125 35.4375 
Q 35.15625 39.890625 26.703125 39.890625 
Q 22.75 39.890625 18.8125 39.015625 
Q 14.890625 38.140625 10.796875 36.28125 
z
" id="DejaVuSans-53"/>
      </defs>
      <g transform="translate(329.152075 392.598437)scale(0.1 -0.1)">
       <use xlink:href="#DejaVuSans-50"/>
       <use x="63.623047" xlink:href="#DejaVuSans-56"/>
       <use x="127.246094" xlink:href="#DejaVuSans-32"/>
       <use x="159.033203" xlink:href="#DejaVuSans-49"/>
       <use x="222.65625" xlink:href="#DejaVuSans-53"/>
      </g>
     </g>
    </g>
    <g id="xtick_5">
     <g id="line2d_5">
      <g>
       <use style="stroke:#000000;stroke-width:0.8;" x="425.174497" xlink:href="#m5be4268b3a" y="378"/>
      </g>
     </g>
     <g id="text_5">
      <!-- 28 21 -->
      <g transform="translate(410.860434 392.598437)scale(0.1 -0.1)">
       <use xlink:href="#DejaVuSans-50"/>
       <use x="63.623047" xlink:href="#DejaVuSans-56"/>
       <use x="127.246094" xlink:href="#DejaVuSans-32"/>
       <use x="159.033203" xlink:href="#DejaVuSans-50"/>
       <use x="222.65625" xlink:href="#DejaVuSans-49"/>
      </g>
     </g>
    </g>
    <g id="xtick_6">
     <g id="line2d_6">
      <g>
       <use style="stroke:#000000;stroke-width:0.8;" x="506.882855" xlink:href="#m5be4268b3a" y="378"/>
      </g>
     </g>
     <g id="text_6">
      <!-- 29 03 -->
      <g transform="translate(492.568793 392.598437)scale(0.1 -0.1)">
       <use xlink:href="#DejaVuSans-50"/>
       <use x="63.623047" xlink:href="#DejaVuSans-57"/>
       <use x="127.246094" xlink:href="#DejaVuSans-32"/>
       <use x="159.033203" xlink:href="#DejaVuSans-48"/>
       <use x="222.65625" xlink:href="#DejaVuSans-51"/>
      </g>
     </g>
    </g>
    <g id="xtick_7">
     <g id="line2d_7">
      <g>
       <use style="stroke:#000000;stroke-width:0.8;" x="588.591214" xlink:href="#m5be4268b3a" y="378"/>
      </g>
     </g>
     <g id="text_7">
      <!-- 29 09 -->
      <g transform="translate(574.277152 392.598437)scale(0.1 -0.1)">
       <use xlink:href="#DejaVuSans-50"/>
       <use x="63.623047" xlink:href="#DejaVuSans-57"/>
       <use x="127.246094" xlink:href="#DejaVuSans-32"/>
       <use x="159.033203" xlink:href="#DejaVuSans-48"/>
       <use x="222.65625" xlink:href="#DejaVuSans-57"/>
      </g>
     </g>
    </g>
    <g id="xtick_8">
     <g id="line2d_8">
      <defs>
       <path d="M 0 0 
L 0 2 
" id="mf29c9bea4b" style="stroke:#000000;stroke-width:0.6;"/>
      </defs>
      <g>
       <use style="stroke:#000000;stroke-width:0.6;" x="98.341062" xlink:href="#mf29c9bea4b" y="378"/>
      </g>
     </g>
    </g>
    <g id="xtick_9">
     <g id="line2d_9">
      <g>
       <use style="stroke:#000000;stroke-width:0.6;" x="180.04942" xlink:href="#mf29c9bea4b" y="378"/>
      </g>
     </g>
    </g>
    <g id="xtick_10">
     <g id="line2d_10">
      <g>
       <use style="stroke:#000000;stroke-width:0.6;" x="261.757779" xlink:href="#mf29c9bea4b" y="378"/>
      </g>
     </g>
    </g>
    <g id="xtick_11">
     <g id="line2d_11">
      <g>
       <use style="stroke:#000000;stroke-width:0.6;" x="343.466138" xlink:href="#mf29c9bea4b" y="378"/>
      </g>
     </g>
    </g>
    <g id="xtick_12">
     <g id="line2d_12">
      <g>
       <use style="stroke:#000000;stroke-width:0.6;" x="425.174497" xlink:href="#mf29c9bea4b" y="378"/>
      </g>
     </g>
    </g>
    <g id="xtick_13">
     <g id="line2d_13">
      <g>
       <use style="stroke:#000000;stroke-width:0.6;" x="506.882855" xlink:href="#mf29c9bea4b" y="378"/>
      </g>
     </g>
    </g>
    <g id="xtick_14">
     <g id="line2d_14">
      <g>
       <use style="stroke:#000000;stroke-width:0.6;" x="588.591214" xlink:href="#mf29c9bea4b" y="378"/>
      </g>
     </g>
    </g>
    <g id="text_8">
     <!-- Timestamp -->
     <defs>
      <path d="M -0.296875 72.90625 
L 61.375 72.90625 
L 61.375 64.59375 
L 35.5 64.59375 
L 35.5 0 
L 25.59375 0 
L 25.59375 64.59375 
L -0.296875 64.59375 
z
" id="DejaVuSans-84"/>
      <path d="M 9.421875 54.6875 
L 18.40625 54.6875 
L 18.40625 0 
L 9.421875 0 
z
M 9.421875 75.984375 
L 18.40625 75.984375 
L 18.40625 64.59375 
L 9.421875 64.59375 
z
" id="DejaVuSans-105"/>
      <path d="M 52 44.1875 
Q 55.375 50.25 60.0625 53.125 
Q 64.75 56 71.09375 56 
Q 79.640625 56 84.28125 50.015625 
Q 88.921875 44.046875 88.921875 33.015625 
L 88.921875 0 
L 79.890625 0 
L 79.890625 32.71875 
Q 79.890625 40.578125 77.09375 44.375 
Q 74.3125 48.1875 68.609375 48.1875 
Q 61.625 48.1875 57.5625 43.546875 
Q 53.515625 38.921875 53.515625 30.90625 
L 53.515625 0 
L 44.484375 0 
L 44.484375 32.71875 
Q 44.484375 40.625 41.703125 44.40625 
Q 38.921875 48.1875 33.109375 48.1875 
Q 26.21875 48.1875 22.15625 43.53125 
Q 18.109375 38.875 18.109375 30.90625 
L 18.109375 0 
L 9.078125 0 
L 9.078125 54.6875 
L 18.109375 54.6875 
L 18.109375 46.1875 
Q 21.1875 51.21875 25.484375 53.609375 
Q 29.78125 56 35.6875 56 
Q 41.65625 56 45.828125 52.96875 
Q 50 49.953125 52 44.1875 
z
" id="DejaVuSans-109"/>
      <path d="M 56.203125 29.59375 
L 56.203125 25.203125 
L 14.890625 25.203125 
Q 15.484375 15.921875 20.484375 11.0625 
Q 25.484375 6.203125 34.421875 6.203125 
Q 39.59375 6.203125 44.453125 7.46875 
Q 49.3125 8.734375 54.109375 11.28125 
L 54.109375 2.78125 
Q 49.265625 0.734375 44.1875 -0.34375 
Q 39.109375 -1.421875 33.890625 -1.421875 
Q 20.796875 -1.421875 13.15625 6.1875 
Q 5.515625 13.8125 5.515625 26.8125 
Q 5.515625 40.234375 12.765625 48.109375 
Q 20.015625 56 32.328125 56 
Q 43.359375 56 49.78125 48.890625 
Q 56.203125 41.796875 56.203125 29.59375 
z
M 47.21875 32.234375 
Q 47.125 39.59375 43.09375 43.984375 
Q 39.0625 48.390625 32.421875 48.390625 
Q 24.90625 48.390625 20.390625 44.140625 
Q 15.875 39.890625 15.1875 32.171875 
z
" id="DejaVuSans-101"/>
      <path d="M 44.28125 53.078125 
L 44.28125 44.578125 
Q 40.484375 46.53125 36.375 47.5 
Q 32.28125 48.484375 27.875 48.484375 
Q 21.1875 48.484375 17.84375 46.4375 
Q 14.5 44.390625 14.5 40.28125 
Q 14.5 37.15625 16.890625 35.375 
Q 19.28125 33.59375 26.515625 31.984375 
L 29.59375 31.296875 
Q 39.15625 29.25 43.1875 25.515625 
Q 47.21875 21.78125 47.21875 15.09375 
Q 47.21875 7.46875 41.1875 3.015625 
Q 35.15625 -1.421875 24.609375 -1.421875 
Q 20.21875 -1.421875 15.453125 -0.5625 
Q 10.6875 0.296875 5.421875 2 
L 5.421875 11.28125 
Q 10.40625 8.6875 15.234375 7.390625 
Q 20.0625 6.109375 24.8125 6.109375 
Q 31.15625 6.109375 34.5625 8.28125 
Q 37.984375 10.453125 37.984375 14.40625 
Q 37.984375 18.0625 35.515625 20.015625 
Q 33.0625 21.96875 24.703125 23.78125 
L 21.578125 24.515625 
Q 13.234375 26.265625 9.515625 29.90625 
Q 5.8125 33.546875 5.8125 39.890625 
Q 5.8125 47.609375 11.28125 51.796875 
Q 16.75 56 26.8125 56 
Q 31.78125 56 36.171875 55.265625 
Q 40.578125 54.546875 44.28125 53.078125 
z
" id="DejaVuSans-115"/>
      <path d="M 18.3125 70.21875 
L 18.3125 54.6875 
L 36.8125 54.6875 
L 36.8125 47.703125 
L 18.3125 47.703125 
L 18.3125 18.015625 
Q 18.3125 11.328125 20.140625 9.421875 
Q 21.96875 7.515625 27.59375 7.515625 
L 36.8125 7.515625 
L 36.8125 0 
L 27.59375 0 
Q 17.1875 0 13.234375 3.875 
Q 9.28125 7.765625 9.28125 18.015625 
L 9.28125 47.703125 
L 2.6875 47.703125 
L 2.6875 54.6875 
L 9.28125 54.6875 
L 9.28125 70.21875 
z
" id="DejaVuSans-116"/>
      <path d="M 34.28125 27.484375 
Q 23.390625 27.484375 19.1875 25 
Q 14.984375 22.515625 14.984375 16.5 
Q 14.984375 11.71875 18.140625 8.90625 
Q 21.296875 6.109375 26.703125 6.109375 
Q 34.1875 6.109375 38.703125 11.40625 
Q 43.21875 16.703125 43.21875 25.484375 
L 43.21875 27.484375 
z
M 52.203125 31.203125 
L 52.203125 0 
L 43.21875 0 
L 43.21875 8.296875 
Q 40.140625 3.328125 35.546875 0.953125 
Q 30.953125 -1.421875 24.3125 -1.421875 
Q 15.921875 -1.421875 10.953125 3.296875 
Q 6 8.015625 6 15.921875 
Q 6 25.140625 12.171875 29.828125 
Q 18.359375 34.515625 30.609375 34.515625 
L 43.21875 34.515625 
L 43.21875 35.40625 
Q 43.21875 41.609375 39.140625 45 
Q 35.0625 48.390625 27.6875 48.390625 
Q 23 48.390625 18.546875 47.265625 
Q 14.109375 46.140625 10.015625 43.890625 
L 10.015625 52.203125 
Q 14.9375 54.109375 19.578125 55.046875 
Q 24.21875 56 28.609375 56 
Q 40.484375 56 46.34375 49.84375 
Q 52.203125 43.703125 52.203125 31.203125 
z
" id="DejaVuSans-97"/>
      <path d="M 18.109375 8.203125 
L 18.109375 -20.796875 
L 9.078125 -20.796875 
L 9.078125 54.6875 
L 18.109375 54.6875 
L 18.109375 46.390625 
Q 20.953125 51.265625 25.265625 53.625 
Q 29.59375 56 35.59375 56 
Q 45.5625 56 51.78125 48.09375 
Q 58.015625 40.1875 58.015625 27.296875 
Q 58.015625 14.40625 51.78125 6.484375 
Q 45.5625 -1.421875 35.59375 -1.421875 
Q 29.59375 -1.421875 25.265625 0.953125 
Q 20.953125 3.328125 18.109375 8.203125 
z
M 48.6875 27.296875 
Q 48.6875 37.203125 44.609375 42.84375 
Q 40.53125 48.484375 33.40625 48.484375 
Q 26.265625 48.484375 22.1875 42.84375 
Q 18.109375 37.203125 18.109375 27.296875 
Q 18.109375 17.390625 22.1875 11.75 
Q 26.265625 6.109375 33.40625 6.109375 
Q 40.53125 6.109375 44.609375 11.75 
Q 48.6875 17.390625 48.6875 27.296875 
z
" id="DejaVuSans-112"/>
     </defs>
     <g transform="translate(340.939062 406.276563)scale(0.1 -0.1)">
      <use xlink:href="#DejaVuSans-84"/>
      <use x="61.037109" xlink:href="#DejaVuSans-105"/>
      <use x="88.820312" xlink:href="#DejaVuSans-109"/>
      <use x="186.232422" xlink:href="#DejaVuSans-101"/>
      <use x="247.755859" xlink:href="#DejaVuSans-115"/>
      <use x="299.855469" xlink:href="#DejaVuSans-116"/>
      <use x="339.064453" xlink:href="#DejaVuSans-97"/>
      <use x="400.34375" xlink:href="#DejaVuSans-109"/>
      <use x="497.755859" xlink:href="#DejaVuSans-112"/>
     </g>
    </g>
   </g>
   <g id="matplotlib.axis_2">
    <g id="ytick_1">
     <g id="line2d_15">
      <defs>
       <path d="M 0 0 
L -3.5 0 
" id="mccd3b1cdbc" style="stroke:#000000;stroke-width:0.8;"/>
      </defs>
      <g>
       <use style="stroke:#000000;stroke-width:0.8;" x="90" xlink:href="#mccd3b1cdbc" y="360.314621"/>
      </g>
     </g>
     <g id="text_9">
      <!-- 0 -->
      <g transform="translate(76.6375 364.11384)scale(0.1 -0.1)">
       <use xlink:href="#DejaVuSans-48"/>
      </g>
     </g>
    </g>
    <g id="ytick_2">
     <g id="line2d_16">
      <g>
       <use style="stroke:#000000;stroke-width:0.8;" x="90" xlink:href="#mccd3b1cdbc" y="320.027943"/>
      </g>
     </g>
     <g id="text_10">
      <!-- 500 -->
      <g transform="translate(63.9125 323.827162)scale(0.1 -0.1)">
       <use xlink:href="#DejaVuSans-53"/>
       <use x="63.623047" xlink:href="#DejaVuSans-48"/>
       <use x="127.246094" xlink:href="#DejaVuSans-48"/>
      </g>
     </g>
    </g>
    <g id="ytick_3">
     <g id="line2d_17">
      <g>
       <use style="stroke:#000000;stroke-width:0.8;" x="90" xlink:href="#mccd3b1cdbc" y="279.741265"/>
      </g>
     </g>
     <g id="text_11">
      <!-- 1000 -->
      <g transform="translate(57.55 283.540484)scale(0.1 -0.1)">
       <use xlink:href="#DejaVuSans-49"/>
       <use x="63.623047" xlink:href="#DejaVuSans-48"/>
       <use x="127.246094" xlink:href="#DejaVuSans-48"/>
       <use x="190.869141" xlink:href="#DejaVuSans-48"/>
      </g>
     </g>
    </g>
    <g id="ytick_4">
     <g id="line2d_18">
      <g>
       <use style="stroke:#000000;stroke-width:0.8;" x="90" xlink:href="#mccd3b1cdbc" y="239.454587"/>
      </g>
     </g>
     <g id="text_12">
      <!-- 1500 -->
      <g transform="translate(57.55 243.253806)scale(0.1 -0.1)">
       <use xlink:href="#DejaVuSans-49"/>
       <use x="63.623047" xlink:href="#DejaVuSans-53"/>
       <use x="127.246094" xlink:href="#DejaVuSans-48"/>
       <use x="190.869141" xlink:href="#DejaVuSans-48"/>
      </g>
     </g>
    </g>
    <g id="ytick_5">
     <g id="line2d_19">
      <g>
       <use style="stroke:#000000;stroke-width:0.8;" x="90" xlink:href="#mccd3b1cdbc" y="199.167909"/>
      </g>
     </g>
     <g id="text_13">
      <!-- 2000 -->
      <g transform="translate(57.55 202.967128)scale(0.1 -0.1)">
       <use xlink:href="#DejaVuSans-50"/>
       <use x="63.623047" xlink:href="#DejaVuSans-48"/>
       <use x="127.246094" xlink:href="#DejaVuSans-48"/>
       <use x="190.869141" xlink:href="#DejaVuSans-48"/>
      </g>
     </g>
    </g>
    <g id="ytick_6">
     <g id="line2d_20">
      <g>
       <use style="stroke:#000000;stroke-width:0.8;" x="90" xlink:href="#mccd3b1cdbc" y="158.881231"/>
      </g>
     </g>
     <g id="text_14">
      <!-- 2500 -->
      <g transform="translate(57.55 162.68045)scale(0.1 -0.1)">
       <use xlink:href="#DejaVuSans-50"/>
       <use x="63.623047" xlink:href="#DejaVuSans-53"/>
       <use x="127.246094" xlink:href="#DejaVuSans-48"/>
       <use x="190.869141" xlink:href="#DejaVuSans-48"/>
      </g>
     </g>
    </g>
    <g id="ytick_7">
     <g id="line2d_21">
      <g>
       <use style="stroke:#000000;stroke-width:0.8;" x="90" xlink:href="#mccd3b1cdbc" y="118.594553"/>
      </g>
     </g>
     <g id="text_15">
      <!-- 3000 -->
      <g transform="translate(57.55 122.393771)scale(0.1 -0.1)">
       <use xlink:href="#DejaVuSans-51"/>
       <use x="63.623047" xlink:href="#DejaVuSans-48"/>
       <use x="127.246094" xlink:href="#DejaVuSans-48"/>
       <use x="190.869141" xlink:href="#DejaVuSans-48"/>
      </g>
     </g>
    </g>
    <g id="ytick_8">
     <g id="line2d_22">
      <g>
       <use style="stroke:#000000;stroke-width:0.8;" x="90" xlink:href="#mccd3b1cdbc" y="78.307875"/>
      </g>
     </g>
     <g id="text_16">
      <!-- 3500 -->
      <g transform="translate(57.55 82.107093)scale(0.1 -0.1)">
       <use xlink:href="#DejaVuSans-51"/>
       <use x="63.623047" xlink:href="#DejaVuSans-53"/>
       <use x="127.246094" xlink:href="#DejaVuSans-48"/>
       <use x="190.869141" xlink:href="#DejaVuSans-48"/>
      </g>
     </g>
    </g>
    <g id="text_17">
     <!-- Call count -->
     <defs>
      <path d="M 64.40625 67.28125 
L 64.40625 56.890625 
Q 59.421875 61.53125 53.78125 63.8125 
Q 48.140625 66.109375 41.796875 66.109375 
Q 29.296875 66.109375 22.65625 58.46875 
Q 16.015625 50.828125 16.015625 36.375 
Q 16.015625 21.96875 22.65625 14.328125 
Q 29.296875 6.6875 41.796875 6.6875 
Q 48.140625 6.6875 53.78125 8.984375 
Q 59.421875 11.28125 64.40625 15.921875 
L 64.40625 5.609375 
Q 59.234375 2.09375 53.4375 0.328125 
Q 47.65625 -1.421875 41.21875 -1.421875 
Q 24.65625 -1.421875 15.125 8.703125 
Q 5.609375 18.84375 5.609375 36.375 
Q 5.609375 53.953125 15.125 64.078125 
Q 24.65625 74.21875 41.21875 74.21875 
Q 47.75 74.21875 53.53125 72.484375 
Q 59.328125 70.75 64.40625 67.28125 
z
" id="DejaVuSans-67"/>
      <path d="M 9.421875 75.984375 
L 18.40625 75.984375 
L 18.40625 0 
L 9.421875 0 
z
" id="DejaVuSans-108"/>
      <path d="M 48.78125 52.59375 
L 48.78125 44.1875 
Q 44.96875 46.296875 41.140625 47.34375 
Q 37.3125 48.390625 33.40625 48.390625 
Q 24.65625 48.390625 19.8125 42.84375 
Q 14.984375 37.3125 14.984375 27.296875 
Q 14.984375 17.28125 19.8125 11.734375 
Q 24.65625 6.203125 33.40625 6.203125 
Q 37.3125 6.203125 41.140625 7.25 
Q 44.96875 8.296875 48.78125 10.40625 
L 48.78125 2.09375 
Q 45.015625 0.34375 40.984375 -0.53125 
Q 36.96875 -1.421875 32.421875 -1.421875 
Q 20.0625 -1.421875 12.78125 6.34375 
Q 5.515625 14.109375 5.515625 27.296875 
Q 5.515625 40.671875 12.859375 48.328125 
Q 20.21875 56 33.015625 56 
Q 37.15625 56 41.109375 55.140625 
Q 45.0625 54.296875 48.78125 52.59375 
z
" id="DejaVuSans-99"/>
      <path d="M 30.609375 48.390625 
Q 23.390625 48.390625 19.1875 42.75 
Q 14.984375 37.109375 14.984375 27.296875 
Q 14.984375 17.484375 19.15625 11.84375 
Q 23.34375 6.203125 30.609375 6.203125 
Q 37.796875 6.203125 41.984375 11.859375 
Q 46.1875 17.53125 46.1875 27.296875 
Q 46.1875 37.015625 41.984375 42.703125 
Q 37.796875 48.390625 30.609375 48.390625 
z
M 30.609375 56 
Q 42.328125 56 49.015625 48.375 
Q 55.71875 40.765625 55.71875 27.296875 
Q 55.71875 13.875 49.015625 6.21875 
Q 42.328125 -1.421875 30.609375 -1.421875 
Q 18.84375 -1.421875 12.171875 6.21875 
Q 5.515625 13.875 5.515625 27.296875 
Q 5.515625 40.765625 12.171875 48.375 
Q 18.84375 56 30.609375 56 
z
" id="DejaVuSans-111"/>
      <path d="M 8.5 21.578125 
L 8.5 54.6875 
L 17.484375 54.6875 
L 17.484375 21.921875 
Q 17.484375 14.15625 20.5 10.265625 
Q 23.53125 6.390625 29.59375 6.390625 
Q 36.859375 6.390625 41.078125 11.03125 
Q 45.3125 15.671875 45.3125 23.6875 
L 45.3125 54.6875 
L 54.296875 54.6875 
L 54.296875 0 
L 45.3125 0 
L 45.3125 8.40625 
Q 42.046875 3.421875 37.71875 1 
Q 33.40625 -1.421875 27.6875 -1.421875 
Q 18.265625 -1.421875 13.375 4.4375 
Q 8.5 10.296875 8.5 21.578125 
z
M 31.109375 56 
z
" id="DejaVuSans-117"/>
      <path d="M 54.890625 33.015625 
L 54.890625 0 
L 45.90625 0 
L 45.90625 32.71875 
Q 45.90625 40.484375 42.875 44.328125 
Q 39.84375 48.1875 33.796875 48.1875 
Q 26.515625 48.1875 22.3125 43.546875 
Q 18.109375 38.921875 18.109375 30.90625 
L 18.109375 0 
L 9.078125 0 
L 9.078125 54.6875 
L 18.109375 54.6875 
L 18.109375 46.1875 
Q 21.34375 51.125 25.703125 53.5625 
Q 30.078125 56 35.796875 56 
Q 45.21875 56 50.046875 50.171875 
Q 54.890625 44.34375 54.890625 33.015625 
z
" id="DejaVuSans-110"/>
     </defs>
     <g transform="translate(51.470312 239.948906)rotate(-90)scale(0.1 -0.1)">
      <use xlink:href="#DejaVuSans-67"/>
      <use x="69.824219" xlink:href="#DejaVuSans-97"/>
      <use x="131.103516" xlink:href="#DejaVuSans-108"/>
      <use x="158.886719" xlink:href="#DejaVuSans-108"/>
      <use x="186.669922" xlink:href="#DejaVuSans-32"/>
      <use x="218.457031" xlink:href="#DejaVuSans-99"/>
      <use x="273.4375" xlink:href="#DejaVuSans-111"/>
      <use x="334.619141" xlink:href="#DejaVuSans-117"/>
      <use x="397.998047" xlink:href="#DejaVuSans-110"/>
      <use x="461.376953" xlink:href="#DejaVuSans-116"/>
     </g>
    </g>
   </g>
   <g id="line2d_23">
    <path clip-path="url(#p0fc5fd6691)" d="M 115.363636 324.056611 
L 117.009152 347.181164 
L 117.065894 327.924132 
L 117.122636 341.057589 
L 117.292862 356.4471 
L 117.633313 324.056611 
L 118.768151 324.056611 
L 126.655278 318.819343 
L 126.71202 295.453069 
L 126.882245 356.93054 
L 128.981696 295.453069 
L 132.386211 254.602378 
L 135.790726 319.46393 
L 136.982306 356.044233 
L 137.039048 336.464908 
L 137.09579 340.735296 
L 137.266016 343.313643 
L 138.060403 319.46393 
L 146.004271 321.236543 
L 147.139109 321.236543 
L 147.76327 348.712058 
L 147.876754 343.47479 
L 147.933496 332.839107 
L 147.990238 349.678938 
L 149.408786 321.236543 
L 159.622331 359.911754 
L 162.005491 360.072901 
L 162.232459 360.234048 
L 163.026846 359.911754 
L 164.729103 360.234048 
L 165.296522 360.234048 
L 166.488102 359.831181 
L 166.544844 359.589461 
L 166.601586 360.072901 
L 167.566199 359.589461 
L 169.835876 358.622581 
L 171.027456 359.589461 
L 171.084198 359.347741 
L 171.14094 360.072901 
L 172.105552 359.347741 
L 173.24039 358.058567 
L 173.864552 360.234048 
L 174.375229 360.234048 
L 175.623551 359.831181 
L 176.644905 359.750608 
L 180.106162 359.589461 
L 180.162904 358.864301 
L 180.219646 359.589461 
L 181.184259 358.864301 
L 183.453935 357.89742 
L 184.702257 359.347741 
L 185.723612 359.347741 
L 186.85845 356.608247 
L 189.184869 359.347741 
L 189.241611 359.106021 
L 189.298353 360.072901 
L 190.262965 359.025447 
L 192.532642 360.234048 
L 193.780964 358.864301 
L 194.802318 358.864301 
L 197.071995 358.380861 
L 198.263575 360.072901 
L 198.320317 359.831181 
L 198.377059 360.072901 
L 199.341672 359.831181 
L 200.47651 357.41398 
L 202.802929 359.831181 
L 202.859671 359.589461 
L 202.916412 360.072901 
L 203.881025 359.347741 
L 204.221477 360.234048 
L 206.491153 360.234048 
L 207.342282 360.072901 
L 207.399024 359.589461 
L 207.455766 359.831181 
L 207.909701 360.234048 
L 208.420378 359.508888 
L 210.690055 358.542007 
L 211.881635 359.831181 
L 211.938377 359.347741 
L 211.995119 359.831181 
L 212.959732 359.347741 
L 214.09457 357.333407 
L 216.420988 359.347741 
L 216.47773 359.106021 
L 216.534472 360.072901 
L 217.499085 359.106021 
L 220.960342 359.589461 
L 221.017084 358.622581 
L 221.073825 359.347741 
L 222.038438 358.622581 
L 224.194631 360.234048 
L 224.308115 357.816847 
L 225.556437 360.072901 
L 225.783405 360.234048 
L 226.521049 360.234048 
L 226.577791 359.589461 
L 226.691275 360.234048 
L 227.42892 360.234048 
L 227.71263 357.494554 
L 230.09579 359.992328 
L 231.117145 359.992328 
L 234.635143 359.831181 
L 235.089079 360.234048 
L 235.656498 359.670034 
L 235.826724 360.234048 
L 237.926175 357.736274 
L 238.266626 360.234048 
L 238.777303 360.234048 
L 239.174497 358.622581 
L 239.231239 359.831181 
L 240.195851 358.542007 
L 241.217206 360.234048 
L 241.330689 357.252834 
L 243.71385 360.072901 
L 244.394753 360.234048 
L 244.735204 359.831181 
L 245.075656 360.234048 
L 247.004881 360.234048 
L 248.253203 359.347741 
L 249.274558 359.267168 
L 249.841977 360.234048 
L 250.52288 360.234048 
L 251.544234 358.864301 
L 252.338621 360.234048 
L 252.792556 360.072901 
L 253.813911 360.072901 
L 254.948749 358.219714 
L 255.743136 360.234048 
L 256.083588 360.234048 
L 257.33191 359.831181 
L 258.353264 359.670034 
L 260.622941 360.234048 
L 261.701037 360.234048 
L 261.871263 359.831181 
L 261.928005 360.072901 
L 262.892617 359.750608 
L 263.289811 360.234048 
L 264.594875 360.234048 
L 264.765101 356.044233 
L 264.821843 349.598365 
L 264.878585 353.868753 
L 265.162294 348.873205 
L 268.566809 317.933036 
L 268.850519 355.883087 
L 268.907261 340.090709 
L 268.964002 344.522243 
L 269.134228 349.598365 
L 269.701647 329.374452 
L 271.971324 329.374452 
L 282.184869 334.611721 
L 285.589384 334.611721 
L 286.66748 351.773845 
L 286.780964 348.550911 
L 286.837706 343.152496 
L 286.894448 354.916206 
L 287.85906 343.152496 
L 292.398414 322.283997 
L 293.816962 356.124807 
L 293.873703 339.687842 
L 293.930445 343.877657 
L 294.100671 342.910776 
L 294.66809 322.283997 
L 295.802929 185.953878 
L 297.107993 352.015565 
L 297.278218 352.660152 
L 299.037218 322.60629 
L 299.09396 303.268685 
L 299.150702 340.977016 
L 299.207444 223.984503 
L 299.320927 357.6557 
L 301.079927 359.267168 
L 301.136669 350.404098 
L 301.193411 351.451552 
L 301.363636 348.953778 
L 301.47712 309.311687 
L 302.214765 359.831181 
L 302.441733 338.882108 
L 302.498475 338.882108 
L 303.746797 331.147066 
L 304.370958 358.300287 
L 304.484442 349.759512 
L 304.541184 333.1614 
L 304.597926 343.71651 
L 306.016473 291.263255 
L 307.775473 356.20538 
L 307.945699 324.540051 
L 308.00244 352.821299 
L 308.28615 320.43081 
L 309.420988 223.581636 
L 310.555827 337.834655 
L 311.520439 349.276071 
L 311.577181 337.834655 
L 311.747407 351.290405 
L 311.804149 351.290405 
L 312.825503 292.633002 
L 315.09518 324.137184 
L 315.265406 360.072901 
L 315.435631 324.378904 
L 315.492373 339.204402 
L 317.364857 331.872226 
L 317.535082 354.835633 
L 317.648566 350.565245 
L 317.705308 337.351215 
L 317.76205 347.100591 
L 319.010372 351.693272 
L 319.067114 328.488145 
L 319.123856 337.109495 
L 319.294082 358.783727 
L 319.634533 239.53516 
L 320.599146 351.370979 
L 320.655888 327.521265 
L 320.71263 336.464908 
L 320.882855 359.831181 
L 321.90421 334.12828 
L 322.074436 358.380861 
L 322.244661 336.545481 
L 322.301403 348.953778 
L 323.039048 116.660792 
L 323.209274 341.299309 
L 323.436242 358.139141 
L 324.173887 308.022513 
L 324.684564 354.674486 
L 324.741306 353.143592 
L 324.798048 358.783727 
L 326.04637 350.484672 
L 326.103112 334.450574 
L 326.159854 344.280523 
L 326.330079 359.589461 
L 326.443563 237.440253 
L 327.52166 345.730844 
L 327.635143 350.001232 
L 327.691885 349.276071 
L 327.748627 359.589461 
L 328.71324 330.905346 
L 328.883466 355.157926 
L 329.053691 347.100591 
L 329.110433 355.641366 
L 330.585723 357.89742 
L 330.982916 301.979511 
L 332.514948 358.139141 
L 332.628432 353.465886 
L 332.685174 338.398668 
L 332.741916 345.247404 
L 333.252593 224.065076 
L 334.557657 357.89742 
L 334.727883 333.64484 
L 334.784625 355.157926 
L 335.52227 306.491619 
L 336.486882 356.68882 
L 336.543624 335.578601 
L 336.600366 339.204402 
L 336.657108 76.696408 
L 336.770592 338.156948 
L 337.791946 305.363592 
L 338.529591 353.304739 
L 338.586333 336.142614 
L 338.643075 343.152496 
L 338.813301 351.693272 
L 339.66443 356.769393 
L 339.721171 339.446122 
L 339.777913 342.99135 
L 339.948139 355.157926 
L 340.061623 212.945953 
L 340.685784 360.072901 
L 340.799268 353.707606 
L 340.85601 339.768415 
L 340.912752 346.375431 
L 341.820622 351.451552 
L 341.934106 355.399646 
L 341.990848 350.565245 
L 342.04759 355.48022 
L 342.3313 314.710102 
L 343.182428 357.575127 
L 343.352654 336.062041 
L 343.409396 348.067471 
L 344.600976 337.834655 
L 345.338621 357.333407 
L 345.395363 349.759512 
L 345.452105 352.740726 
L 345.622331 348.389764 
L 346.870653 260.8871 
L 346.927395 354.432766 
L 346.984137 344.844537 
L 347.154362 356.366527 
L 347.211104 356.366527 
L 348.175717 347.825751 
L 348.345943 340.090709 
L 348.402685 360.072901 
L 349.140329 302.785245 
L 349.424039 359.106021 
L 349.480781 351.773845 
L 349.537523 352.982446 
L 349.707749 344.038803 
L 350.275168 163.715632 
L 350.899329 355.641366 
L 351.069555 337.270641 
L 351.126297 356.608247 
L 351.410006 327.198972 
L 352.488102 354.916206 
L 352.658328 339.123828 
L 352.71507 354.432766 
L 353.679683 263.143154 
L 354.303844 348.550911 
L 354.530811 358.622581 
L 355.779134 356.93054 
L 355.949359 338.962682 
L 356.062843 358.622581 
L 357.027456 359.589461 
L 357.197682 326.796105 
L 357.254423 347.020017 
L 358.219036 299.240017 
L 358.389262 357.41398 
L 358.502746 351.934992 
L 358.559487 335.659174 
L 358.616229 344.038803 
L 359.637584 358.542007 
L 359.694326 343.152496 
L 359.751068 344.92511 
L 359.921293 354.835633 
L 360.488713 222.856476 
L 360.99939 357.575127 
L 361.056132 341.541029 
L 361.112874 344.280523 
L 361.283099 356.285953 
L 362.47468 349.195498 
L 362.588164 350.887538 
L 362.644905 347.664604 
L 362.701647 357.091687 
L 363.836486 353.143592 
L 363.893228 74.762647 
L 363.94997 338.318095 
L 364.006711 332.597387 
L 364.063453 354.593913 
L 365.084808 355.077353 
L 365.14155 335.417454 
L 365.198292 340.654722 
L 365.368517 356.608247 
L 366.787065 348.873205 
L 366.900549 350.806965 
L 366.957291 345.247404 
L 367.014033 354.75506 
L 367.297743 212.220793 
L 368.375839 355.802513 
L 368.546065 328.971586 
L 368.602807 349.840085 
L 369.964613 352.901872 
L 370.134838 338.318095 
L 370.19158 356.366527 
L 371.439902 344.280523 
L 371.496644 334.611721 
L 371.66687 360.072901 
L 371.723612 360.072901 
L 373.028676 351.370979 
L 373.085418 330.583053 
L 373.14216 339.526695 
L 373.312386 359.347741 
L 374.106772 217.619207 
L 374.730933 354.916206 
L 374.844417 350.323525 
L 374.901159 337.109495 
L 374.957901 347.100591 
L 376.092739 347.986898 
L 376.206223 348.309191 
L 376.262965 346.294857 
L 376.319707 358.300287 
L 377.114094 354.674486 
L 377.170836 337.028921 
L 377.227578 342.669056 
L 377.397804 352.499006 
L 377.511287 69.605952 
L 378.702868 358.622581 
L 378.75961 340.574149 
L 378.816351 342.266189 
L 378.986577 354.191046 
L 380.178157 346.053137 
L 380.348383 330.502479 
L 380.915802 212.301366 
L 381.42648 358.058567 
L 381.483222 342.346763 
L 381.539963 344.602817 
L 381.710189 354.75506 
L 382.561318 357.333407 
L 382.61806 337.995802 
L 382.674802 340.977016 
L 382.845027 353.788179 
L 384.036608 353.707606 
L 384.150092 352.579579 
L 384.206833 341.218736 
L 384.263575 348.953778 
L 385.398414 329.857893 
L 386.987187 342.346763 
L 387.157413 350.242952 
L 387.724832 235.909359 
L 388.462477 354.75506 
L 388.519219 343.071923 
L 388.575961 348.631485 
L 388.746187 359.186594 
L 389.370348 353.143592 
L 389.42709 336.303761 
L 389.483832 343.47479 
L 389.654057 358.461434 
L 390.61867 352.740726 
L 390.732154 352.821299 
L 390.788896 346.214284 
L 390.845638 353.707606 
L 391.129347 130.76113 
L 392.207444 348.148044 
L 392.434411 357.816847 
L 393.682733 355.641366 
L 393.739475 344.844537 
L 393.796217 349.517791 
L 394.533862 255.166391 
L 394.817572 354.51334 
L 394.874314 337.995802 
L 395.101281 358.380861 
L 396.065894 345.247404 
L 396.292862 359.831181 
L 397.200732 352.096139 
L 397.370958 347.986898 
L 397.4277 359.831181 
L 398.449054 352.499006 
L 398.505796 340.654722 
L 398.562538 348.470338 
L 398.732764 355.802513 
L 399.697376 359.025447 
L 399.867602 338.318095 
L 399.924344 353.949326 
L 400.945699 357.17226 
L 401.002441 349.114925 
L 401.059182 352.257286 
L 401.229408 351.129259 
L 401.342892 212.865379 
L 402.080537 354.75506 
L 402.137279 345.40855 
L 402.307505 351.693272 
L 402.364246 351.693272 
L 403.101891 342.024469 
L 403.328859 359.025447 
L 404.23673 357.89742 
L 404.350214 352.418432 
L 404.406955 333.564267 
L 404.463697 341.460456 
L 404.747407 91.763625 
L 405.938987 360.072901 
L 405.995729 349.920658 
L 406.052471 350.162378 
L 406.222697 345.005683 
L 407.414277 358.300287 
L 407.584503 339.768415 
L 407.641245 353.224166 
L 408.151922 239.212867 
L 408.549115 350.484672 
L 408.662599 349.759512 
L 408.719341 347.100591 
L 408.776083 357.6557 
L 409.797437 359.347741 
L 409.854179 343.313643 
L 409.910921 344.280523 
L 410.081147 352.660152 
L 410.932276 352.982446 
L 410.989018 336.626054 
L 411.04576 343.95823 
L 411.215985 358.864301 
L 412.521049 345.569697 
L 412.577791 330.019039 
L 412.634533 344.763963 
L 412.804759 355.2385 
L 414.109823 358.542007 
L 414.166565 347.020017 
L 414.223307 348.792631 
L 414.393533 346.294857 
L 414.960952 251.218297 
L 415.585113 358.380861 
L 415.755339 335.739748 
L 415.812081 354.916206 
L 416.946919 357.41398 
L 417.117145 344.280523 
L 417.173887 357.494554 
L 418.308725 359.347741 
L 418.365467 80.886222 
L 418.422209 335.578601 
L 418.478951 324.298331 
L 418.535693 349.034351 
L 419.784015 350.887538 
L 419.840757 343.95823 
L 419.897498 353.385313 
L 420.067724 353.304739 
L 420.918853 359.508888 
L 421.202563 325.426358 
L 421.769982 189.982546 
L 422.280659 358.703154 
L 422.337401 347.664604 
L 422.394143 349.276071 
L 422.564369 341.943896 
L 423.642465 357.17226 
L 423.699207 347.825751 
L 423.755949 350.968112 
L 423.926174 346.697724 
L 424.039658 350.726392 
L 425.117755 350.726392 
L 425.28798 331.71108 
L 425.344722 357.736274 
L 426.309335 327.843559 
L 426.593045 352.499006 
L 426.649786 345.972564 
L 426.820012 354.51334 
L 426.876754 354.51334 
L 427.95485 351.773845 
L 428.011592 346.778297 
L 428.068334 355.319073 
L 428.23856 353.949326 
L 428.579012 312.776341 
L 429.43014 352.257286 
L 429.600366 340.735296 
L 429.657108 359.831181 
L 430.564979 356.527673 
L 430.735204 336.142614 
L 430.791946 354.835633 
L 430.848688 332.355667 
L 431.983527 137.851585 
L 432.494204 357.575127 
L 432.550946 346.375431 
L 432.777913 354.99678 
L 433.118365 310.439714 
L 433.85601 355.2385 
L 433.912752 333.805987 
L 433.969494 338.882108 
L 434.139719 356.20538 
L 435.388041 336.223188 
L 436.012203 353.465886 
L 436.182428 343.071923 
L 436.23917 359.347741 
L 437.657718 336.062041 
L 437.941428 353.707606 
L 437.99817 340.332429 
L 438.054912 346.939444 
L 438.225137 356.044233 
L 439.927395 340.332429 
L 440.324588 351.532125 
L 440.494814 349.114925 
L 442.197071 332.355667 
L 442.253813 353.143592 
L 442.310555 336.223188 
L 442.537523 356.4471 
L 444.296522 349.195498 
L 444.353264 340.977016 
L 444.410006 352.096139 
L 444.466748 334.772867 
L 444.580232 355.96366 
L 445.544844 358.461434 
L 445.601586 145.18376 
L 445.658328 331.388786 
L 445.71507 320.67253 
L 445.771812 349.598365 
L 446.736425 294.002749 
L 447.133618 358.219714 
L 447.303844 335.739748 
L 447.360586 349.034351 
L 448.608908 353.063019 
L 448.66565 339.768415 
L 448.722392 347.020017 
L 448.892617 359.589461 
L 449.006101 218.666661 
L 450.197682 353.707606 
L 450.254423 333.805987 
L 450.311165 340.413002 
L 450.481391 356.68882 
L 451.275778 306.249899 
L 451.446004 345.327977 
L 451.672971 359.106021 
L 452.694326 347.503458 
L 452.751068 331.791653 
L 452.80781 344.602817 
L 453.545455 310.681434 
L 454.056132 357.6557 
L 454.112874 344.119377 
L 454.169616 346.778297 
L 454.339841 355.399646 
L 455.19097 355.48022 
L 455.247712 345.247404 
L 455.304454 350.081805 
L 455.47468 352.337859 
L 455.815131 232.525278 
L 456.439292 355.157926 
L 456.609518 339.123828 
L 456.66626 355.560793 
L 457.687614 357.89742 
L 457.744356 349.517791 
L 457.801098 351.934992 
L 457.971324 347.422884 
L 458.084808 331.549933 
L 459.162904 355.2385 
L 459.219646 106.266829 
L 459.276388 330.502479 
L 459.33313 328.326999 
L 459.389872 358.139141 
L 460.354484 304.235565 
L 460.638194 349.114925 
L 460.694936 338.156948 
L 460.865162 358.380861 
L 460.921904 358.380861 
L 461.886516 354.75506 
L 462.056742 340.413002 
L 462.113484 356.124807 
L 462.624161 311.326021 
L 463.361806 350.081805 
L 463.418548 339.365549 
L 463.47529 349.598365 
L 463.645516 357.736274 
L 464.723612 355.157926 
L 464.893838 339.123828 
L 465.007322 352.499006 
L 466.425869 347.261737 
L 466.539353 351.854419 
L 466.596095 349.598365 
L 466.652837 358.058567 
L 467.163514 313.018061 
L 467.787675 348.067471 
L 467.901159 350.484672 
L 467.957901 349.034351 
L 468.014643 358.864301 
L 469.149481 353.627033 
L 469.262965 356.366527 
L 469.433191 312.051181 
L 470.28432 357.011114 
L 470.454545 335.498027 
L 470.511287 348.309191 
L 471.702868 341.379882 
L 472.327029 358.219714 
L 472.497254 343.47479 
L 472.553996 354.75506 
L 472.837706 147.681534 
L 473.915802 356.4471 
L 473.972544 333.322547 
L 474.029286 340.815869 
L 474.086028 337.190068 
L 474.14277 356.68882 
L 475.61806 350.565245 
L 475.674802 339.365549 
L 475.731544 349.114925 
L 475.901769 356.4471 
L 476.242221 313.984941 
L 477.09335 357.17226 
L 477.206833 351.451552 
L 477.263575 341.943896 
L 477.320317 350.806965 
L 478.511898 335.498027 
L 479.249542 351.693272 
L 479.306284 344.522243 
L 479.363026 353.143592 
L 479.533252 351.290405 
L 480.724832 355.319073 
L 480.781574 331.630506 
L 480.838316 342.74963 
L 480.895058 336.626054 
L 480.9518 354.191046 
L 482.881025 356.608247 
L 483.051251 330.583053 
L 483.164735 348.953778 
L 484.696766 357.89742 
L 484.753508 349.034351 
L 484.81025 351.451552 
L 484.980476 346.214284 
L 485.320927 294.163896 
L 486.172056 359.347741 
L 486.342282 320.511383 
L 486.399024 341.460456 
L 486.455766 139.382479 
L 487.590604 332.839107 
L 488.555217 352.176712 
L 488.611959 332.839107 
L 488.6687 340.977016 
L 488.838926 359.589461 
L 489.860281 330.98592 
L 490.597926 348.228618 
L 490.654667 332.91968 
L 490.711409 345.005683 
L 490.881635 359.106021 
L 492.129957 320.753103 
L 492.981086 356.20538 
L 493.151312 324.862344 
L 493.208054 344.361097 
L 495.591214 360.072901 
L 495.647956 347.342311 
L 495.704698 347.584031 
L 495.874924 345.730844 
L 496.669311 307.539073 
L 497.406955 356.20538 
L 497.463697 341.218736 
L 497.520439 345.327977 
L 497.690665 354.191046 
L 498.882245 352.982446 
L 498.938987 329.455026 
L 498.995729 350.242952 
L 499.052471 336.787201 
L 499.109213 346.858871 
L 500.073825 150.421028 
L 500.81147 353.465886 
L 500.868212 342.99135 
L 501.038438 352.982446 
L 501.09518 352.982446 
L 501.208664 302.946392 
L 502.173276 353.224166 
L 502.230018 327.601839 
L 502.28676 334.692294 
L 502.456986 347.825751 
L 503.47834 324.942918 
L 503.989018 358.622581 
L 504.04576 348.228618 
L 504.102502 349.920658 
L 504.272727 349.517791 
L 505.748017 326.796105 
L 505.804759 359.025447 
L 505.861501 338.720962 
L 505.918243 340.010135 
L 506.088469 348.389764 
L 508.017694 322.36457 
L 508.074436 346.375431 
L 508.131178 326.070945 
L 508.358145 356.608247 
L 510.28737 327.682412 
L 510.457596 348.148044 
L 510.627822 339.848989 
L 510.684564 358.783727 
L 512.386821 353.627033 
L 512.557047 328.165852 
L 512.670531 353.868753 
L 513.691885 134.870371 
L 514.826724 321.317117 
L 514.883466 352.337859 
L 514.940207 332.758533 
L 515.110433 348.873205 
L 515.167175 348.873205 
L 517.0964 330.502479 
L 517.266626 354.191046 
L 517.436852 336.626054 
L 517.493594 353.788179 
L 519.309335 353.627033 
L 519.366077 306.411046 
L 519.422819 330.260759 
L 519.479561 313.098634 
L 519.536303 343.152496 
L 521.635754 315.918702 
L 522.032947 357.17226 
L 522.146431 344.038803 
L 522.203173 319.061063 
L 522.259915 335.336881 
L 523.90543 330.421906 
L 524.643075 358.783727 
L 524.699817 340.251855 
L 524.756559 341.782749 
L 524.926785 350.484672 
L 526.118365 342.185616 
L 526.175107 325.668078 
L 526.345333 357.6557 
L 527.309945 137.045851 
L 527.707139 358.058567 
L 527.877364 331.46936 
L 527.934106 350.081805 
L 528.444783 323.170304 
L 529.52288 354.271619 
L 529.693106 331.066493 
L 529.749847 349.276071 
L 530.71446 310.35914 
L 531.338621 352.176712 
L 531.508847 347.745178 
L 531.565589 358.864301 
L 532.927395 356.124807 
L 532.984137 333.080827 
L 533.040879 346.617151 
L 533.09762 337.270641 
L 533.154362 350.968112 
L 535.253813 320.269663 
L 535.310555 352.660152 
L 535.367297 328.165852 
L 535.594265 352.418432 
L 537.23978 348.953778 
L 537.410006 335.095161 
L 537.466748 354.51334 
L 537.52349 323.734317 
L 538.942038 352.418432 
L 538.99878 341.138162 
L 539.055522 349.034351 
L 539.225747 356.608247 
L 539.793167 295.69479 
L 540.417328 341.943896 
L 540.587553 336.948348 
L 540.644295 357.494554 
L 540.928005 111.020657 
L 542.233069 356.285953 
L 542.346553 351.048685 
L 542.403295 338.559815 
L 542.460037 347.825751 
L 543.481391 353.949326 
L 543.538133 337.431788 
L 543.594875 343.797083 
L 543.765101 353.546459 
L 544.33252 306.169326 
L 545.297132 349.114925 
L 545.353874 335.820321 
L 545.410616 347.020017 
L 545.580842 359.106021 
L 546.602196 332.19452 
L 546.99939 359.589461 
L 547.169616 334.12828 
L 547.226358 346.456004 
L 548.871873 335.336881 
L 549.155583 349.920658 
L 549.212325 336.787201 
L 549.269066 347.181164 
L 549.439292 358.864301 
L 550.971324 348.228618 
L 551.14155 327.682412 
L 551.255034 355.96366 
L 552.673581 353.788179 
L 552.843807 349.356645 
L 552.900549 360.072901 
L 553.411226 342.830203 
L 554.546065 151.226762 
L 554.602807 358.300287 
L 554.659549 340.413002 
L 554.886516 347.422884 
L 555.680903 293.519309 
L 556.758999 359.347741 
L 557.95058 322.445144 
L 558.234289 347.181164 
L 558.291031 327.279545 
L 558.347773 340.413002 
L 558.517999 355.48022 
L 560.220256 330.98592 
L 560.390482 349.356645 
L 560.503966 347.986898 
L 560.560708 341.943896 
L 560.61745 354.271619 
L 562.319707 332.355667 
L 562.376449 317.771889 
L 562.433191 345.730844 
L 562.489933 309.472833 
L 562.603417 352.015565 
L 564.362416 350.323525 
L 564.419158 339.123828 
L 564.4759 349.114925 
L 564.646126 358.380861 
L 564.75961 325.104065 
L 565.837706 348.228618 
L 565.95119 347.503458 
L 566.007932 344.280523 
L 566.064674 357.091687 
L 567.029286 311.084301 
L 567.312996 355.48022 
L 567.369738 342.830203 
L 567.42648 347.664604 
L 567.596705 344.602817 
L 568.164124 143.25 
L 569.128737 354.593913 
L 569.298963 336.706628 
L 569.412447 356.4471 
L 570.830995 360.072901 
L 571.00122 328.891012 
L 571.057962 344.92511 
L 571.568639 328.649292 
L 572.873703 359.106021 
L 573.043929 335.014587 
L 573.100671 348.148044 
L 573.838316 333.805987 
L 575.029896 359.106021 
L 575.086638 351.854419 
L 575.14338 353.063019 
L 576.107993 316.321569 
L 577.072605 358.864301 
L 577.129347 336.706628 
L 577.186089 338.156948 
L 577.356315 353.143592 
L 578.377669 337.351215 
L 579.342282 356.527673 
L 579.399024 344.522243 
L 579.455766 348.309191 
L 579.625991 349.920658 
L 580.647346 307.861366 
L 581.611959 347.422884 
L 581.6687 318.255329 
L 581.725442 331.147066 
L 581.782184 132.614317 
L 581.895668 333.241973 
L 582.917023 302.704672 
L 583.654667 354.432766 
L 583.711409 336.223188 
L 583.768151 342.105043 
L 583.938377 353.868753 
L 585.186699 333.88656 
L 585.356925 359.750608 
L 585.527151 334.450574 
L 585.583893 348.470338 
L 587.456376 336.062041 
L 587.626602 356.608247 
L 587.740085 350.081805 
L 587.796827 339.768415 
L 587.853569 350.001232 
L 589.669311 355.399646 
L 589.726052 333.40312 
L 589.782794 344.44167 
L 589.839536 338.318095 
L 589.896278 354.191046 
L 591.258084 345.730844 
L 591.42831 338.237522 
L 591.485052 358.542007 
L 591.995729 323.653744 
L 593.300793 357.41398 
L 593.471019 331.549933 
L 593.527761 346.456004 
L 594.265406 301.576645 
L 594.889567 359.025447 
L 595.059793 334.531147 
L 595.116534 350.806965 
L 595.400244 137.287571 
L 596.535082 334.531147 
L 596.818792 354.674486 
L 596.875534 342.185616 
L 596.932276 347.825751 
L 597.102502 352.660152 
L 598.748017 346.939444 
L 598.804759 333.725414 
L 598.974985 360.072901 
L 600.450275 350.726392 
L 600.507016 329.535599 
L 600.563758 339.123828 
L 600.733984 356.124807 
L 601.074436 311.970607 
L 602.152532 346.939444 
L 602.322758 322.203424 
L 602.3795 358.783727 
L 603.344112 299.884604 
L 604.195241 349.759512 
L 604.308725 350.001232 
L 604.365467 348.550911 
L 604.422209 358.864301 
L 605.557047 356.849967 
L 605.613789 340.413002 
L 605.670531 350.081805 
L 605.727273 343.877657 
L 605.784015 354.110473 
L 606.805369 359.106021 
L 606.862111 340.493576 
L 606.918853 341.702176 
L 607.089079 349.517791 
L 607.883466 304.316139 
L 608.167175 356.124807 
L 608.223917 340.735296 
L 608.280659 344.92511 
L 608.450885 354.51334 
L 609.018304 102.882748 
L 609.528981 357.6557 
L 609.585723 346.13371 
L 609.812691 352.176712 
L 610.153142 308.103086 
L 610.890787 349.356645 
L 610.947529 339.848989 
L 611.004271 350.806965 
L 611.174497 350.887538 
L 612.366077 352.821299 
L 612.422819 336.706628 
L 612.479561 346.617151 
L 612.536303 344.19995 
L 612.593045 357.89742 
L 613.841367 355.560793 
L 613.898109 346.939444 
L 613.954851 351.693272 
L 614.125076 354.674486 
L 614.692495 315.032395 
L 615.089689 348.470338 
L 615.203173 347.906324 
L 615.259915 345.89199 
L 615.316657 358.300287 
L 616.564979 358.139141 
L 616.791946 307.94194 
L 616.848688 307.94194 
L 616.962172 287.879174 
L 618.267236 358.380861 
L 618.437462 342.830203 
L 618.494204 352.579579 
L 619.231849 335.739748 
L 620.253203 355.157926 
L 622.636364 263.3043 
L 622.636364 263.3043 
" style="fill:none;stroke:#0000ff;stroke-linecap:square;stroke-width:1.5;"/>
   </g>
   <g id="patch_3">
    <path d="M 90 378 
L 90 51.84 
" style="fill:none;stroke:#000000;stroke-linecap:square;stroke-linejoin:miter;stroke-width:0.8;"/>
   </g>
   <g id="patch_4">
    <path d="M 648 378 
L 648 51.84 
" style="fill:none;stroke:#000000;stroke-linecap:square;stroke-linejoin:miter;stroke-width:0.8;"/>
   </g>
   <g id="patch_5">
    <path d="M 90 378 
L 648 378 
" style="fill:none;stroke:#000000;stroke-linecap:square;stroke-linejoin:miter;stroke-width:0.8;"/>
   </g>
   <g id="patch_6">
    <path d="M 90 51.84 
L 648 51.84 
" style="fill:none;stroke:#000000;stroke-linecap:square;stroke-linejoin:miter;stroke-width:0.8;"/>
   </g>
   <g id="text_18">
    <!-- Call Count [IN] Anomalies -->
    <defs>
     <path d="M 8.59375 75.984375 
L 29.296875 75.984375 
L 29.296875 69 
L 17.578125 69 
L 17.578125 -6.203125 
L 29.296875 -6.203125 
L 29.296875 -13.1875 
L 8.59375 -13.1875 
z
" id="DejaVuSans-91"/>
     <path d="M 9.8125 72.90625 
L 19.671875 72.90625 
L 19.671875 0 
L 9.8125 0 
z
" id="DejaVuSans-73"/>
     <path d="M 9.8125 72.90625 
L 23.09375 72.90625 
L 55.421875 11.921875 
L 55.421875 72.90625 
L 64.984375 72.90625 
L 64.984375 0 
L 51.703125 0 
L 19.390625 60.984375 
L 19.390625 0 
L 9.8125 0 
z
" id="DejaVuSans-78"/>
     <path d="M 30.421875 75.984375 
L 30.421875 -13.1875 
L 9.71875 -13.1875 
L 9.71875 -6.203125 
L 21.390625 -6.203125 
L 21.390625 69 
L 9.71875 69 
L 9.71875 75.984375 
z
" id="DejaVuSans-93"/>
     <path d="M 34.1875 63.1875 
L 20.796875 26.90625 
L 47.609375 26.90625 
z
M 28.609375 72.90625 
L 39.796875 72.90625 
L 67.578125 0 
L 57.328125 0 
L 50.6875 18.703125 
L 17.828125 18.703125 
L 11.1875 0 
L 0.78125 0 
z
" id="DejaVuSans-65"/>
    </defs>
    <g transform="translate(292.069687 45.84)scale(0.12 -0.12)">
     <use xlink:href="#DejaVuSans-67"/>
     <use x="69.824219" xlink:href="#DejaVuSans-97"/>
     <use x="131.103516" xlink:href="#DejaVuSans-108"/>
     <use x="158.886719" xlink:href="#DejaVuSans-108"/>
     <use x="186.669922" xlink:href="#DejaVuSans-32"/>
     <use x="218.457031" xlink:href="#DejaVuSans-67"/>
     <use x="288.28125" xlink:href="#DejaVuSans-111"/>
     <use x="349.462891" xlink:href="#DejaVuSans-117"/>
     <use x="412.841797" xlink:href="#DejaVuSans-110"/>
     <use x="476.220703" xlink:href="#DejaVuSans-116"/>
     <use x="515.429688" xlink:href="#DejaVuSans-32"/>
     <use x="547.216797" xlink:href="#DejaVuSans-91"/>
     <use x="586.230469" xlink:href="#DejaVuSans-73"/>
     <use x="615.722656" xlink:href="#DejaVuSans-78"/>
     <use x="690.527344" xlink:href="#DejaVuSans-93"/>
     <use x="729.541016" xlink:href="#DejaVuSans-32"/>
     <use x="761.328125" xlink:href="#DejaVuSans-65"/>
     <use x="829.736328" xlink:href="#DejaVuSans-110"/>
     <use x="893.115234" xlink:href="#DejaVuSans-111"/>
     <use x="954.296875" xlink:href="#DejaVuSans-109"/>
     <use x="1051.708984" xlink:href="#DejaVuSans-97"/>
     <use x="1112.988281" xlink:href="#DejaVuSans-108"/>
     <use x="1140.771484" xlink:href="#DejaVuSans-105"/>
     <use x="1168.554688" xlink:href="#DejaVuSans-101"/>
     <use x="1230.078125" xlink:href="#DejaVuSans-115"/>
    </g>
   </g>
   <g id="legend_1">
    <g id="patch_7">
     <path d="M 565.1375 89.19625 
L 641 89.19625 
Q 643 89.19625 643 87.19625 
L 643 58.84 
Q 643 56.84 641 56.84 
L 565.1375 56.84 
Q 563.1375 56.84 563.1375 58.84 
L 563.1375 87.19625 
Q 563.1375 89.19625 565.1375 89.19625 
z
" style="fill:#ffffff;opacity:0.8;stroke:#cccccc;stroke-linejoin:miter;"/>
    </g>
    <g id="line2d_24">
     <path d="M 567.1375 64.938437 
L 587.1375 64.938437 
" style="fill:none;stroke:#0000ff;stroke-linecap:square;stroke-width:1.5;"/>
    </g>
    <g id="line2d_25"/>
    <g id="text_19">
     <!-- Normal -->
     <defs>
      <path d="M 41.109375 46.296875 
Q 39.59375 47.171875 37.8125 47.578125 
Q 36.03125 48 33.890625 48 
Q 26.265625 48 22.1875 43.046875 
Q 18.109375 38.09375 18.109375 28.8125 
L 18.109375 0 
L 9.078125 0 
L 9.078125 54.6875 
L 18.109375 54.6875 
L 18.109375 46.1875 
Q 20.953125 51.171875 25.484375 53.578125 
Q 30.03125 56 36.53125 56 
Q 37.453125 56 38.578125 55.875 
Q 39.703125 55.765625 41.0625 55.515625 
z
" id="DejaVuSans-114"/>
     </defs>
     <g transform="translate(595.1375 68.438437)scale(0.1 -0.1)">
      <use xlink:href="#DejaVuSans-78"/>
      <use x="74.804688" xlink:href="#DejaVuSans-111"/>
      <use x="135.986328" xlink:href="#DejaVuSans-114"/>
      <use x="177.083984" xlink:href="#DejaVuSans-109"/>
      <use x="274.496094" xlink:href="#DejaVuSans-97"/>
      <use x="335.775391" xlink:href="#DejaVuSans-108"/>
     </g>
    </g>
    <g id="PathCollection_2">
     <g>
      <use style="fill:#ff0000;stroke:#ff0000;" x="577.1375" xlink:href="#ma367c4bac2" y="80.491562"/>
     </g>
    </g>
    <g id="text_20">
     <!-- Anomaly -->
     <defs>
      <path d="M 32.171875 -5.078125 
Q 28.375 -14.84375 24.75 -17.8125 
Q 21.140625 -20.796875 15.09375 -20.796875 
L 7.90625 -20.796875 
L 7.90625 -13.28125 
L 13.1875 -13.28125 
Q 16.890625 -13.28125 18.9375 -11.515625 
Q 21 -9.765625 23.484375 -3.21875 
L 25.09375 0.875 
L 2.984375 54.6875 
L 12.5 54.6875 
L 29.59375 11.921875 
L 46.6875 54.6875 
L 56.203125 54.6875 
z
" id="DejaVuSans-121"/>
     </defs>
     <g transform="translate(595.1375 83.116562)scale(0.1 -0.1)">
      <use xlink:href="#DejaVuSans-65"/>
      <use x="68.408203" xlink:href="#DejaVuSans-110"/>
      <use x="131.787109" xlink:href="#DejaVuSans-111"/>
      <use x="192.96875" xlink:href="#DejaVuSans-109"/>
      <use x="290.380859" xlink:href="#DejaVuSans-97"/>
      <use x="351.660156" xlink:href="#DejaVuSans-108"/>
      <use x="379.443359" xlink:href="#DejaVuSans-121"/>
     </g>
    </g>
   </g>
  </g>
 </g>
 <defs>
  <clipPath id="p0fc5fd6691">
   <rect height="326.16" width="558" x="90" y="51.84"/>
  </clipPath>
 </defs>
</svg>
